<svg xmlns="http://www.w3.org/2000/svg" width="1280" height="1264" viewBox="0 0 1280 1264" version="1.1"><path d="M 772.236 24.971 C 773.655 26.087, 775.682 27, 776.741 27 C 777.800 27, 778.975 27.308, 779.352 27.685 C 779.729 28.062, 781.491 28.926, 783.269 29.606 C 785.046 30.285, 789.650 32.042, 793.500 33.511 C 799.475 35.791, 816.397 41.848, 833 47.649 C 854.979 55.329, 876.227 63.686, 882.780 67.227 C 884.585 68.202, 886.543 69, 887.132 69 C 890.042 69, 933.001 91.082, 944.500 98.488 C 947.250 100.259, 950.694 102.336, 952.153 103.104 C 960.997 107.757, 965.361 110.273, 972.500 114.832 C 976.900 117.642, 982.750 121.112, 985.500 122.542 C 988.250 123.973, 991.625 126.158, 993 127.397 C 994.375 128.637, 997.975 131.184, 1001 133.058 C 1004.025 134.933, 1007.620 137.486, 1008.990 138.733 C 1010.359 139.980, 1011.775 141, 1012.136 141 C 1012.759 141, 1025.807 150.768, 1029 153.625 C 1029.825 154.363, 1033.425 157.330, 1037 160.218 C 1047.878 169.006, 1048.347 169.401, 1051.578 172.503 C 1053.298 174.154, 1057.359 177.750, 1060.603 180.494 C 1075.187 192.832, 1097.564 215.473, 1109.531 230 C 1111.570 232.475, 1113.589 234.725, 1114.018 235 C 1114.447 235.275, 1116.822 238.200, 1119.296 241.500 C 1121.770 244.800, 1125.406 249.300, 1127.376 251.500 C 1129.346 253.700, 1132.655 257.975, 1134.729 261 C 1136.803 264.025, 1138.838 266.650, 1139.250 266.833 C 1139.662 267.017, 1140 267.804, 1140 268.583 C 1140 269.363, 1140.403 270, 1140.896 270 C 1141.390 270, 1143.930 273.488, 1146.542 277.750 C 1149.154 282.012, 1154.541 290.450, 1158.514 296.500 C 1165.915 307.774, 1167.070 309.744, 1171.496 318.651 C 1172.904 321.483, 1174.718 324.351, 1175.528 325.023 C 1176.338 325.695, 1177 326.586, 1177 327.002 C 1177 327.418, 1180.202 333.295, 1184.116 340.060 C 1191.607 353.010, 1197.289 364.571, 1203.500 379.500 C 1205.559 384.450, 1208.249 390.750, 1209.476 393.500 C 1210.703 396.250, 1212.276 400.300, 1212.972 402.500 C 1213.667 404.700, 1214.846 407.850, 1215.591 409.500 C 1217.618 413.991, 1222.891 428.682, 1224.939 435.547 C 1225.931 438.872, 1228.333 446.297, 1230.276 452.047 C 1234.612 464.875, 1242.584 497.555, 1244.531 510.486 C 1244.698 511.594, 1245.985 519.942, 1247.392 529.038 C 1252.840 564.270, 1254.865 594.541, 1255.114 644.500 C 1255.280 677.926, 1255.825 687.677, 1257.500 687.237 C 1258.050 687.093, 1258.547 686.193, 1258.604 685.237 C 1258.661 684.282, 1259.157 682.375, 1259.706 681 C 1261.526 676.444, 1264.075 660.672, 1264.958 648.500 C 1266.055 633.385, 1265.562 591.218, 1264.058 571.500 C 1262.144 546.412, 1256.795 512.815, 1250.364 485.500 C 1244.449 460.378, 1230.738 416.041, 1222.685 396 C 1205.327 352.802, 1194.502 331.329, 1172.500 296.450 C 1167.338 288.266, 1142.988 254.121, 1135.329 244.324 C 1130.876 238.629, 1115.360 220.153, 1114.063 219 C 1113.753 218.725, 1111.263 215.800, 1108.529 212.500 C 1101.063 203.489, 1071.814 174.085, 1061.540 165.261 C 1052.156 157.201, 1050.151 155.462, 1041.042 147.475 C 1032.897 140.334, 1006.962 121.275, 993.419 112.479 C 986.863 108.221, 978.505 102.771, 974.845 100.368 C 971.184 97.966, 967.945 96, 967.647 96 C 967.349 96, 962.694 93.217, 957.302 89.814 C 937.589 77.375, 896.398 57.906, 868.691 47.932 C 862.536 45.716, 856.375 43.431, 855 42.854 C 851.602 41.428, 837.056 36.664, 828.500 34.175 C 813.224 29.731, 809.174 28.735, 801 27.409 C 796.325 26.651, 790.455 25.604, 787.956 25.084 C 785.457 24.563, 780.318 23.869, 776.535 23.540 L 769.657 22.943 772.236 24.971 M 525.500 145.091 C 511.750 145.515, 498.700 146.298, 496.500 146.831 C 491.856 147.955, 492.298 147.980, 527.773 148.572 C 538.923 148.758, 548.500 149.191, 549.056 149.535 C 549.612 149.878, 554.712 156.311, 560.390 163.830 C 566.068 171.348, 574.201 181.325, 578.463 186 C 582.725 190.675, 589.111 198.100, 592.653 202.500 C 601.793 213.851, 639.972 253.135, 641.154 252.405 C 641.696 252.070, 642.515 250.829, 642.973 249.648 C 643.952 247.123, 642.760 244.950, 636.037 237 C 628.144 227.667, 590.045 183.532, 579.672 171.705 C 574.267 165.542, 566.681 156.787, 562.815 152.250 C 557.073 145.512, 555.300 144.029, 553.142 144.160 C 551.689 144.248, 539.250 144.667, 525.500 145.091 M 800 150.500 C 798.625 151.286, 796.712 151.945, 795.750 151.965 C 794.788 151.984, 794 152.525, 794 153.167 C 794 153.808, 793.734 154.067, 793.408 153.742 C 792.210 152.544, 783.372 157.241, 779.172 161.309 C 773.868 166.444, 767.417 177.226, 764.322 186.124 C 762.493 191.383, 761.803 196.402, 761.021 210.136 C 759.964 228.711, 759.095 516.060, 760.098 515.440 C 760.427 515.236, 763.254 511.035, 766.380 506.103 L 772.065 497.136 771.964 460.270 C 771.863 423.093, 771.465 414.595, 769.871 415.580 C 769.392 415.876, 769 415.679, 769 415.142 C 769 414.606, 769.563 413.904, 770.250 413.583 C 771.120 413.177, 771.163 412.837, 770.390 412.463 C 769.620 412.091, 769.393 406.668, 769.648 394.713 C 770.027 376.896, 770.205 374.462, 771.196 373.471 C 771.519 373.148, 771.847 335.673, 771.926 290.192 C 772.060 213.321, 772.579 195.224, 774.868 187.500 C 775.358 185.850, 777.261 181.350, 779.097 177.500 C 783.258 168.779, 794.977 156.701, 802.801 153.070 C 806.337 151.430, 807.625 150.379, 806.768 149.836 C 804.931 148.670, 802.844 148.874, 800 150.500 M 532.557 182.777 C 532.250 183.083, 532 227.133, 532 280.667 L 532 378 535.441 378 C 538.801 378, 540.227 376.933, 540.655 374.100 C 540.772 373.330, 541.234 372.430, 541.684 372.100 C 542.133 371.770, 542.613 370.935, 542.752 370.245 C 543.696 365.539, 543.906 326.954, 543.344 261.392 L 542.693 185.283 537.903 183.752 C 535.269 182.909, 532.863 182.471, 532.557 182.777 M 726.054 187.865 C 724.099 189.191, 721.825 191.043, 721 191.982 C 720.175 192.920, 715.597 197.920, 710.827 203.094 C 706.056 208.267, 696.681 219.025, 689.992 227 C 678.573 240.616, 672.713 247.872, 652.113 273.902 C 647.500 279.731, 643.113 284.860, 642.363 285.300 C 641.613 285.740, 641 286.582, 641 287.172 C 641 287.915, 641.412 287.903, 642.342 287.131 C 643.080 286.519, 643.982 286.316, 644.347 286.680 C 644.712 287.045, 647.370 284.881, 650.255 281.871 C 670.433 260.817, 677.222 253.578, 682.500 247.489 C 685.800 243.681, 690.525 238.260, 693 235.442 C 700.099 227.360, 733.466 186.913, 733.814 185.967 C 734.429 184.300, 729.552 185.493, 726.054 187.865 M 1052.627 190.193 C 1059.701 196.944, 1060.323 197.563, 1073.398 210.891 C 1079.391 217.001, 1084.679 222, 1085.148 222 C 1085.616 222, 1086 222.675, 1086 223.500 C 1086 224.325, 1086.675 225, 1087.500 225 C 1088.325 225, 1089 225.649, 1089 226.443 C 1089 227.237, 1089.817 228.475, 1090.816 229.193 C 1091.815 229.912, 1092.950 231.352, 1093.339 232.393 C 1093.729 233.434, 1094.341 233.993, 1094.699 233.634 C 1095.058 233.275, 1096.437 233.998, 1097.764 235.241 L 1100.176 237.500 1098.928 234.750 C 1098.241 233.238, 1097.076 232, 1096.339 232 C 1095.603 232, 1095 231.100, 1095 230 C 1095 228.900, 1094.334 228, 1093.519 228 C 1092.705 228, 1091.749 226.848, 1091.396 225.440 C 1090.988 223.817, 1090.250 223.074, 1089.377 223.409 C 1088.495 223.747, 1088 223.229, 1088 221.969 C 1088 220.616, 1087.322 220, 1085.833 220 C 1084.642 220, 1083.951 219.716, 1084.298 219.369 C 1085.287 218.380, 1083.095 215, 1081.465 215 C 1080.659 215, 1080 214.325, 1080 213.500 C 1080 212.675, 1079.550 212, 1079 212 C 1078.450 212, 1078 211.325, 1078 210.500 C 1078 209.675, 1077.250 209, 1076.333 209 C 1075.417 209, 1074.929 208.737, 1075.250 208.417 C 1075.978 207.688, 1072.380 204, 1070.941 204 C 1070.359 204, 1070.179 203.520, 1070.542 202.933 C 1070.904 202.346, 1070.261 201.620, 1069.112 201.319 C 1067.963 201.018, 1067.230 200.437, 1067.484 200.026 C 1067.738 199.615, 1066.158 198.473, 1063.973 197.488 C 1061.788 196.502, 1060 195.090, 1060 194.348 C 1060 193.607, 1059.073 193, 1057.941 193 C 1056.809 193, 1056.162 192.546, 1056.505 191.992 C 1056.848 191.437, 1056.087 190.565, 1054.814 190.055 C 1053.541 189.544, 1052.870 189.098, 1053.321 189.063 C 1054.670 188.959, 1051.577 186.318, 1049.236 185.575 C 1047.850 185.135, 1049.075 186.803, 1052.627 190.193 M 1125 269 C 1125 269.550, 1125.702 270, 1126.559 270 C 1127.416 270, 1127.906 270.342, 1127.648 270.761 C 1127.389 271.180, 1127.757 272.315, 1128.466 273.284 C 1129.682 274.948, 1129.784 274.936, 1130.272 273.069 C 1130.623 271.727, 1130.031 270.595, 1128.430 269.546 C 1125.673 267.739, 1125 267.632, 1125 269 M 1130.015 276.628 C 1130.007 277.248, 1130.675 278.315, 1131.500 279 C 1132.325 279.685, 1133 280.765, 1133 281.400 C 1133 282.036, 1133.787 283.266, 1134.750 284.135 C 1137.828 286.913, 1139.056 288.731, 1145.714 300.369 C 1147.246 303.047, 1149.963 306.607, 1151.750 308.280 C 1153.537 309.953, 1155 312.180, 1155 313.231 C 1155 314.281, 1156.350 317.102, 1158 319.500 C 1159.650 321.898, 1161 324.342, 1161 324.930 C 1161 325.519, 1161.420 326, 1161.933 326 C 1162.446 326, 1163.183 327.012, 1163.572 328.250 C 1163.960 329.488, 1165.883 332.975, 1167.844 336 C 1169.805 339.025, 1171.329 341.802, 1171.231 342.171 C 1171.133 342.539, 1172.158 343.889, 1173.509 345.171 C 1174.860 346.452, 1175.973 348.232, 1175.983 349.128 C 1175.992 350.023, 1176.759 351.373, 1177.687 352.128 C 1179.172 353.336, 1179.292 353.281, 1178.687 351.668 C 1178.309 350.661, 1178 348.471, 1178 346.802 C 1178 344.259, 1177.676 343.852, 1176 344.290 C 1173.780 344.870, 1173.403 343.997, 1175.129 342.271 C 1175.967 341.433, 1175.702 340.437, 1174.099 338.399 C 1172.912 336.890, 1171.124 333.821, 1170.125 331.578 C 1169.126 329.335, 1166.938 326.043, 1165.264 324.261 C 1163.589 322.480, 1162.282 320.230, 1162.359 319.261 C 1162.454 318.069, 1161.906 317.601, 1160.662 317.814 C 1159.298 318.047, 1158.961 317.661, 1159.355 316.314 C 1159.647 315.316, 1159.024 312.925, 1157.970 311 C 1156.917 309.075, 1155.765 306.712, 1155.411 305.750 C 1155.057 304.788, 1154.369 304, 1153.883 304 C 1153.398 304, 1153 303.148, 1153 302.107 C 1153 301.066, 1152.325 299.955, 1151.500 299.638 C 1150.675 299.322, 1150 298.594, 1150 298.021 C 1150 296.604, 1143.327 287.208, 1140.383 284.479 C 1139.072 283.264, 1138 281.605, 1138 280.790 C 1138 278.460, 1134.695 275.952, 1133.004 276.998 C 1132.074 277.573, 1131.280 277.465, 1130.792 276.697 C 1130.267 275.871, 1130.026 275.850, 1130.015 276.628 M 382.013 287.393 C 379.478 288.069, 378.025 288.897, 378.673 289.298 C 379.304 289.688, 380.648 289.744, 381.660 289.423 C 384.386 288.559, 378.907 293.083, 368.769 300.068 C 363.967 303.377, 358.869 307.616, 357.441 309.488 L 354.844 312.893 358.994 322.696 C 366.221 339.773, 384.959 372.394, 394.428 384.383 C 396.082 386.478, 399.084 386.245, 405.613 383.517 C 408.797 382.187, 409.112 381.786, 407.805 380.732 C 405.843 379.148, 402.191 373.605, 392.503 357.500 C 383.271 342.153, 378.782 333.335, 375.548 324.192 C 371.355 312.337, 371.346 311.467, 375.351 305.654 C 379.445 299.712, 386.115 293.856, 393.202 289.981 L 398.143 287.279 394.946 286.639 C 390.635 285.777, 387.356 285.968, 382.013 287.393 M 910.588 288.858 C 910.130 289.599, 910.772 290, 912.420 290 C 914.985 290, 926.679 293.349, 930.659 295.223 C 931.868 295.793, 934.507 295.928, 936.659 295.530 C 938.771 295.140, 942.810 294.688, 945.633 294.526 C 948.456 294.365, 952.325 293.718, 954.230 293.089 C 956.136 292.460, 958.484 292.248, 959.448 292.619 C 960.457 293.006, 961.536 292.751, 961.989 292.018 C 962.451 291.270, 963.312 291.075, 964.074 291.546 C 964.787 291.987, 967.763 292.237, 970.686 292.101 C 973.608 291.966, 976 292.248, 976 292.727 C 976 294.148, 994.313 295.020, 995.669 293.664 C 996.061 293.273, 995.637 292.208, 994.727 291.298 C 993.379 289.950, 990.524 289.593, 979.286 289.368 C 971.704 289.216, 953.304 288.782, 938.397 288.403 C 918.502 287.899, 911.106 288.019, 910.588 288.858 M 951.073 303.797 C 937.342 314.629, 921.972 335.331, 909.178 360.226 C 906.055 366.303, 902.514 373.126, 901.309 375.388 C 898.958 379.800, 898.397 383, 899.975 383 C 900.525 383, 900.688 384.308, 900.350 386 C 899.968 387.911, 900.158 389, 900.875 389 C 901.494 389, 902 388.100, 902 387 C 902 385.900, 902.420 385, 902.933 385 C 903.446 385, 904.170 384.041, 904.542 382.868 C 905.006 381.405, 905.454 381.116, 905.968 381.948 C 906.773 383.251, 908.846 380.038, 915.609 367 C 917.749 362.875, 919.734 359.275, 920.020 359 C 920.305 358.725, 922.728 354.675, 925.404 350 C 936.975 329.783, 950.534 314.280, 963.029 306.983 C 966.863 304.744, 970 302.793, 970 302.649 C 970 302.504, 967.053 302.446, 963.452 302.519 C 959.850 302.593, 956.674 302.281, 956.393 301.826 C 955.611 300.562, 954.788 300.867, 951.073 303.797 M 533.286 462.420 L 533.894 514.839 537.499 521.999 C 540.506 527.968, 541.345 528.958, 542.552 527.957 C 543.771 526.945, 544 520.484, 544 487.037 C 544 465.192, 543.701 439.749, 543.337 430.496 C 542.598 411.774, 541.949 410, 535.839 410 L 532.679 410 533.286 462.420 M 644.508 497.266 C 643.691 593.145, 644.637 644.780, 647.258 647.401 C 648.893 649.036, 648.703 649.371, 656.037 631.875 L 658.814 625.250 658.381 530.875 C 658.144 478.969, 657.695 431.066, 657.384 424.425 L 656.819 412.349 651.720 412.116 C 648.916 411.989, 646.311 411.692, 645.932 411.458 C 645.553 411.224, 644.912 449.837, 644.508 497.266 M 887.446 414.087 C 887.077 414.685, 885.852 414.933, 884.724 414.638 C 883.270 414.258, 881.841 415.032, 879.809 417.301 C 876.172 421.363, 862.288 443.096, 852.587 459.914 C 843.372 475.889, 840.641 480.264, 825.250 503.696 C 818.513 513.954, 813 522.497, 813 522.681 C 813 522.865, 810.153 527.399, 806.674 532.758 C 803.194 538.116, 799.048 544.750, 797.461 547.500 C 795.873 550.250, 794.220 552.650, 793.787 552.833 C 793.354 553.017, 793 553.594, 793 554.115 C 793 554.637, 788.400 562.137, 782.777 570.782 C 777.154 579.427, 769.993 591.450, 766.864 597.500 L 761.174 608.500 760.595 631 C 760.277 643.375, 759.755 712.225, 759.434 784 L 758.851 914.500 761.014 921.500 C 767.994 944.091, 785.145 960.023, 814.822 971.485 C 823.587 974.870, 829.620 975.745, 834.739 974.373 C 837.156 973.725, 836.865 972, 834.338 972 C 831.798 972, 816.722 964.564, 809.881 959.936 C 792.868 948.428, 781.643 932.839, 776.371 913.399 C 774.579 906.790, 774.507 900.208, 774.662 756.781 C 774.783 645.119, 775.123 606.157, 776 603.500 C 777.569 598.747, 782.353 590.507, 796.500 568.191 C 801.450 560.383, 806.625 552.189, 808 549.983 C 809.375 547.776, 813.152 541.815, 816.393 536.735 C 837.996 502.883, 866.335 456.221, 879.505 432.819 C 883.430 425.844, 887.107 419.544, 887.676 418.819 C 889.111 416.991, 889.995 413, 888.965 413 C 888.499 413, 887.816 413.489, 887.446 414.087 M 976 415.111 C 974.734 416.020, 974.773 416.101, 976.250 415.626 C 977.212 415.316, 978 415.467, 978 415.960 C 978 417.817, 981.253 420.055, 983.099 419.469 C 984.470 419.033, 984.836 419.264, 984.434 420.311 C 984.069 421.262, 984.753 421.972, 986.440 422.396 C 987.848 422.749, 989 423.480, 989 424.019 C 989 424.559, 989.480 425, 990.067 425 C 990.653 425, 992.608 426.125, 994.411 427.500 C 996.214 428.875, 998.205 430, 998.836 430 C 999.467 430, 1000.545 430.900, 1001.232 432 C 1001.919 433.100, 1002.823 434, 1003.241 434 C 1003.658 434, 1004.788 434.693, 1005.750 435.541 C 1008.107 437.616, 1023.606 448.789, 1026.988 450.851 C 1028.476 451.758, 1032.744 455.313, 1036.473 458.750 C 1040.202 462.188, 1043.646 465, 1044.126 465 C 1044.607 465, 1045 465.675, 1045 466.500 C 1045 467.325, 1045.578 468, 1046.284 468 C 1048.016 468, 1058.234 478.433, 1057.359 479.308 C 1056.978 479.688, 1057.171 480, 1057.788 480 C 1059.147 480, 1062.358 483.143, 1067.586 489.590 C 1071.313 494.187, 1072.811 495.945, 1076.883 500.500 C 1079.894 503.869, 1093 521.769, 1093 522.513 C 1093 522.897, 1094.281 524.852, 1095.847 526.856 C 1099.526 531.565, 1109.091 548.275, 1113.960 558.500 C 1122.768 576.998, 1131.740 606.581, 1134.444 626.045 C 1136.046 637.580, 1136.601 658.177, 1135.562 667.500 C 1135.194 670.800, 1134.738 675.300, 1134.550 677.500 C 1133.700 687.408, 1129.955 704.718, 1127.301 711 C 1126.488 712.925, 1125.003 716.975, 1124 720 C 1120.698 729.961, 1110.826 751.465, 1106.555 758 C 1096.566 773.281, 1093 779.341, 1093 781.034 C 1093 783.976, 1094.113 783.475, 1099.192 778.250 C 1119.126 757.742, 1133.845 729.614, 1141.446 697.500 C 1145.685 679.593, 1146.412 672.458, 1146.389 649 C 1146.371 630.224, 1146.008 624.577, 1144.199 614.884 C 1137.126 576.986, 1124.876 550.307, 1096.462 510.920 C 1078.877 486.543, 1054.934 462.895, 1030.128 445.403 C 1009.004 430.508, 1001.065 425.607, 986.500 418.473 C 982.100 416.318, 978.275 414.437, 978 414.294 C 977.725 414.150, 976.825 414.518, 976 415.111 M 416.500 416.354 C 412.381 417.348, 411.559 417.908, 411.837 419.530 C 412.022 420.614, 412.953 422.400, 413.907 423.500 C 415.646 425.507, 423.001 437.192, 424.293 440 C 424.673 440.825, 428.561 447.125, 432.935 454 C 437.309 460.875, 443.275 470.290, 446.194 474.922 C 457.348 492.625, 486.417 537.404, 516.515 583.246 C 522.023 591.636, 530.654 604.800, 535.696 612.500 C 540.737 620.200, 548.381 631.784, 552.681 638.242 C 556.982 644.700, 562.729 653.475, 565.454 657.742 C 568.179 662.009, 573.731 670.155, 577.792 675.844 C 581.853 681.533, 589.199 692.108, 594.116 699.344 C 599.034 706.580, 606.918 718.125, 611.637 725 C 616.355 731.875, 623.844 743.194, 628.279 750.153 C 637.803 765.100, 639.187 765.612, 638.989 754.120 C 638.807 743.483, 638.872 742.803, 640 743.500 C 640.550 743.840, 641 743.641, 641 743.059 C 641 742.477, 640.625 742, 640.167 742 C 639.708 742, 639.330 741.438, 639.325 740.750 C 639.314 738.957, 622.357 712.592, 599.319 678.546 C 580.406 650.595, 520.393 560.574, 513.958 550.500 C 508.099 541.330, 478.675 497.320, 451.544 457.148 C 445.470 448.154, 439.618 439.379, 438.540 437.648 C 437.462 435.917, 436.225 434.350, 435.790 434.167 C 435.356 433.983, 435 433.405, 435 432.881 C 435 432.358, 434.212 430.741, 433.250 429.288 C 432.288 427.835, 430.600 424.138, 429.500 421.073 C 427.709 416.083, 427.186 415.482, 424.500 415.323 C 422.850 415.226, 419.250 415.690, 416.500 416.354 M 389.507 538.011 C 389.843 538.555, 389.471 539, 388.680 539 C 387.889 539, 392.375 544.288, 398.650 550.750 C 421.190 573.966, 430.702 590.563, 437.268 618.130 C 439.294 626.635, 439.490 629.855, 439.391 653 C 439.278 679.521, 439.411 678.282, 433.648 706.500 C 433.536 707.050, 433.172 707.950, 432.839 708.500 C 432.507 709.050, 431.923 711.075, 431.541 713 C 430.745 717.016, 428.252 724.682, 426.911 727.236 C 426.410 728.191, 426 730.131, 426 731.545 C 426 733.006, 425.568 733.851, 425 733.500 C 424.450 733.160, 424 733.584, 424 734.441 C 424 735.298, 424.477 736, 425.059 736 C 425.641 736, 425.840 736.450, 425.500 737 C 425.160 737.550, 425.246 737.994, 425.691 737.988 C 426.863 737.970, 434.730 724.039, 435.566 720.500 C 435.957 718.850, 436.653 717.017, 437.113 716.427 C 437.574 715.837, 438.677 712.462, 439.566 708.927 C 440.454 705.392, 441.816 701.503, 442.591 700.285 C 443.366 699.067, 444 696.964, 444 695.611 C 444 692.208, 445.988 682.991, 447.337 680.142 C 447.951 678.845, 448.464 675.809, 448.477 673.395 C 448.490 670.981, 448.868 669.005, 449.317 669.003 C 449.767 669.001, 449.849 668.100, 449.500 667 C 449.108 665.764, 449.320 665, 450.057 665 C 452.110 665, 450.616 631.520, 448.026 619.500 C 442.260 592.740, 432.019 572.109, 417.006 557.006 C 406.710 546.649, 394.299 538.079, 391.816 539.614 C 391.170 540.013, 390.967 539.862, 391.340 539.259 C 391.697 538.682, 391.293 537.943, 390.442 537.616 C 389.557 537.276, 389.157 537.445, 389.507 538.011 M 959 540.334 C 959 541.067, 961.534 543.413, 964.631 545.546 C 970.390 549.512, 982.347 562.465, 985.015 567.626 C 985.832 569.207, 988.322 573.650, 990.548 577.500 C 1001.691 596.768, 1004.473 608.018, 1005.507 638 C 1006.286 660.550, 1007.632 672.369, 1009.930 676.812 C 1012.207 681.216, 1021.189 691.423, 1024.370 693.222 C 1040.578 702.389, 1052.726 706.674, 1055.275 704.125 C 1056.108 703.292, 1055.959 703, 1054.700 703 C 1053.765 703, 1053 702.633, 1053 702.184 C 1053 701.735, 1051.212 700.364, 1049.027 699.136 C 1042.963 695.727, 1034.076 687.161, 1029.874 680.672 C 1024.108 671.769, 1021.329 661.659, 1018.502 639.306 C 1013.443 599.297, 1010.939 591.250, 997.121 570.609 C 989.056 558.561, 977.636 547.609, 967.902 542.587 C 960.290 538.660, 959 538.334, 959 540.334 M 177.362 575.500 C 177.678 576.325, 177.389 577.009, 176.719 577.020 C 174.886 577.051, 166.237 595.904, 161.817 609.500 C 156.411 626.131, 154.990 634.767, 154.328 655 C 153.602 677.218, 155.794 690.052, 164.381 713.857 C 173.420 738.916, 195.671 768.057, 216.371 781.943 C 232.770 792.945, 257.903 802, 272.041 802 C 279.036 802, 276.176 799.764, 264.169 795.848 C 231.182 785.088, 202.622 761.628, 183.614 729.678 C 171.966 710.098, 165.723 690.317, 163.990 667.500 C 162.777 651.532, 163.333 639.688, 166.103 622.500 C 168.797 605.775, 170.047 601.069, 175.798 586 C 178.001 580.225, 179.597 575.163, 179.343 574.750 C 178.482 573.349, 176.783 573.992, 177.362 575.500 M 880 577.395 C 875.630 579.900, 873.866 581.840, 868.540 590 C 850.733 617.284, 849.335 672.455, 865.474 711 C 872.458 727.681, 880.891 742.446, 888.889 752 C 909.434 776.541, 937.046 794.279, 960.199 797.812 C 963.333 798.290, 966.483 798.310, 967.199 797.856 C 968.217 797.210, 968.174 797.027, 967 797.015 C 964.225 796.985, 939.566 784.293, 932.500 779.257 C 915.296 766.996, 898.155 749.027, 888.376 733 C 881.309 721.417, 875.461 706.799, 870.174 687.500 C 867.489 677.701, 865.773 658.481, 866.378 645 C 867.353 623.303, 870.374 608.687, 876.944 593.884 C 879.128 588.965, 880.666 584.166, 880.363 583.220 C 879.931 581.873, 880.025 581.800, 880.798 582.885 C 881.603 584.015, 881.989 583.890, 882.889 582.208 C 883.496 581.073, 883.727 579.325, 883.402 578.322 C 882.959 576.955, 883.054 576.839, 883.781 577.857 C 884.314 578.603, 884.984 578.828, 885.270 578.357 C 885.556 577.886, 885.275 577.025, 884.645 576.444 C 883.831 575.693, 882.488 575.968, 880 577.395 M 296.673 607.070 C 291.886 616.877, 289.655 633.014, 290.185 654 C 290.545 668.247, 290.610 668.609, 293.921 674.761 C 300.809 687.561, 324.517 705.922, 334.250 705.994 C 336.060 706.008, 334.757 703.288, 332.241 701.801 C 327.618 699.071, 318.661 689.653, 314.016 682.639 C 311.598 678.988, 309.255 676, 308.810 676 C 308.364 676, 308.071 675.663, 308.159 675.250 C 308.246 674.837, 308.037 673.825, 307.694 673 C 306.355 669.775, 303.809 662.387, 303.301 660.250 C 303.007 659.013, 302.420 658, 301.997 658 C 299.014 658, 297.254 621.840, 299.722 611.261 C 300.429 608.232, 300.602 605.099, 300.133 603.832 C 299.407 601.869, 299.047 602.206, 296.673 607.070 M 38.867 625.500 C 37.883 634.830, 38.698 685.681, 39.956 693.500 C 40.576 697.350, 41.697 705, 42.446 710.500 C 44.056 722.310, 46.591 736.134, 48.681 744.500 C 49.505 747.800, 50.538 752.075, 50.977 754 C 52.500 760.681, 55.091 770.538, 57.155 777.500 C 60.884 790.077, 63.168 797.439, 64.447 801 C 65.138 802.925, 66.490 806.975, 67.451 810 C 68.413 813.025, 70.242 818.200, 71.516 821.500 C 72.790 824.800, 75.491 832, 77.518 837.500 C 81.232 847.581, 84.519 855.720, 88.217 864 C 91.007 870.247, 106.280 900.528, 109.400 906 C 110.812 908.475, 112.377 911.400, 112.878 912.500 C 113.380 913.600, 116.670 919.225, 120.191 925 C 123.712 930.775, 127.921 937.702, 129.546 940.393 C 133.871 947.556, 138.577 954.529, 144.804 963 C 153.155 974.361, 157.274 980.016, 161.060 985.319 C 165.181 991.092, 177.719 1006.450, 187.330 1017.500 C 201.969 1034.330, 238.426 1069.492, 254.552 1082.336 C 277.978 1100.994, 308.958 1122.462, 334.488 1137.731 C 348.470 1146.092, 378.242 1161.284, 391.500 1166.822 C 395.350 1168.430, 403.225 1171.761, 409 1174.225 C 427.087 1181.941, 470.516 1195.887, 492.250 1200.958 C 513.131 1205.831, 517.943 1206.904, 525.500 1208.376 C 541.888 1211.567, 556.778 1213.985, 566 1214.953 C 571.225 1215.501, 578.425 1216.390, 582 1216.929 C 585.575 1217.467, 603.125 1218.382, 621 1218.961 C 647.760 1219.827, 658.003 1219.744, 679 1218.487 C 693.025 1217.647, 706.660 1216.519, 709.299 1215.980 C 711.939 1215.441, 715.453 1215, 717.108 1215 C 718.836 1215, 719.858 1214.579, 719.507 1214.012 C 719.124 1213.391, 720.680 1213.196, 723.698 1213.487 L 728.500 1213.950 724 1212.934 C 720.628 1212.173, 715.616 1212.362, 704 1213.686 C 684.495 1215.911, 614.363 1216.244, 596 1214.200 C 589.675 1213.495, 578.200 1212.228, 570.500 1211.383 C 524.640 1206.350, 464.826 1191.275, 419.539 1173.335 C 399.017 1165.206, 363.443 1148.296, 342.500 1136.715 C 330.499 1130.078, 305.372 1113.856, 293.500 1105.080 C 290.750 1103.047, 284 1098.063, 278.500 1094.004 C 255.336 1076.912, 243.364 1066.442, 217.937 1041.038 C 191.717 1014.842, 180.296 1002.027, 163.985 980.500 C 153.863 967.142, 137.199 943.799, 134.358 939 C 133.218 937.075, 129.801 931.450, 126.764 926.500 C 105.069 891.143, 87.715 855.046, 74.432 817.647 C 50.958 751.554, 42.543 705.077, 39.731 626 L 39.500 619.500 38.867 625.500 M 530.474 645.285 C 530.173 646.503, 530.072 708.250, 530.249 782.500 C 530.610 933.998, 529.977 921.715, 538.168 936.188 C 544.322 947.063, 561.021 963.227, 572.002 968.940 C 580.505 973.364, 588.356 975.967, 593.258 975.988 C 595.644 975.998, 595.866 975.764, 594.903 974.250 C 594.290 973.288, 590.200 969.800, 585.814 966.500 C 577.484 960.232, 562.631 945.382, 558.444 939.136 C 557.104 937.136, 554.907 933.925, 553.561 932 C 550.617 927.786, 546.324 916.925, 545.566 911.769 C 545.264 909.716, 544.543 905.923, 543.964 903.340 C 542.851 898.372, 542.525 685.376, 543.604 667.752 L 544.170 658.500 538.835 651.272 C 532.872 643.192, 531.273 642.048, 530.474 645.285 M 734.814 650.482 C 733.336 651.754, 732.399 653.066, 732.730 653.397 C 733.062 653.729, 732.562 654, 731.619 654 C 729.430 654, 726.276 657.494, 719.434 667.500 C 716.426 671.900, 710.530 680.450, 706.332 686.500 C 702.135 692.550, 694.870 703.800, 690.189 711.500 C 685.509 719.200, 673.634 737.650, 663.801 752.500 L 645.922 779.500 646.354 942.500 C 646.592 1032.150, 646.834 1105.677, 646.893 1105.894 C 647.133 1106.778, 661.465 1104.865, 662.082 1103.867 C 662.454 1103.266, 663.692 1103.085, 664.869 1103.458 C 666.524 1103.984, 666.856 1103.789, 666.387 1102.565 C 666.056 1101.704, 666.209 1101, 666.726 1101 C 667.244 1101, 667.667 1100.415, 667.667 1099.700 C 667.667 1098.969, 666.335 1098.299, 664.623 1098.168 C 662.948 1098.040, 661.234 1097.388, 660.814 1096.718 C 660.393 1096.048, 660.041 1041.725, 660.031 976 C 660.021 910.275, 659.734 839.400, 659.393 818.500 L 658.773 780.500 662.029 774.500 C 665.242 768.578, 672.454 756.913, 688.614 731.500 C 713.198 692.840, 723.437 676.093, 730.403 663.147 C 734.651 655.252, 737.985 648.653, 737.813 648.482 C 737.641 648.310, 736.291 649.211, 734.814 650.482 M 322.250 901.640 C 320.271 902.474, 320.726 904.216, 325.109 912.588 C 331.024 923.883, 350.284 950.801, 360.107 961.500 C 366.258 968.200, 369.274 972.060, 368.759 972.574 C 368.490 972.844, 365.109 969.337, 361.246 964.782 C 357.383 960.227, 353.349 955.588, 352.281 954.474 C 351.214 953.360, 349.482 951.110, 348.434 949.474 C 347.386 947.838, 344.047 943.273, 341.014 939.329 C 337.981 935.385, 333.025 928.712, 330 924.498 C 322.532 914.097, 321.522 913.342, 322.235 918.690 C 323.790 930.355, 352.024 967.174, 381.163 995.535 C 406.396 1020.096, 418.057 1029.576, 443.500 1046.216 C 478.934 1069.389, 515.183 1085.891, 556.500 1097.657 C 577.151 1103.538, 601.934 1108.556, 615.678 1109.639 L 623.856 1110.284 624.521 1106.742 C 625.690 1100.509, 625.062 1099.604, 618.989 1098.777 C 595.070 1095.520, 566.538 1088.840, 544.929 1081.439 C 499.738 1065.959, 449.676 1037.112, 413 1005.416 C 377.928 975.106, 338.352 924.525, 335.215 906 L 334.453 901.500 328.976 901.307 C 325.964 901.200, 322.938 901.350, 322.250 901.640 M 994.045 906.923 L 987.591 907.500 980.545 916.708 C 976.670 921.772, 969 932.310, 963.500 940.126 C 942.252 970.320, 925.218 990.618, 900.750 1014.902 C 890.552 1025.023, 881.477 1033.713, 880.583 1034.214 C 879.689 1034.714, 879.219 1035.545, 879.538 1036.061 C 879.857 1036.578, 879.524 1037, 878.799 1037 C 877.240 1037, 872 1041.656, 872 1043.040 C 872 1043.568, 871.073 1044, 869.941 1044 C 868.809 1044, 868.136 1044.412, 868.447 1044.915 C 868.758 1045.418, 868.447 1046.040, 867.756 1046.298 C 866.919 1046.611, 867.117 1047.021, 868.351 1047.529 C 869.543 1048.020, 870.517 1047.794, 871.086 1046.896 C 871.572 1046.128, 871.990 1045.950, 872.015 1046.500 C 872.040 1047.050, 872.522 1046.708, 873.085 1045.740 C 873.649 1044.773, 875.678 1043.326, 877.595 1042.525 C 884.999 1039.431, 905.569 1021.549, 930.545 996.493 C 951.727 975.244, 962.368 963.343, 981.216 939.823 C 986.009 933.841, 993.803 924.240, 998.534 918.487 C 1003.265 912.735, 1006.854 907.572, 1006.509 907.014 C 1005.859 905.963, 1004.852 905.956, 994.045 906.923 M 370 973.804 C 370 974.246, 371.575 976.134, 373.500 978 C 377.796 982.164, 378.157 980.744, 373.945 976.250 C 370.815 972.911, 370 972.405, 370 973.804 M 407 1009.399 C 407 1011.354, 431.611 1032, 433.941 1032 C 434.524 1032, 435 1032.386, 435 1032.857 C 435 1034.173, 465.357 1053.837, 479.500 1061.683 C 492.209 1068.733, 511.016 1077.376, 523 1081.674 C 537.863 1087.004, 558.593 1093.047, 561.458 1092.884 C 563.466 1092.770, 563.467 1092.760, 561.500 1092.272 C 556.703 1091.082, 531.760 1082.620, 524 1079.551 C 506.979 1072.818, 463.522 1051.812, 464.529 1050.805 C 464.729 1050.604, 462.780 1049.341, 460.197 1047.998 C 451.896 1043.683, 417.101 1019.086, 416.191 1016.890 C 415.771 1015.877, 407 1008.728, 407 1009.399 M 587 1097.808 C 587 1099.037, 588.699 1099.587, 595.250 1100.477 C 600.572 1101.200, 601.922 1099.597, 596.750 1098.695 C 594.962 1098.384, 592.038 1097.819, 590.250 1097.439 C 588.197 1097.004, 587 1097.140, 587 1097.808" stroke="none" fill="#faf0c6" fill-rule="evenodd"/><path d="M 612 6.062 C 555.529 9.647, 486.555 23.531, 439 40.884 C 369.828 66.126, 331 86.140, 273 126.449 C 238.457 150.456, 188.272 196.818, 160.911 230 C 126.940 271.197, 101.753 308.979, 83.345 346.353 C 79.783 353.584, 76.364 360.400, 75.746 361.500 C 73.497 365.502, 65.969 381.603, 64.058 386.500 C 63.629 387.600, 62.540 390.203, 61.639 392.284 C 60.737 394.365, 60 396.805, 60 397.705 C 60 398.606, 59.357 400.053, 58.572 400.921 C 57.787 401.790, 56.253 405.650, 55.164 409.500 C 54.075 413.350, 51.619 421, 49.706 426.500 C 47.793 432, 45.001 440.550, 43.501 445.500 C 42.002 450.450, 39.940 457.116, 38.921 460.313 C 37.901 463.511, 36.794 467.786, 36.461 469.813 C 36.128 471.841, 35.025 476.200, 34.010 479.500 C 32.189 485.419, 28.691 500.186, 27.496 507 C 27.158 508.925, 26.436 512.975, 25.892 516 C 19.875 549.436, 17 584.170, 17 623.412 C 17 640.460, 17.492 659.379, 18.094 665.454 C 20.174 686.448, 22.944 709.533, 24.460 718.500 C 25.297 723.450, 26.481 730.650, 27.092 734.500 C 27.703 738.350, 29.265 745.550, 30.564 750.500 C 31.863 755.450, 34.106 764.900, 35.549 771.500 C 36.991 778.100, 38.808 784.918, 39.586 786.651 C 40.364 788.384, 41 790.495, 41 791.342 C 41 792.189, 41.450 793.160, 42 793.500 C 42.550 793.840, 43 795.006, 43 796.091 C 43 798.200, 46.234 808.548, 48.441 813.500 C 49.176 815.150, 50.103 817.625, 50.500 819 C 50.897 820.375, 51.784 822.850, 52.471 824.500 C 53.158 826.150, 54.512 830.186, 55.480 833.468 C 56.448 836.751, 57.826 840.351, 58.542 841.468 C 59.258 842.586, 60.604 846.200, 61.532 849.500 C 62.461 852.800, 63.622 855.927, 64.111 856.450 C 64.600 856.972, 65 858.020, 65 858.778 C 65 859.536, 66.575 863.431, 68.500 867.433 C 70.425 871.435, 72 875.395, 72 876.232 C 72 877.070, 72.722 878.354, 73.604 879.087 C 74.487 879.819, 77.870 885.836, 81.123 892.459 C 87.270 904.975, 93.043 915.501, 96.533 920.556 C 97.651 922.175, 99.361 925.075, 100.333 927 C 103.505 933.281, 107.440 939.640, 118.218 955.907 C 119.163 957.333, 120.564 959.850, 121.330 961.500 C 122.097 963.150, 123.686 965.357, 124.862 966.405 C 126.038 967.453, 127 969.092, 127 970.048 C 127 971.004, 127.616 972.022, 128.368 972.311 C 129.993 972.934, 138 984.930, 138 986.740 C 138 987.432, 140.466 990.586, 143.479 993.749 C 146.492 996.912, 148.967 999.984, 148.979 1000.576 C 148.991 1001.167, 150.168 1002.742, 151.595 1004.076 C 153.022 1005.409, 156.170 1009.425, 158.591 1013 C 161.012 1016.575, 164.682 1021.324, 166.746 1023.552 C 168.811 1025.781, 176.428 1034.149, 183.674 1042.149 C 197.076 1056.943, 223.623 1082.160, 234.500 1090.426 C 237.800 1092.934, 243.500 1097.352, 247.166 1100.243 C 250.832 1103.134, 255.557 1106.833, 257.666 1108.462 C 259.775 1110.091, 262.344 1112.270, 263.375 1113.305 C 264.406 1114.339, 267.781 1116.782, 270.875 1118.734 C 273.969 1120.687, 278.300 1123.715, 280.500 1125.464 C 282.700 1127.212, 290.056 1131.986, 296.846 1136.072 C 303.637 1140.157, 309.937 1143.955, 310.846 1144.512 C 311.756 1145.069, 315.875 1147.483, 320 1149.876 C 324.125 1152.270, 329.201 1155.317, 331.279 1156.647 C 337.216 1160.448, 341.379 1162.700, 358.520 1171.384 C 374.129 1179.291, 380.715 1182.359, 392 1186.977 C 395.025 1188.215, 398.360 1189.676, 399.412 1190.224 C 400.463 1190.771, 403.613 1192.040, 406.412 1193.044 C 409.210 1194.048, 414.650 1196.035, 418.500 1197.461 C 442.271 1206.262, 472.724 1215.855, 490 1219.984 C 491.925 1220.444, 496.200 1221.515, 499.500 1222.364 C 519.715 1227.565, 565.550 1235.371, 582.500 1236.500 C 587.450 1236.830, 594.200 1237.270, 597.500 1237.478 C 600.800 1237.687, 616.775 1238.161, 633 1238.534 C 677.591 1239.556, 715.131 1236.594, 758.613 1228.623 C 809.610 1219.273, 860.733 1203.831, 901.651 1185.418 C 903.384 1184.638, 905.141 1184, 905.554 1184 C 905.967 1184, 915.215 1179.510, 926.104 1174.021 C 947.397 1163.290, 962.066 1154.909, 979.500 1143.516 C 985.550 1139.563, 994.550 1133.697, 999.500 1130.482 C 1027.037 1112.597, 1043.281 1099.761, 1071.110 1073.899 C 1082.538 1063.280, 1115.750 1028.272, 1123.616 1018.554 C 1142.027 995.810, 1159.732 970.945, 1178.412 941.599 C 1185.649 930.230, 1210 884.783, 1210 882.646 C 1210 882.380, 1211.986 877.963, 1214.414 872.831 C 1228.043 844.017, 1246.654 785.364, 1253.943 748.255 C 1263.330 700.464, 1265.290 684.900, 1267.070 644 C 1270.431 566.794, 1261.132 501.792, 1236.015 426.911 C 1212.346 356.346, 1183.371 303.040, 1135.410 241.826 C 1113.749 214.181, 1080.110 178.479, 1059.118 160.857 C 1055.608 157.911, 1049.758 152.912, 1046.118 149.748 C 1036.118 141.056, 1003.017 116.313, 989.806 107.655 C 972.406 96.251, 946.951 81.084, 934.500 74.702 C 923.122 68.870, 904.307 60, 903.315 60 C 903.004 60, 900.219 58.918, 897.125 57.595 C 894.031 56.272, 886.775 53.383, 881 51.175 C 844.611 37.262, 828.421 32.114, 798.500 24.943 C 758.437 15.342, 731.592 10.693, 697.500 7.451 C 677.776 5.575, 631.501 4.824, 612 6.062 M 772.236 24.971 C 773.655 26.087, 775.682 27, 776.741 27 C 777.800 27, 778.975 27.308, 779.352 27.685 C 779.729 28.062, 781.491 28.926, 783.269 29.606 C 785.046 30.285, 789.650 32.042, 793.500 33.511 C 799.475 35.791, 816.397 41.848, 833 47.649 C 854.979 55.329, 876.227 63.686, 882.780 67.227 C 884.585 68.202, 886.543 69, 887.132 69 C 890.042 69, 933.001 91.082, 944.500 98.488 C 947.250 100.259, 950.694 102.336, 952.153 103.104 C 960.997 107.757, 965.361 110.273, 972.500 114.832 C 976.900 117.642, 982.750 121.112, 985.500 122.542 C 988.250 123.973, 991.625 126.158, 993 127.397 C 994.375 128.637, 997.975 131.184, 1001 133.058 C 1004.025 134.933, 1007.620 137.486, 1008.990 138.733 C 1010.359 139.980, 1011.775 141, 1012.136 141 C 1012.759 141, 1025.807 150.768, 1029 153.625 C 1029.825 154.363, 1033.425 157.330, 1037 160.218 C 1047.878 169.006, 1048.347 169.401, 1051.578 172.503 C 1053.298 174.154, 1057.359 177.750, 1060.603 180.494 C 1075.187 192.832, 1097.564 215.473, 1109.531 230 C 1111.570 232.475, 1113.589 234.725, 1114.018 235 C 1114.447 235.275, 1116.822 238.200, 1119.296 241.500 C 1121.770 244.800, 1125.406 249.300, 1127.376 251.500 C 1129.346 253.700, 1132.655 257.975, 1134.729 261 C 1136.803 264.025, 1138.838 266.650, 1139.250 266.833 C 1139.662 267.017, 1140 267.804, 1140 268.583 C 1140 269.363, 1140.403 270, 1140.896 270 C 1141.390 270, 1143.930 273.488, 1146.542 277.750 C 1149.154 282.012, 1154.541 290.450, 1158.514 296.500 C 1165.915 307.774, 1167.070 309.744, 1171.496 318.651 C 1172.904 321.483, 1174.718 324.351, 1175.528 325.023 C 1176.338 325.695, 1177 326.586, 1177 327.002 C 1177 327.418, 1180.202 333.295, 1184.116 340.060 C 1191.607 353.010, 1197.289 364.571, 1203.500 379.500 C 1205.559 384.450, 1208.249 390.750, 1209.476 393.500 C 1210.703 396.250, 1212.276 400.300, 1212.972 402.500 C 1213.667 404.700, 1214.846 407.850, 1215.591 409.500 C 1217.618 413.991, 1222.891 428.682, 1224.939 435.547 C 1225.931 438.872, 1228.333 446.297, 1230.276 452.047 C 1234.612 464.875, 1242.584 497.555, 1244.531 510.486 C 1244.698 511.594, 1245.985 519.942, 1247.392 529.038 C 1252.840 564.270, 1254.865 594.541, 1255.114 644.500 C 1255.280 677.926, 1255.825 687.677, 1257.500 687.237 C 1258.050 687.093, 1258.547 686.193, 1258.604 685.237 C 1258.661 684.282, 1259.157 682.375, 1259.706 681 C 1261.526 676.444, 1264.075 660.672, 1264.958 648.500 C 1266.055 633.385, 1265.562 591.218, 1264.058 571.500 C 1262.144 546.412, 1256.795 512.815, 1250.364 485.500 C 1244.449 460.378, 1230.738 416.041, 1222.685 396 C 1205.327 352.802, 1194.502 331.329, 1172.500 296.450 C 1167.338 288.266, 1142.988 254.121, 1135.329 244.324 C 1130.876 238.629, 1115.360 220.153, 1114.063 219 C 1113.753 218.725, 1111.263 215.800, 1108.529 212.500 C 1101.063 203.489, 1071.814 174.085, 1061.540 165.261 C 1052.156 157.201, 1050.151 155.462, 1041.042 147.475 C 1032.897 140.334, 1006.962 121.275, 993.419 112.479 C 986.863 108.221, 978.505 102.771, 974.845 100.368 C 971.184 97.966, 967.945 96, 967.647 96 C 967.349 96, 962.694 93.217, 957.302 89.814 C 937.589 77.375, 896.398 57.906, 868.691 47.932 C 862.536 45.716, 856.375 43.431, 855 42.854 C 851.602 41.428, 837.056 36.664, 828.500 34.175 C 813.224 29.731, 809.174 28.735, 801 27.409 C 796.325 26.651, 790.455 25.604, 787.956 25.084 C 785.457 24.563, 780.318 23.869, 776.535 23.540 L 769.657 22.943 772.236 24.971 M 616 34.062 C 556.071 37.748, 501.127 48.462, 448 66.822 C 416.905 77.569, 402.169 83.802, 372 98.970 C 349.853 110.104, 343.468 113.693, 319.500 128.474 C 250.571 170.984, 181.912 238.169, 135.014 309 C 116.028 337.675, 87.917 393.097, 77.952 421.500 C 53.037 492.517, 42.665 546.917, 41.059 615 C 40.598 634.575, 40.258 640.295, 40.051 632 C 39.771 620.815, 39.657 620.131, 38.965 625.500 C 37.867 634.038, 38.611 685.144, 39.956 693.500 C 40.576 697.350, 41.697 705, 42.446 710.500 C 44.056 722.310, 46.591 736.134, 48.681 744.500 C 49.505 747.800, 50.538 752.075, 50.977 754 C 52.500 760.681, 55.091 770.538, 57.155 777.500 C 60.884 790.077, 63.168 797.439, 64.447 801 C 65.138 802.925, 66.490 806.975, 67.451 810 C 68.413 813.025, 70.242 818.200, 71.516 821.500 C 72.790 824.800, 75.491 832, 77.518 837.500 C 81.232 847.581, 84.519 855.720, 88.217 864 C 91.007 870.247, 106.280 900.528, 109.400 906 C 110.812 908.475, 112.377 911.400, 112.878 912.500 C 113.380 913.600, 116.670 919.225, 120.191 925 C 123.712 930.775, 127.921 937.702, 129.546 940.393 C 133.871 947.556, 138.577 954.529, 144.804 963 C 153.155 974.361, 157.274 980.016, 161.060 985.319 C 165.181 991.092, 177.719 1006.450, 187.330 1017.500 C 201.969 1034.330, 238.426 1069.492, 254.552 1082.336 C 277.978 1100.994, 308.958 1122.462, 334.488 1137.731 C 348.470 1146.092, 378.242 1161.284, 391.500 1166.822 C 395.350 1168.430, 403.225 1171.761, 409 1174.225 C 426.999 1181.903, 470.565 1195.903, 492 1200.897 C 513.950 1206.010, 518.027 1206.920, 525.500 1208.376 C 541.888 1211.567, 556.778 1213.985, 566 1214.953 C 571.225 1215.501, 578.425 1216.390, 582 1216.929 C 585.575 1217.467, 603.125 1218.382, 621 1218.961 C 647.760 1219.827, 658.003 1219.744, 679 1218.487 C 693.025 1217.647, 706.660 1216.519, 709.299 1215.980 C 711.939 1215.441, 715.453 1215, 717.108 1215 C 718.836 1215, 719.858 1214.579, 719.507 1214.012 C 719.125 1213.392, 720.687 1213.187, 723.698 1213.461 C 726.730 1213.737, 725.950 1213.456, 721.581 1212.699 L 714.662 1211.500 727.081 1209.650 C 741.871 1207.447, 767.672 1202.324, 785 1198.151 C 802.422 1193.955, 846.282 1180.035, 860.758 1174.107 C 863.366 1173.039, 872.025 1169.577, 880 1166.414 C 893.414 1161.094, 931.442 1142.609, 949 1132.874 C 958.401 1127.662, 976.305 1116.368, 985.500 1109.849 C 1021.251 1084.505, 1033.785 1074.502, 1055.076 1054.318 C 1080.887 1029.850, 1094.802 1014.372, 1120 982.101 C 1135.494 962.257, 1139.504 956.509, 1151.461 937 C 1154.663 931.775, 1158.429 925.700, 1159.829 923.500 C 1162.114 919.911, 1171.454 901.980, 1185.066 875.049 C 1189.937 865.412, 1193.707 856.741, 1199.001 843 C 1200.590 838.875, 1203.298 831.900, 1205.019 827.500 C 1214.248 803.898, 1222.894 773.520, 1230.493 738 C 1231.375 733.875, 1232.505 728.925, 1233.003 727 C 1233.844 723.750, 1234.455 720.157, 1236.951 703.750 C 1243.097 663.359, 1243.499 610.676, 1238.044 560.500 C 1232.778 512.074, 1218.355 455.254, 1198.698 405.500 C 1190.544 384.860, 1177.667 357.854, 1167.467 340 C 1165.424 336.425, 1162.608 331.475, 1161.209 329 C 1156.778 321.166, 1141.027 296.882, 1133.641 286.500 C 1113.183 257.741, 1079.900 219.795, 1053.389 195 C 1032.787 175.733, 993.808 145.323, 974 133.065 C 970.975 131.193, 964.900 127.341, 960.500 124.505 C 924.582 101.358, 877.263 79.004, 832.021 63.811 C 807.104 55.444, 761.021 44.637, 731 40.120 C 692.746 34.365, 648.752 32.048, 616 34.062 M 487.674 144.749 C 466.272 145.066, 463.561 145.937, 474.554 148.961 C 487.469 152.514, 502.475 165.543, 508.685 178.594 L 512.447 186.500 513.172 279.960 C 513.630 339.063, 513.545 373.843, 512.941 374.571 C 512.304 375.338, 506.721 375.778, 496.242 375.885 C 487.584 375.973, 473.300 376.469, 464.500 376.987 C 455.700 377.504, 439.586 378.447, 428.692 379.083 L 408.883 380.239 406.222 377.869 C 404.134 376.010, 403.866 375.931, 404.981 377.500 C 405.763 378.600, 407.061 380.054, 407.867 380.732 C 409.103 381.770, 408.750 382.207, 405.613 383.517 C 399.084 386.245, 396.082 386.478, 394.428 384.383 C 384.959 372.394, 366.221 339.773, 358.994 322.696 L 354.844 312.893 357.441 309.488 C 358.869 307.616, 363.967 303.377, 368.769 300.068 C 373.571 296.760, 378.850 292.894, 380.500 291.477 C 383.019 289.314, 383.153 288.995, 381.334 289.491 C 380.143 289.816, 378.921 289.681, 378.619 289.192 C 377.699 287.704, 388.812 285.744, 393.862 286.505 L 398.500 287.203 393.750 289.621 C 391.137 290.950, 389 292.262, 389 292.536 C 389 292.810, 391.267 291.885, 394.037 290.481 C 404.966 284.943, 400.022 284.597, 335.500 286.385 C 305.800 287.208, 280.150 288.278, 278.500 288.763 C 276.509 289.348, 275.500 290.292, 275.500 291.572 C 275.500 293.110, 276.512 293.666, 280.500 294.319 C 307.002 298.663, 323.054 309.430, 341.157 335.003 C 351.053 348.983, 374.384 388.031, 373.375 388.927 C 372.894 389.354, 367.100 390.940, 360.500 392.450 C 339.177 397.331, 327.328 401.951, 297.500 417.015 C 267.279 432.279, 240.829 450.706, 218.746 471.882 C 208.900 481.324, 188 504.185, 188 505.513 C 188 505.884, 185.975 508.851, 183.500 512.105 C 181.025 515.360, 179 518.400, 179 518.861 C 179 519.322, 177.548 521.680, 175.773 524.100 C 169.786 532.265, 167.806 535.370, 165.031 540.945 C 163.510 544, 160.388 550.086, 158.092 554.469 C 154.387 561.541, 152.866 565.218, 147.947 579 C 147.260 580.925, 145.887 584.750, 144.896 587.500 C 141.899 595.817, 138.202 611.568, 134.920 630 C 133.831 636.118, 133.798 679.640, 134.879 684 C 135.356 685.925, 136.529 691.100, 137.485 695.500 C 142.826 720.080, 149.826 736.050, 165.317 759 C 171.993 768.890, 187.466 785.205, 199.022 794.541 C 216.475 808.639, 240.317 819.403, 266.965 825.213 C 287.542 829.699, 318.519 827.248, 339 819.513 C 351.098 814.945, 358.213 811.834, 360.079 810.299 C 360.947 809.585, 361.934 809, 362.271 809 C 363.715 809, 377.060 800.124, 383.500 794.880 C 397.211 783.715, 416.458 761.676, 424.152 748.332 C 429.006 739.912, 435.951 726.199, 437.994 721 C 439.183 717.975, 440.772 714.150, 441.525 712.500 C 443.558 708.042, 447.866 692.609, 449.620 683.500 C 450.598 678.421, 451.255 668.381, 451.419 656 C 451.561 645.275, 451.513 642.913, 451.312 650.750 C 451.082 659.721, 450.561 665, 449.906 665 C 449.320 665, 449.143 665.875, 449.500 667 C 449.849 668.100, 449.767 669.001, 449.317 669.003 C 448.868 669.005, 448.490 670.981, 448.477 673.395 C 448.464 675.809, 447.951 678.845, 447.337 680.142 C 445.988 682.991, 444 692.208, 444 695.611 C 444 696.964, 443.366 699.067, 442.591 700.285 C 441.816 701.503, 440.454 705.392, 439.566 708.927 C 438.677 712.462, 437.574 715.837, 437.113 716.427 C 436.653 717.017, 435.957 718.850, 435.566 720.500 C 434.730 724.039, 426.863 737.970, 425.691 737.988 C 425.246 737.994, 425.160 737.550, 425.500 737 C 425.840 736.450, 425.641 736, 425.059 736 C 424.477 736, 424 735.298, 424 734.441 C 424 733.584, 424.450 733.160, 425 733.500 C 425.568 733.851, 426 733.006, 426 731.545 C 426 730.131, 426.410 728.191, 426.911 727.236 C 428.252 724.682, 430.745 717.016, 431.541 713 C 431.923 711.075, 432.507 709.050, 432.839 708.500 C 433.172 707.950, 433.536 707.050, 433.648 706.500 C 439.411 678.282, 439.278 679.521, 439.391 653 C 439.490 629.855, 439.294 626.635, 437.268 618.130 C 430.702 590.563, 421.190 573.966, 398.650 550.750 C 392.375 544.288, 387.601 539, 388.039 539 C 388.478 539, 389.622 538.699, 390.582 538.330 C 391.866 537.837, 392.112 538.010, 391.510 538.985 C 390.973 539.853, 391.078 540.070, 391.816 539.614 C 392.435 539.231, 394.304 539.623, 395.971 540.485 C 397.637 541.346, 399 541.824, 399 541.546 C 399 540.544, 390.908 536.939, 389.966 537.521 C 389.435 537.849, 389 537.593, 389 536.952 C 389 536.311, 388.354 536.034, 387.565 536.337 C 386.775 536.640, 385.984 536.451, 385.806 535.917 C 385.160 533.981, 374.227 531.881, 362 531.344 C 342.013 530.467, 326.439 534.722, 311.161 545.233 C 304.329 549.934, 292.943 561.596, 287.957 569 C 275.408 587.637, 273.007 596.137, 265.082 650 C 262.834 665.274, 260.263 672.513, 254.058 681.033 C 248.281 688.967, 232.806 702.088, 226.570 704.340 C 225.981 704.552, 225.781 705.031, 226.125 705.404 C 226.468 705.777, 234.793 705.645, 244.625 705.111 C 267.008 703.895, 323.366 704.584, 331.032 706.167 C 340.315 708.085, 342.548 705.851, 335.130 702.066 C 325.259 697.030, 314.033 683.416, 308.441 669.700 C 302.928 656.179, 301.644 648.669, 301.650 630 C 301.654 615.030, 301.894 612.746, 304.239 605.370 C 308.716 591.282, 313.579 582.552, 320.404 576.348 C 331.903 565.896, 347.700 560.129, 361 561.528 C 374.225 562.919, 382.695 567.153, 393.684 577.868 C 403.776 587.708, 412.581 605.547, 414.973 621 C 420 653.482, 417.761 685.454, 408.986 706.500 C 406.695 711.996, 401.877 722.450, 399.769 726.500 C 394.083 737.426, 376.772 758.425, 365.818 767.686 C 352.707 778.771, 349.187 781.138, 336.393 787.479 C 313.847 798.652, 291.917 801.415, 269.076 795.959 C 258.239 793.371, 257.807 793.602, 267.438 796.835 C 276.512 799.881, 278.400 802, 272.041 802 C 257.903 802, 232.770 792.945, 216.371 781.943 C 195.671 768.057, 173.420 738.916, 164.381 713.857 C 155.794 690.052, 153.602 677.218, 154.328 655 C 154.990 634.767, 156.411 626.131, 161.817 609.500 C 166.237 595.904, 174.886 577.051, 176.719 577.020 C 177.389 577.009, 177.678 576.325, 177.362 575.500 C 176.783 573.992, 178.482 573.349, 179.343 574.750 C 179.597 575.163, 178.001 580.225, 175.798 586 C 173.594 591.775, 171.363 598.075, 170.839 600 C 170.316 601.925, 169.471 605.075, 168.962 607 C 164.973 622.083, 162.554 649.424, 163.786 665.500 C 164.513 674.978, 164.589 674.325, 165.241 653 C 166.305 618.185, 170.720 598.683, 184.483 568 C 200.376 532.567, 240.381 489.279, 280.500 464.104 C 284.350 461.688, 288.664 458.917, 290.086 457.947 C 296.965 453.254, 323.566 441.025, 340.500 434.771 C 361.247 427.109, 381.904 421.005, 387.103 421.001 C 388.646 421, 395.793 430.812, 399.502 438.022 C 400.486 439.935, 408.561 452.525, 417.448 466 C 426.335 479.475, 437.851 497.025, 443.040 505 C 453.290 520.753, 486.933 571.117, 498.485 588 C 510.885 606.123, 513.447 610.756, 512.020 612.476 C 511.032 613.666, 511 619.536, 511.866 640.739 C 513.794 687.927, 514.999 866.555, 513.529 887.325 C 511.881 910.619, 508.564 920.827, 498.279 934.259 C 487.913 947.797, 473.018 960.025, 458.138 967.213 C 452.287 970.039, 447.313 972.497, 447.083 972.676 C 445.197 974.144, 455.200 974.588, 503.833 975.197 C 534.450 975.581, 567.982 976.204, 578.349 976.583 C 596.176 977.233, 597.180 977.173, 596.849 975.468 C 596.657 974.477, 595.825 973.443, 595 973.170 C 593.714 972.745, 593.696 972.912, 594.872 974.337 C 596.097 975.820, 595.935 975.999, 593.372 975.988 C 588.360 975.967, 580.572 973.399, 572.002 968.940 C 561.021 963.227, 544.322 947.063, 538.168 936.188 C 529.974 921.710, 530.609 934.099, 530.258 781.710 C 530.086 707.026, 530.301 645.284, 530.737 644.506 C 531.840 642.534, 532.991 643.509, 538.865 651.393 C 543.389 657.466, 544.014 658.894, 544.116 663.393 C 544.180 666.202, 544.443 667.688, 544.700 666.695 C 544.957 665.702, 545.543 665.027, 546.002 665.195 C 546.461 665.363, 552.286 673.600, 558.948 683.500 C 565.610 693.400, 574.041 705.775, 577.685 711 C 584.938 721.401, 603.625 749.275, 609.194 758 C 630.543 791.448, 628.111 782.016, 628.609 833.299 C 628.839 857.060, 629.081 897.425, 629.147 923 C 629.224 952.728, 629.632 969.962, 630.280 970.780 C 630.944 971.617, 630.961 972.826, 630.329 974.280 C 629.719 975.685, 629.695 981.273, 630.266 989.500 C 630.877 998.303, 630.832 1003.039, 630.126 1004.169 C 629.446 1005.258, 629.074 1021.264, 629.054 1050.306 C 629.038 1074.763, 628.752 1095.483, 628.420 1096.349 C 628.087 1097.215, 627.003 1098.182, 626.010 1098.497 C 624.808 1098.878, 624.376 1099.721, 624.716 1101.023 C 624.997 1102.097, 624.919 1104.620, 624.542 1106.630 L 623.856 1110.284 615.678 1109.639 C 601.934 1108.556, 577.151 1103.538, 556.500 1097.657 C 515.183 1085.891, 478.934 1069.389, 443.500 1046.216 C 418.057 1029.576, 406.396 1020.096, 381.163 995.535 C 352.024 967.174, 323.790 930.355, 322.235 918.690 C 321.522 913.342, 322.532 914.097, 330 924.498 C 333.025 928.712, 337.981 935.385, 341.014 939.329 C 344.047 943.273, 347.386 947.838, 348.434 949.474 C 349.482 951.110, 351.214 953.360, 352.281 954.474 C 353.349 955.588, 357.383 960.227, 361.246 964.782 C 365.109 969.337, 368.490 972.844, 368.759 972.574 C 369.274 972.060, 366.258 968.200, 360.107 961.500 C 346.128 946.275, 321 908.935, 321 903.389 C 321 901.612, 324.857 900.708, 330.515 901.158 C 334.611 901.483, 335.047 901.315, 334.788 899.510 C 334.508 897.559, 333.689 897.493, 307 897.252 C 265.699 896.880, 253.456 898.368, 263.451 902.544 C 271.585 905.942, 281.376 915.022, 291.979 929 C 293.856 931.475, 297.216 935.605, 299.446 938.177 C 301.676 940.750, 305.750 945.640, 308.500 949.045 C 321.134 964.687, 328.435 972.684, 344.519 988.500 C 354.028 997.850, 363.946 1007.300, 366.559 1009.500 C 369.172 1011.700, 373.277 1015.399, 375.682 1017.719 C 383.482 1025.244, 395.378 1035.394, 401.800 1040 C 405.250 1042.475, 410.225 1046.075, 412.857 1048 C 426.223 1057.779, 438.201 1065.733, 450 1072.664 C 459.255 1078.101, 485.492 1091.061, 493.500 1094.152 C 496.250 1095.214, 500.300 1096.949, 502.500 1098.008 C 519.146 1106.020, 560.078 1118.288, 590.500 1124.382 C 629.734 1132.242, 662.263 1131.810, 706 1122.848 C 720.375 1119.903, 744.678 1113.661, 755.500 1110.135 C 793.692 1097.692, 837.519 1074.911, 871 1050.100 C 905.099 1024.832, 940.144 991.575, 966.852 959.140 C 981.230 941.680, 994.291 925, 993.585 925 C 993.324 925, 987.941 931.413, 981.625 939.250 C 959.878 966.235, 952.825 974.141, 930.695 996.342 C 905.577 1021.541, 885.014 1039.425, 877.595 1042.525 C 875.678 1043.326, 873.649 1044.773, 873.085 1045.740 C 872.522 1046.708, 872.040 1047.050, 872.015 1046.500 C 871.990 1045.950, 871.572 1046.128, 871.086 1046.896 C 870.517 1047.794, 869.543 1048.020, 868.351 1047.529 C 867.117 1047.021, 866.919 1046.611, 867.756 1046.298 C 868.447 1046.040, 868.758 1045.418, 868.447 1044.915 C 868.136 1044.412, 868.809 1044, 869.941 1044 C 871.073 1044, 872 1043.568, 872 1043.040 C 872 1041.656, 877.240 1037, 878.799 1037 C 879.524 1037, 879.857 1036.578, 879.538 1036.061 C 879.219 1035.545, 879.689 1034.714, 880.583 1034.214 C 881.477 1033.713, 890.552 1025.023, 900.750 1014.902 C 925.218 990.618, 942.252 970.320, 963.500 940.126 C 969 932.310, 976.672 921.772, 980.549 916.708 L 987.599 907.500 996.504 906.755 C 1001.779 906.313, 1005.790 906.390, 1006.344 906.944 C 1006.924 907.524, 1004.740 911.034, 1000.592 916.190 C 995.659 922.319, 995.294 922.937, 999.202 918.543 C 1002.116 915.266, 1007.809 909.111, 1011.853 904.865 C 1015.898 900.618, 1018.909 896.661, 1018.544 896.072 C 1017.648 894.622, 944.384 894.569, 943.489 896.018 C 943.143 896.578, 943.838 898.620, 945.034 900.555 C 948.584 906.300, 946.285 913.116, 934.640 931.371 C 924.682 946.982, 913.813 960.167, 895.503 978.846 C 870.885 1003.960, 853.782 1018.024, 821.301 1039.862 C 808.742 1048.306, 772.446 1066.645, 756 1072.857 C 733.479 1081.364, 706.683 1089.115, 685 1093.395 C 667.110 1096.927, 663.132 1097.354, 661.415 1095.929 C 660.218 1094.936, 660.068 1095.014, 660.584 1096.359 C 661.100 1097.703, 663.983 1098.508, 667.083 1098.174 C 667.404 1098.139, 667.667 1098.761, 667.667 1099.556 C 667.667 1100.350, 667.244 1101, 666.726 1101 C 666.209 1101, 666.056 1101.704, 666.387 1102.565 C 666.856 1103.789, 666.524 1103.984, 664.869 1103.458 C 663.692 1103.085, 662.454 1103.266, 662.082 1103.867 C 661.715 1104.461, 658.239 1105.243, 654.358 1105.603 L 647.302 1106.259 646.614 1102.880 C 646.235 1101.021, 646.120 1072.050, 646.358 1038.500 C 646.596 1004.950, 646.590 979.862, 646.343 982.750 C 645.593 991.543, 644 988.654, 644 978.500 C 644 972.833, 644.404 969, 645 969 C 645.550 969, 646 968.325, 646 967.500 C 646 966.675, 645.550 966, 645 966 C 644.422 966, 644 962.833, 644 958.500 C 644 954.167, 644.422 951, 645 951 C 645.659 951, 646 921.737, 646 865.211 L 646 779.421 663.839 752.461 C 673.651 737.632, 685.509 719.200, 690.189 711.500 C 694.870 703.800, 702.135 692.550, 706.332 686.500 C 710.530 680.450, 716.426 671.900, 719.434 667.500 C 726.190 657.620, 729.428 654, 731.511 654 C 732.395 654, 732.925 653.663, 732.689 653.250 C 732.453 652.837, 733.551 651.453, 735.130 650.174 C 738.240 647.653, 738.644 647.923, 736.836 651.316 C 735.779 653.301, 735.827 653.373, 737.360 652.107 C 738.289 651.342, 739.374 651.040, 739.771 651.438 C 740.169 651.836, 740.495 708.487, 740.497 777.330 C 740.500 892.927, 740.368 902.963, 738.772 908.559 C 736.120 917.858, 731.523 928.370, 727.323 934.737 C 722.367 942.250, 709.387 955.699, 698.598 964.500 C 693.878 968.350, 690.013 971.996, 690.008 972.602 C 690.003 973.268, 693.273 973.952, 698.250 974.327 C 710.924 975.282, 834.318 976.002, 827.500 975.081 C 820.858 974.183, 808.948 969.694, 799.030 964.349 C 778.715 953.400, 766.679 939.833, 761.014 921.500 L 758.851 914.500 759.434 784 C 759.755 712.225, 760.277 643.375, 760.595 631 L 761.174 608.500 766.864 597.500 C 769.993 591.450, 777.154 579.427, 782.777 570.782 C 788.400 562.137, 793 554.637, 793 554.115 C 793 553.594, 793.354 553.017, 793.787 552.833 C 794.220 552.650, 795.873 550.250, 797.461 547.500 C 799.048 544.750, 803.194 538.116, 806.674 532.758 C 810.153 527.399, 813 522.865, 813 522.681 C 813 522.497, 818.513 513.954, 825.250 503.696 C 840.641 480.264, 843.372 475.889, 852.587 459.914 C 862.288 443.096, 876.172 421.363, 879.809 417.301 C 881.841 415.032, 883.270 414.258, 884.724 414.638 C 885.852 414.933, 887.077 414.685, 887.446 414.087 C 887.816 413.489, 888.499 413, 888.965 413 C 889.995 413, 889.111 416.991, 887.676 418.819 C 887.107 419.544, 883.417 425.844, 879.477 432.819 C 875.537 439.793, 871.079 447.637, 869.571 450.250 C 868.063 452.863, 867.034 455, 867.285 455 C 867.536 455, 870.387 450.443, 873.621 444.872 C 876.854 439.302, 881.761 430.865, 884.524 426.122 C 887.812 420.480, 890.231 417.402, 891.524 417.217 C 894.686 416.765, 923.166 425.202, 939.500 431.430 C 983.015 448.022, 1018.892 470.784, 1049.066 500.942 C 1071.354 523.219, 1083.271 539.075, 1094.964 562.009 C 1120.281 611.668, 1125.217 667.934, 1108.033 711 C 1095.591 742.184, 1069.889 770.861, 1041.500 785.235 C 1017.641 797.315, 991.091 800.835, 967.856 794.997 C 949.218 790.315, 927.338 776.488, 908.566 757.532 C 902.719 751.627, 900.456 749.718, 903.066 752.891 C 908.481 759.476, 923.031 772.509, 932.500 779.257 C 939.566 784.293, 964.225 796.985, 967 797.015 C 968.174 797.027, 968.217 797.210, 967.199 797.856 C 966.483 798.310, 963.333 798.290, 960.199 797.812 C 937.046 794.279, 909.434 776.541, 888.889 752 C 878.248 739.289, 866.536 716.663, 860.419 697 C 851.662 668.850, 852.432 628.467, 862.227 602.078 C 864.248 596.634, 870.923 585.546, 874.641 581.456 C 875.664 580.331, 878.092 578.490, 880.037 577.365 C 882.905 575.706, 883.802 575.562, 884.777 576.606 C 885.445 577.321, 885.578 578.143, 885.075 578.453 C 884.578 578.761, 883.981 578.672, 883.749 578.256 C 883.517 577.840, 883.477 578.095, 883.660 578.822 C 883.843 579.550, 883.496 581.073, 882.889 582.208 C 881.989 583.890, 881.603 584.015, 880.798 582.885 C 880.028 581.804, 879.934 581.882, 880.369 583.237 C 880.676 584.193, 879.546 588.018, 877.857 591.737 C 874.039 600.149, 870.976 608.805, 871.075 610.907 C 871.117 611.783, 872.402 608.900, 873.932 604.500 C 877.962 592.912, 882.644 583.841, 888.079 577.097 C 890.701 573.842, 892.656 570.915, 892.423 570.590 C 892.191 570.266, 892.267 570.192, 892.594 570.427 C 892.921 570.662, 895.508 569.390, 898.344 567.600 C 909.338 560.660, 922.103 557.898, 934.058 559.872 C 946.689 561.958, 954.892 566.959, 965.343 578.946 C 970.883 585.299, 979.229 601.653, 981.447 610.500 C 985.337 626.020, 985.361 647.990, 981.504 662.500 C 977.477 677.653, 967.563 691.174, 955.919 697.396 C 949.327 700.918, 946.855 702.957, 947.639 704.225 C 948.011 704.826, 958.781 704.911, 976.602 704.454 C 999.502 703.866, 1010.183 704.078, 1031.994 705.555 C 1058.890 707.376, 1062.475 707.195, 1060.572 704.116 C 1060.212 703.535, 1056.229 701.140, 1051.721 698.794 C 1042.080 693.778, 1033.354 685.476, 1029.576 677.725 C 1026.157 670.709, 1023.562 660.081, 1021.586 645 C 1016.104 603.154, 1012.470 590.981, 999.900 572.353 C 989.038 556.254, 980.428 548.049, 965.371 539.446 C 941.342 525.716, 911.160 525.672, 886.735 539.331 C 871.419 547.896, 852.321 569.398, 844.057 587.380 C 835.575 605.836, 832.245 620.828, 831.367 644.500 C 830.617 664.716, 832.215 677.996, 837.496 695.416 C 848.232 730.836, 864.723 758.770, 888.681 782.120 C 909.094 802.015, 936.031 817.327, 962.500 824.083 C 970.501 826.125, 973.942 826.386, 993.500 826.435 C 1014.290 826.487, 1016.095 826.339, 1026.329 823.745 C 1045.201 818.962, 1055.587 814.321, 1072.371 803.173 C 1098.556 785.780, 1123.509 754.220, 1134.464 724.640 C 1144.018 698.841, 1148.183 676.082, 1148.306 649 C 1148.473 612.195, 1137.901 574.953, 1117.484 540.419 C 1112.170 531.431, 1095.438 507.389, 1093.786 506.368 C 1093.162 505.982, 1094.585 508.329, 1096.948 511.583 C 1124.312 549.258, 1137.216 577.469, 1144.199 614.884 C 1146.008 624.577, 1146.371 630.224, 1146.389 649 C 1146.412 672.458, 1145.685 679.593, 1141.446 697.500 C 1136.852 716.909, 1129.837 734.642, 1120.830 749.617 C 1112.081 764.164, 1098.231 781.179, 1095.625 780.584 C 1095.006 780.443, 1094.840 780.517, 1095.256 780.749 C 1096.208 781.280, 1095.202 783, 1093.941 783 C 1093.423 783, 1093 782.115, 1093 781.034 C 1093 779.341, 1096.566 773.281, 1106.555 758 C 1110.826 751.465, 1120.698 729.961, 1124 720 C 1125.003 716.975, 1126.488 712.925, 1127.301 711 C 1129.955 704.718, 1133.700 687.408, 1134.550 677.500 C 1134.738 675.300, 1135.194 670.800, 1135.562 667.500 C 1136.601 658.177, 1136.046 637.580, 1134.444 626.045 C 1131.740 606.581, 1122.768 576.998, 1113.960 558.500 C 1109.091 548.275, 1099.526 531.565, 1095.847 526.856 C 1094.281 524.852, 1093 522.897, 1093 522.513 C 1093 521.769, 1079.894 503.869, 1076.883 500.500 C 1072.811 495.945, 1071.313 494.187, 1067.586 489.590 C 1062.358 483.143, 1059.147 480, 1057.788 480 C 1057.171 480, 1056.978 479.688, 1057.359 479.308 C 1058.234 478.433, 1048.016 468, 1046.284 468 C 1045.578 468, 1045 467.325, 1045 466.500 C 1045 465.675, 1044.607 465, 1044.126 465 C 1043.646 465, 1040.202 462.187, 1036.473 458.750 C 1032.744 455.313, 1028.476 451.758, 1026.988 450.851 C 1023.606 448.789, 1008.107 437.616, 1005.750 435.541 C 1004.788 434.693, 1003.658 434, 1003.241 434 C 1002.823 434, 1001.919 433.100, 1001.232 432 C 1000.545 430.900, 999.467 430, 998.836 430 C 998.205 430, 996.214 428.875, 994.411 427.500 C 992.608 426.125, 990.653 425, 990.067 425 C 989.480 425, 989 424.559, 989 424.019 C 989 423.480, 987.848 422.749, 986.440 422.396 C 984.753 421.972, 984.069 421.262, 984.434 420.311 C 984.836 419.264, 984.470 419.033, 983.099 419.469 C 981.253 420.055, 978 417.817, 978 415.960 C 978 415.467, 977.212 415.308, 976.250 415.607 C 974.736 416.077, 974.712 416.012, 976.071 415.126 C 978.372 413.625, 999.742 424.488, 1015.128 434.980 C 1045.644 455.789, 1065.795 473.217, 1082.792 493.500 C 1086.940 498.450, 1090.997 503.175, 1091.808 504 C 1095.054 507.304, 1091.546 502.420, 1085.701 495.500 C 1058.866 463.724, 1021.986 434.880, 984 415.961 C 963.038 405.521, 940.694 397.576, 915 391.425 C 910.875 390.437, 907.115 389.306, 906.645 388.910 C 906.175 388.514, 909.267 381.960, 913.515 374.345 C 917.764 366.730, 923.496 356.450, 926.252 351.500 C 938.722 329.109, 950.370 315.835, 965.713 306.530 C 970.220 303.797, 973.441 301.272, 972.870 300.920 C 972.300 300.567, 973.108 300.268, 974.666 300.255 C 976.225 300.243, 979.975 299.295, 983 298.149 C 986.025 297.003, 990.101 296.051, 992.059 296.033 C 994.016 296.015, 996.474 295.374, 997.521 294.608 C 999.129 293.432, 999.220 292.970, 998.104 291.625 C 995.894 288.963, 990.277 287.966, 972 286.992 C 952.254 285.940, 881.912 285.668, 877.125 286.625 C 872.609 287.528, 873.276 288.679, 879.028 289.913 C 881.794 290.506, 885.281 291.748, 886.778 292.673 C 891.991 295.893, 898.167 302.540, 901.572 308.596 C 908.403 320.744, 905.997 328.832, 884.297 366.673 C 880.773 372.819, 877.262 378.368, 876.495 379.004 C 875.434 379.884, 870.947 379.789, 857.800 378.609 C 848.285 377.754, 825.686 376.572, 807.581 375.982 C 789.476 375.392, 774.288 374.678, 773.831 374.396 C 773.374 374.113, 773 335.584, 773 288.774 C 773 241.965, 772.798 203.869, 772.551 204.116 C 772.304 204.363, 772.030 242.436, 771.944 288.723 C 771.857 335.010, 771.521 373.145, 771.197 373.469 C 770.205 374.462, 770.028 376.890, 769.648 394.713 C 769.393 406.668, 769.620 412.091, 770.390 412.463 C 771.163 412.837, 771.120 413.177, 770.250 413.583 C 769.562 413.904, 769 414.606, 769 415.142 C 769 415.679, 769.450 415.840, 770 415.500 C 770.580 415.141, 771.066 416.271, 771.157 418.191 C 771.279 420.755, 771.448 420.411, 771.907 416.661 L 772.500 411.822 803.500 411.922 C 835.912 412.026, 848.708 412.640, 850.665 414.184 C 851.909 415.166, 851.222 418.796, 848.976 423.111 C 847.566 425.819, 832.103 449.559, 818.127 470.474 C 812.971 478.188, 808.734 485.063, 808.710 485.750 C 808.686 486.438, 808.317 487, 807.890 487 C 806.912 487, 789.474 513.424, 776.544 534.500 C 756.495 567.179, 750.905 576.001, 736.869 597.115 C 728.966 609.004, 720.700 621.724, 718.500 625.382 C 713.355 633.937, 698.081 657.110, 680.712 682.714 C 673.171 693.831, 667 703.177, 667 703.481 C 667 704.220, 645.203 737.011, 643.200 739.284 C 641.707 740.979, 641.511 740.929, 639.259 738.284 C 637.003 735.634, 636.964 735.624, 638.448 738.080 C 639.305 739.499, 639.705 740.961, 639.337 741.330 C 638.968 741.698, 639.192 742, 639.833 742 C 640.475 742, 641 742.477, 641 743.059 C 641 743.641, 640.550 743.840, 640 743.500 C 638.872 742.803, 638.807 743.483, 638.989 754.120 C 639.187 765.612, 637.803 765.100, 628.279 750.153 C 623.844 743.194, 616.355 731.875, 611.637 725 C 606.918 718.125, 599.034 706.580, 594.116 699.344 C 589.199 692.108, 581.853 681.533, 577.792 675.844 C 573.731 670.155, 568.179 662.009, 565.454 657.742 C 562.729 653.475, 556.982 644.700, 552.681 638.242 C 548.381 631.784, 540.737 620.200, 535.696 612.500 C 530.654 604.800, 522.023 591.636, 516.515 583.246 C 486.417 537.404, 457.348 492.625, 446.194 474.922 C 443.275 470.290, 437.309 460.875, 432.935 454 C 428.561 447.125, 424.673 440.825, 424.293 440 C 423.001 437.192, 415.646 425.507, 413.907 423.500 C 412.953 422.400, 412.022 420.642, 411.837 419.592 C 411.439 417.340, 414.720 416.119, 422.707 415.545 C 425.571 415.339, 428.271 414.957, 428.707 414.696 C 429.827 414.025, 501.377 411.720, 507.803 412.147 L 513.107 412.500 513.303 450 L 513.500 487.500 519.500 495.157 C 522.800 499.369, 527.390 505.617, 529.699 509.041 L 533.899 515.266 533.289 462.633 L 532.679 410 535.839 410 C 541.949 410, 542.598 411.774, 543.337 430.496 C 543.701 439.749, 544 465.192, 544 487.037 C 544 519.044, 543.739 526.971, 542.658 527.869 C 541.920 528.481, 540.963 528.649, 540.531 528.241 C 540.099 527.834, 540.516 529.014, 541.458 530.865 C 542.482 532.878, 543.535 533.865, 544.077 533.323 C 544.594 532.806, 545.095 506.609, 545.242 472.458 L 545.500 412.500 583.500 412 C 604.400 411.725, 622.850 411.744, 624.500 412.042 L 627.500 412.585 627.500 540.370 C 627.500 665.709, 627.537 668.183, 629.441 669.578 C 630.509 670.360, 632.821 671, 634.579 671 C 637.435 671, 638.219 670.294, 641.924 664.386 C 646.258 657.473, 651.453 646.120, 650.650 645.316 C 650.393 645.059, 649.886 645.785, 649.523 646.928 C 648.926 648.810, 648.716 648.859, 647.305 647.448 C 644.632 644.774, 643.684 593.912, 644.508 497.266 C 644.912 449.837, 645.553 411.224, 645.932 411.458 C 646.311 411.692, 648.956 411.990, 651.811 412.121 L 657 412.357 657.185 418.429 L 657.370 424.500 657.745 419.030 C 657.951 416.022, 658.598 412.984, 659.182 412.280 C 660.592 410.581, 736.021 410.405, 739.176 412.094 C 741.204 413.180, 741.218 413.641, 740.954 473.844 C 740.648 543.923, 740.677 546, 741.969 546 C 742.501 546, 742.696 545.371, 742.400 544.601 C 742.105 543.832, 742.414 542.862, 743.086 542.447 C 743.935 541.922, 744.060 542.121, 743.494 543.095 C 743.046 543.868, 743.019 544.195, 743.435 543.822 C 743.850 543.449, 745.863 540.299, 747.907 536.822 C 749.952 533.345, 754.031 526.675, 756.972 522 C 759.914 517.325, 761.685 514.024, 760.910 514.665 C 759.698 515.667, 759.537 495.626, 759.766 371.665 C 760.052 217.149, 760.547 196.980, 764.322 186.124 C 767.417 177.226, 773.868 166.444, 779.172 161.309 C 783.372 157.241, 792.210 152.544, 793.408 153.742 C 793.734 154.067, 794 153.808, 794 153.167 C 794 152.525, 794.697 152, 795.550 152 C 796.402 152, 798.475 151.288, 800.157 150.419 C 802.078 149.426, 804.198 149.089, 805.858 149.513 C 808.377 150.157, 808.243 150.319, 803 152.986 C 799.975 154.525, 794.575 158.575, 791 161.986 L 784.500 168.187 791 162.463 C 796.736 157.412, 801.832 154.471, 812.490 150.061 C 821.119 146.491, 804.546 145.010, 755.887 145.004 L 728.274 145 723.887 149.830 C 721.474 152.486, 715.154 159.799, 709.842 166.080 C 665.028 219.073, 644.256 243, 643.066 243 C 642.599 243, 639.011 239.225, 635.094 234.611 C 631.176 229.996, 627.215 225.609, 626.290 224.861 C 625.365 224.112, 628.506 228.113, 633.270 233.751 C 638.034 239.389, 642.343 244.789, 642.847 245.751 C 643.806 247.581, 642.845 251.360, 641.154 252.405 C 639.972 253.135, 601.793 213.851, 592.653 202.500 C 589.111 198.100, 582.725 190.675, 578.463 186 C 574.201 181.325, 566.068 171.348, 560.390 163.830 C 554.712 156.311, 549.612 149.878, 549.056 149.535 C 548.500 149.191, 538.923 148.758, 527.773 148.572 C 495.329 148.030, 492.074 147.872, 495.500 147 C 497.150 146.580, 501.650 146.176, 505.500 146.103 C 510.423 146.009, 512.055 145.682, 511 145 C 510.175 144.467, 509.050 144.126, 508.500 144.243 C 507.950 144.360, 498.578 144.587, 487.674 144.749 M 522.302 144.746 C 527.693 144.926, 536.243 144.925, 541.302 144.744 C 546.361 144.563, 541.950 144.416, 531.500 144.417 C 521.050 144.418, 516.911 144.566, 522.302 144.746 M 564.876 154.856 C 567.666 158.078, 570.748 161.340, 571.725 162.106 C 572.701 162.873, 570.641 160.238, 567.147 156.250 C 563.653 152.262, 560.571 149, 560.298 149 C 560.025 149, 562.085 151.635, 564.876 154.856 M 581.454 173.750 C 586.171 179.113, 596.574 191.037, 604.571 200.250 C 612.568 209.463, 619.346 217, 619.633 217 C 619.920 217, 617.982 214.415, 615.327 211.257 C 604.282 198.116, 573.948 164, 573.309 164 C 573.072 164, 576.738 168.387, 581.454 173.750 M 532.584 182.749 C 532.263 183.071, 532 227.133, 532 280.667 L 532 378 535.441 378 C 538.801 378, 540.227 376.933, 540.655 374.100 C 540.772 373.330, 541.269 372.430, 541.761 372.100 C 542.716 371.459, 543.390 363.877, 543.503 352.500 C 543.542 348.650, 543.774 334.700, 544.019 321.500 C 544.454 298.067, 544.477 298.421, 544.982 336.500 L 545.500 375.500 587.500 375.193 C 701.866 374.357, 740.380 373.954, 740.746 373.587 C 741.410 372.923, 740.853 205.287, 740.151 194.500 C 739.537 185.073, 739.373 184.494, 737.276 184.388 C 736.053 184.326, 735.250 184.595, 735.491 184.985 C 735.732 185.375, 734.484 187, 732.718 188.597 C 730.066 190.995, 729.898 191.054, 731.754 188.936 C 732.989 187.525, 734 186.054, 734 185.666 C 734 184.573, 729.060 185.730, 726.462 187.433 C 722.133 190.270, 707.313 206.348, 689.992 227 C 678.573 240.616, 672.713 247.872, 652.113 273.902 C 647.500 279.731, 643.113 284.860, 642.363 285.300 C 641.613 285.740, 641 286.582, 641 287.172 C 641 287.915, 641.412 287.903, 642.342 287.131 C 643.080 286.519, 643.969 286.303, 644.318 286.651 C 644.666 287, 645.750 286.715, 646.726 286.018 C 647.702 285.321, 647.237 285.932, 645.694 287.375 C 642.062 290.774, 641.314 290.686, 639.635 286.669 C 638.870 284.837, 631.326 276.022, 622.872 267.079 C 614.417 258.137, 607.333 250.361, 607.130 249.799 C 606.926 249.237, 605.017 247.203, 602.888 245.280 C 600.759 243.356, 599.271 241.370, 599.583 240.866 C 599.894 240.363, 599.573 240.074, 598.870 240.225 C 598.166 240.376, 597.570 239.975, 597.545 239.333 C 597.493 237.989, 596.188 236.500, 595.062 236.500 C 593.694 236.500, 589.031 230.304, 589.778 229.478 C 590.175 229.039, 590.016 228.955, 589.424 229.291 C 588.271 229.947, 571.332 211.339, 571.750 209.875 C 571.888 209.394, 571.598 209.112, 571.107 209.250 C 570.615 209.387, 564.821 203.932, 558.229 197.126 C 551.169 189.835, 545.682 184.945, 544.873 185.222 C 544.118 185.481, 541.175 184.900, 538.334 183.929 C 535.493 182.959, 532.905 182.428, 532.584 182.749 M 1052.627 190.193 C 1059.701 196.944, 1060.323 197.563, 1073.398 210.891 C 1079.391 217.001, 1084.679 222, 1085.148 222 C 1085.616 222, 1086 222.675, 1086 223.500 C 1086 224.325, 1086.675 225, 1087.500 225 C 1088.325 225, 1089 225.649, 1089 226.443 C 1089 227.237, 1089.817 228.475, 1090.816 229.193 C 1091.815 229.912, 1092.950 231.352, 1093.339 232.393 C 1093.729 233.434, 1094.341 233.993, 1094.699 233.634 C 1095.058 233.275, 1096.437 233.998, 1097.764 235.241 L 1100.176 237.500 1098.928 234.750 C 1098.241 233.238, 1097.076 232, 1096.339 232 C 1095.603 232, 1095 231.100, 1095 230 C 1095 228.900, 1094.334 228, 1093.519 228 C 1092.705 228, 1091.749 226.848, 1091.396 225.440 C 1090.988 223.817, 1090.250 223.074, 1089.377 223.409 C 1088.495 223.747, 1088 223.229, 1088 221.969 C 1088 220.616, 1087.322 220, 1085.833 220 C 1084.642 220, 1083.951 219.716, 1084.298 219.369 C 1085.287 218.380, 1083.095 215, 1081.465 215 C 1080.659 215, 1080 214.325, 1080 213.500 C 1080 212.675, 1079.550 212, 1079 212 C 1078.450 212, 1078 211.325, 1078 210.500 C 1078 209.675, 1077.250 209, 1076.333 209 C 1075.417 209, 1074.929 208.737, 1075.250 208.417 C 1075.978 207.688, 1072.380 204, 1070.941 204 C 1070.359 204, 1070.179 203.520, 1070.542 202.933 C 1070.904 202.346, 1070.261 201.620, 1069.112 201.319 C 1067.963 201.018, 1067.230 200.437, 1067.484 200.026 C 1067.738 199.615, 1066.158 198.473, 1063.973 197.488 C 1061.788 196.502, 1060 195.090, 1060 194.348 C 1060 193.607, 1059.073 193, 1057.941 193 C 1056.809 193, 1056.162 192.546, 1056.505 191.992 C 1056.848 191.437, 1056.087 190.565, 1054.814 190.055 C 1053.541 189.544, 1052.870 189.098, 1053.321 189.063 C 1054.670 188.959, 1051.577 186.318, 1049.236 185.575 C 1047.850 185.135, 1049.075 186.803, 1052.627 190.193 M 773.681 192.510 C 773.318 194.704, 773.074 198.075, 773.138 200 C 773.210 202.194, 773.573 201.075, 774.109 197 C 775.059 189.788, 774.719 186.224, 773.681 192.510 M 543.456 235.500 C 543.456 257.500, 543.588 266.358, 543.749 255.183 C 543.910 244.009, 543.910 226.009, 543.749 215.183 C 543.587 204.358, 543.455 213.500, 543.456 235.500 M 704.438 221.750 C 701.795 224.912, 698.970 228.287, 698.161 229.250 C 697.352 230.213, 696.924 231, 697.210 231 C 697.497 231, 700.523 227.625, 703.935 223.500 C 707.347 219.375, 709.937 216, 709.691 216 C 709.444 216, 707.081 218.588, 704.438 221.750 M 661.473 270.250 L 654.500 277.500 661.750 270.527 C 668.484 264.050, 669.457 263, 668.723 263 C 668.571 263, 665.308 266.262, 661.473 270.250 M 1125 269 C 1125 269.550, 1125.702 270, 1126.559 270 C 1127.416 270, 1127.906 270.342, 1127.648 270.761 C 1127.389 271.180, 1127.757 272.315, 1128.466 273.284 C 1129.682 274.948, 1129.784 274.936, 1130.272 273.069 C 1130.623 271.727, 1130.031 270.595, 1128.430 269.546 C 1125.673 267.739, 1125 267.632, 1125 269 M 1130.015 276.628 C 1130.007 277.248, 1130.675 278.315, 1131.500 279 C 1132.325 279.685, 1133 280.765, 1133 281.400 C 1133 282.036, 1133.787 283.266, 1134.750 284.135 C 1137.828 286.913, 1139.056 288.731, 1145.714 300.369 C 1147.246 303.047, 1149.963 306.607, 1151.750 308.280 C 1153.537 309.953, 1155 312.180, 1155 313.231 C 1155 314.281, 1156.350 317.102, 1158 319.500 C 1159.650 321.898, 1161 324.342, 1161 324.930 C 1161 325.519, 1161.420 326, 1161.933 326 C 1162.446 326, 1163.183 327.012, 1163.572 328.250 C 1163.960 329.488, 1165.883 332.975, 1167.844 336 C 1169.805 339.025, 1171.329 341.802, 1171.231 342.171 C 1171.133 342.539, 1172.158 343.889, 1173.509 345.171 C 1174.860 346.452, 1175.973 348.232, 1175.983 349.128 C 1175.992 350.023, 1176.759 351.373, 1177.687 352.128 C 1179.172 353.336, 1179.292 353.281, 1178.687 351.668 C 1178.309 350.661, 1178 348.471, 1178 346.802 C 1178 344.259, 1177.676 343.852, 1176 344.290 C 1173.780 344.870, 1173.403 343.997, 1175.129 342.271 C 1175.967 341.433, 1175.702 340.437, 1174.099 338.399 C 1172.912 336.890, 1171.124 333.821, 1170.125 331.578 C 1169.126 329.335, 1166.938 326.043, 1165.264 324.261 C 1163.589 322.480, 1162.282 320.230, 1162.359 319.261 C 1162.454 318.069, 1161.906 317.601, 1160.662 317.814 C 1159.298 318.047, 1158.961 317.661, 1159.355 316.314 C 1159.647 315.316, 1159.024 312.925, 1157.970 311 C 1156.917 309.075, 1155.765 306.712, 1155.411 305.750 C 1155.057 304.788, 1154.369 304, 1153.883 304 C 1153.398 304, 1153 303.148, 1153 302.107 C 1153 301.066, 1152.325 299.955, 1151.500 299.638 C 1150.675 299.322, 1150 298.594, 1150 298.021 C 1150 296.604, 1143.327 287.208, 1140.383 284.479 C 1139.072 283.264, 1138 281.605, 1138 280.790 C 1138 278.460, 1134.695 275.952, 1133.004 276.998 C 1132.074 277.573, 1131.280 277.465, 1130.792 276.697 C 1130.267 275.871, 1130.026 275.850, 1130.015 276.628 M 910.588 288.858 C 910.130 289.599, 910.772 290, 912.420 290 C 914.985 290, 926.679 293.349, 930.659 295.223 C 931.868 295.793, 934.507 295.928, 936.659 295.530 C 938.771 295.140, 942.810 294.688, 945.633 294.526 C 948.456 294.365, 952.325 293.718, 954.230 293.089 C 956.136 292.460, 958.484 292.248, 959.448 292.619 C 960.457 293.006, 961.536 292.751, 961.989 292.018 C 962.451 291.270, 963.312 291.075, 964.074 291.546 C 964.787 291.987, 967.763 292.237, 970.686 292.101 C 973.608 291.966, 976 292.248, 976 292.727 C 976 294.148, 994.313 295.020, 995.669 293.664 C 996.061 293.273, 995.637 292.208, 994.727 291.298 C 993.379 289.950, 990.524 289.593, 979.286 289.368 C 971.704 289.216, 953.304 288.782, 938.397 288.403 C 918.502 287.899, 911.106 288.019, 910.588 288.858 M 951.073 303.797 C 937.342 314.629, 921.972 335.331, 909.178 360.226 C 906.055 366.303, 902.514 373.126, 901.309 375.388 C 898.958 379.800, 898.397 383, 899.975 383 C 900.525 383, 900.688 384.308, 900.350 386 C 899.968 387.911, 900.158 389, 900.875 389 C 901.494 389, 902 388.100, 902 387 C 902 385.900, 902.420 385, 902.933 385 C 903.446 385, 904.170 384.041, 904.542 382.868 C 905.006 381.405, 905.454 381.116, 905.968 381.948 C 906.773 383.251, 908.846 380.038, 915.609 367 C 917.749 362.875, 919.734 359.275, 920.020 359 C 920.305 358.725, 922.728 354.675, 925.404 350 C 936.975 329.783, 950.534 314.280, 963.029 306.983 C 966.863 304.744, 970 302.793, 970 302.649 C 970 302.504, 967.053 302.446, 963.452 302.519 C 959.850 302.593, 956.674 302.281, 956.393 301.826 C 955.611 300.562, 954.788 300.867, 951.073 303.797 M 430.526 424 C 430.931 425.375, 432.103 427.694, 433.131 429.154 C 434.159 430.614, 435 432.302, 435 432.904 C 435 433.507, 435.395 434, 435.879 434 C 436.362 434, 437.303 435.317, 437.970 436.928 C 438.637 438.538, 440.136 440.675, 441.302 441.678 L 443.422 443.500 441.494 440.500 C 440.433 438.850, 437.366 433.900, 434.677 429.500 C 431.989 425.100, 430.121 422.625, 430.526 424 M 772.448 463 C 772.448 481.425, 772.583 488.962, 772.748 479.750 C 772.913 470.538, 772.913 455.462, 772.748 446.250 C 772.583 437.038, 772.448 444.575, 772.448 463 M 856.463 472.250 C 854.362 475.688, 851.996 479.512, 851.206 480.750 C 850.416 481.988, 850.006 483, 850.295 483 C 850.816 483, 857.586 472.580, 859.879 468.250 C 862.284 463.709, 860.176 466.177, 856.463 472.250 M 844.419 491.750 C 841.786 496.012, 838.987 500.512, 838.201 501.750 C 837.414 502.988, 837 504, 837.281 504 C 837.563 504, 839.948 500.512, 842.581 496.250 C 845.214 491.988, 848.013 487.488, 848.799 486.250 C 849.586 485.012, 850 484, 849.719 484 C 849.437 484, 847.052 487.488, 844.419 491.750 M 822.482 527.215 C 816.517 536.329, 814.542 539.612, 815.692 538.500 C 817.402 536.848, 827.198 521.865, 826.818 521.484 C 826.624 521.290, 824.673 523.869, 822.482 527.215 M 959 540.334 C 959 541.067, 961.534 543.413, 964.631 545.546 C 970.390 549.512, 982.347 562.465, 985.015 567.626 C 985.832 569.207, 988.322 573.650, 990.548 577.500 C 1001.691 596.768, 1004.473 608.018, 1005.507 638 C 1006.286 660.550, 1007.632 672.369, 1009.930 676.812 C 1012.207 681.216, 1021.189 691.423, 1024.370 693.222 C 1040.578 702.389, 1052.726 706.674, 1055.275 704.125 C 1056.108 703.292, 1055.959 703, 1054.700 703 C 1053.765 703, 1053 702.633, 1053 702.184 C 1053 701.735, 1051.212 700.364, 1049.027 699.136 C 1042.963 695.727, 1034.076 687.161, 1029.874 680.672 C 1024.108 671.769, 1021.329 661.659, 1018.502 639.306 C 1013.443 599.297, 1010.939 591.250, 997.121 570.609 C 989.056 558.561, 977.636 547.609, 967.902 542.587 C 960.290 538.660, 959 538.334, 959 540.334 M 658.395 564.500 C 658.396 572.200, 658.553 575.218, 658.743 571.206 C 658.934 567.195, 658.932 560.895, 658.741 557.206 C 658.549 553.518, 658.393 556.800, 658.395 564.500 M 802.724 558.250 C 798.251 565.286, 797.449 566.748, 798.746 565.500 C 800.242 564.061, 807.157 553, 806.561 553 C 806.286 553, 804.560 555.362, 802.724 558.250 M 659.392 610 C 659.392 617.425, 659.549 620.462, 659.742 616.750 C 659.934 613.038, 659.934 606.962, 659.742 603.250 C 659.549 599.538, 659.392 602.575, 659.392 610 M 296.673 607.070 C 291.886 616.877, 289.655 633.014, 290.185 654 C 290.545 668.247, 290.610 668.609, 293.921 674.761 C 300.809 687.561, 324.517 705.922, 334.250 705.994 C 336.060 706.008, 334.757 703.288, 332.241 701.801 C 327.618 699.071, 318.661 689.653, 314.016 682.639 C 311.598 678.988, 309.255 676, 308.810 676 C 308.364 676, 308.071 675.663, 308.159 675.250 C 308.246 674.837, 308.037 673.825, 307.694 673 C 306.355 669.775, 303.809 662.387, 303.301 660.250 C 303.007 659.013, 302.420 658, 301.997 658 C 299.014 658, 297.254 621.840, 299.722 611.261 C 300.429 608.232, 300.602 605.099, 300.133 603.832 C 299.407 601.869, 299.047 602.206, 296.673 607.070 M 775.428 627 C 775.428 639.375, 775.571 644.438, 775.747 638.250 C 775.922 632.063, 775.922 621.938, 775.747 615.750 C 775.571 609.563, 775.428 614.625, 775.428 627 M 446.132 610 C 446.106 610.825, 446.702 613.975, 447.457 617 C 448.212 620.025, 448.859 621.600, 448.896 620.500 C 448.932 619.400, 448.335 616.250, 447.570 613.500 C 446.805 610.750, 446.158 609.175, 446.132 610 M 868.079 624.711 C 866.470 635.368, 865.714 658.100, 866.705 666 C 867.326 670.949, 867.530 667.846, 867.557 653 C 867.578 642.044, 868.157 630.067, 868.878 625.665 C 869.585 621.355, 869.958 617.625, 869.709 617.375 C 869.459 617.126, 868.726 620.427, 868.079 624.711 M 543.138 772 C 542.767 898.027, 542.767 897.999, 543.992 903.463 C 544.556 905.979, 545.264 909.716, 545.566 911.769 C 546.324 916.925, 550.617 927.786, 553.561 932 C 554.907 933.925, 557.076 937.092, 558.383 939.038 C 561.607 943.842, 575.237 958.236, 580.347 962.236 C 582.631 964.024, 580.636 961.636, 575.914 956.930 C 558.122 939.199, 549.692 924.887, 545.824 905.851 C 545.104 902.303, 544.517 862.076, 544.084 786.500 L 543.431 672.500 543.138 772 M 774.524 798.500 C 774.610 877.714, 774.957 908.456, 775.794 911 L 776.945 914.500 776.341 911 C 776.009 909.075, 775.438 858.450, 775.071 798.500 L 774.404 689.500 774.524 798.500 M 659.415 811 C 659.415 821.175, 659.564 825.337, 659.745 820.250 C 659.927 815.163, 659.927 806.837, 659.745 801.750 C 659.564 796.663, 659.415 800.825, 659.415 811 M 660.483 982.500 C 660.483 1044.100, 660.603 1069.153, 660.750 1038.173 C 660.897 1007.193, 660.897 956.793, 660.750 926.173 C 660.603 895.553, 660.483 920.900, 660.483 982.500 M 513.263 923.250 C 512.723 923.938, 511.988 926.045, 511.629 927.934 C 511.270 929.823, 510.260 932.160, 509.386 933.127 C 508.511 934.093, 508.014 935.473, 508.281 936.192 C 508.610 937.078, 509.015 936.854, 509.536 935.500 C 509.958 934.400, 510.899 932.803, 511.626 931.950 C 513.397 929.874, 516.129 922, 515.078 922 C 514.620 922, 513.803 922.563, 513.263 923.250 M 790.814 942.500 C 792.855 945.520, 800.757 953.316, 804.534 956.036 C 805.653 956.841, 804.563 955.665, 802.111 953.423 C 799.660 951.180, 795.659 947.130, 793.221 944.423 C 790.783 941.715, 789.700 940.850, 790.814 942.500 M 370 973.804 C 370 974.246, 371.575 976.134, 373.500 978 C 377.796 982.164, 378.157 980.744, 373.945 976.250 C 370.815 972.911, 370 972.405, 370 973.804 M 407 1009.399 C 407 1011.354, 431.611 1032, 433.941 1032 C 434.524 1032, 435 1032.386, 435 1032.857 C 435 1034.173, 465.357 1053.837, 479.500 1061.683 C 492.209 1068.733, 511.016 1077.376, 523 1081.674 C 537.863 1087.004, 558.593 1093.047, 561.458 1092.884 C 563.466 1092.770, 563.467 1092.760, 561.500 1092.272 C 556.703 1091.082, 531.760 1082.620, 524 1079.551 C 506.979 1072.818, 463.522 1051.812, 464.529 1050.805 C 464.729 1050.604, 462.780 1049.341, 460.197 1047.998 C 451.896 1043.683, 417.101 1019.086, 416.191 1016.890 C 415.771 1015.877, 407 1008.728, 407 1009.399 M 587 1097.808 C 587 1099.037, 588.699 1099.587, 595.250 1100.477 C 600.572 1101.200, 601.922 1099.597, 596.750 1098.695 C 594.962 1098.384, 592.038 1097.819, 590.250 1097.439 C 588.197 1097.004, 587 1097.140, 587 1097.808 M 433 1178.467 C 433 1179.047, 463.981 1189.030, 465.440 1188.920 C 466.232 1188.860, 434.577 1178.144, 433.250 1178.023 C 433.113 1178.010, 433 1178.210, 433 1178.467 M 471.596 1190.960 C 474.398 1191.957, 478.223 1193.043, 480.096 1193.372 C 481.968 1193.701, 480.125 1192.861, 476 1191.504 C 467.376 1188.668, 463.976 1188.248, 471.596 1190.960 M 501.500 1198.846 C 504.226 1200.077, 529.015 1205.318, 529.555 1204.778 C 529.793 1204.541, 524.253 1203.135, 517.244 1201.655 C 498.012 1197.593, 499.190 1197.804, 501.500 1198.846 M 559 1210.051 C 561.475 1210.491, 565.075 1210.825, 567 1210.792 C 569.862 1210.744, 569.589 1210.591, 565.500 1209.954 C 558.631 1208.884, 552.921 1208.969, 559 1210.051 M 703.500 1212.663 C 702.400 1212.878, 696.550 1213.465, 690.500 1213.968 L 679.500 1214.882 691.500 1214.346 C 704.275 1213.776, 717.374 1212.265, 709.500 1212.270 C 707.300 1212.271, 704.600 1212.448, 703.500 1212.663 M 604.776 1214.733 C 607.128 1214.945, 610.728 1214.942, 612.776 1214.727 C 614.824 1214.512, 612.900 1214.339, 608.500 1214.343 C 604.100 1214.346, 602.424 1214.522, 604.776 1214.733 M 632.250 1215.748 C 640.362 1215.916, 653.638 1215.916, 661.750 1215.748 C 669.862 1215.580, 663.225 1215.442, 647 1215.442 C 630.775 1215.442, 624.138 1215.580, 632.250 1215.748" stroke="none" fill="#c39472" fill-rule="evenodd"/></svg>