<svg width="25" height="25" viewBox="0 0 25 25" fill="none" xmlns="http://www.w3.org/2000/svg">
<path fill-rule="evenodd" clip-rule="evenodd" d="M11.458 2.03916H6.25703V1.0904C6.25703 0.515518 5.79046 0.0489481 5.21558 0.0489481C4.6407 0.0489481 4.17413 0.515518 4.17413 1.0904V2.03916H3.12435C2.29536 2.03916 1.50073 2.36826 0.914393 2.95459C0.329098 3.53989 0 4.33451 0 5.16351V21.8757C0 22.7046 0.329098 23.4993 0.914393 24.0846C1.50073 24.6709 2.29536 25 3.12435 25C7.48178 25 17.5172 25 21.8746 25C22.7036 25 23.4982 24.6709 24.0835 24.0846C24.6699 23.4993 24.999 22.7046 24.999 21.8757V5.16351C24.999 4.33451 24.6699 3.53989 24.0835 2.95459C23.4982 2.36826 22.7036 2.03916 21.8746 2.03916H20.8373V1.04145C20.8373 0.46657 20.3708 0 19.7959 0C19.221 0 18.7544 0.46657 18.7544 1.04145V2.03916H13.5409V1.04145C13.5409 0.46657 13.0744 0 12.4995 0C11.9246 0 11.458 0.46657 11.458 1.04145V2.03916ZM22.9161 10.4239V21.8757C22.9161 22.1516 22.8067 22.4172 22.6109 22.612C22.4151 22.8078 22.1506 22.9171 21.8746 22.9171C17.5172 22.9171 7.48178 22.9171 3.12435 22.9171C2.84837 22.9171 2.5828 22.8078 2.38804 22.612C2.19225 22.4172 2.0829 22.1516 2.0829 21.8757V10.4239H22.9161ZM20.8373 4.12206V5.20308C20.8373 5.77796 20.3708 6.24453 19.7959 6.24453C19.221 6.24453 18.7544 5.77796 18.7544 5.20308V4.12206H13.5409V5.24682C13.5409 5.8217 13.0744 6.28827 12.4995 6.28827C11.9246 6.28827 11.458 5.8217 11.458 5.24682V4.12206H6.25703V5.24682C6.25703 5.8217 5.79046 6.28827 5.21558 6.28827C4.6407 6.28827 4.17413 5.8217 4.17413 5.24682V4.12206H3.12435C2.84837 4.12206 2.5828 4.23141 2.38804 4.4272C2.19225 4.62195 2.0829 4.88752 2.0829 5.16351V8.34097H22.9161V5.16351C22.9161 4.88752 22.8067 4.62195 22.6109 4.4272C22.4151 4.23141 22.1506 4.12206 21.8746 4.12206H20.8373Z" fill="#4FAFFF"/>
<path d="M7.30165 13.5215H5.21875V15.6044H7.30165V13.5215Z" fill="#4FAFFF"/>
<path d="M7.30165 17.7051H5.21875V19.788H7.30165V17.7051Z" fill="#4FAFFF"/>
<path d="M11.4618 13.5215H9.37891V15.6044H11.4618V13.5215Z" fill="#4FAFFF"/>
<path d="M11.4618 17.7051H9.37891V19.788H11.4618V17.7051Z" fill="#4FAFFF"/>
<path d="M15.6337 13.5215H13.5508V15.6044H15.6337V13.5215Z" fill="#4FAFFF"/>
<path d="M15.6337 17.7051H13.5508V19.788H15.6337V17.7051Z" fill="#4FAFFF"/>
<path d="M19.7938 13.5215H17.7109V15.6044H19.7938V13.5215Z" fill="#4FAFFF"/>
<path d="M19.7938 17.7051H17.7109V19.788H19.7938V17.7051Z" fill="#4FAFFF"/>
</svg>
