<svg width="33" height="33" viewBox="0 0 33 33" fill="none" xmlns="http://www.w3.org/2000/svg">
<g id="heroicons:paper-clip-20-solid">
<path id="Vector" fill-rule="evenodd" clip-rule="evenodd" d="M25.7745 7.22534C24.8462 6.29736 23.5874 5.77605 22.2749 5.77605C20.9623 5.77605 19.7035 6.29736 18.7752 7.22534L7.2252 18.7753C6.3233 19.7087 5.82407 20.959 5.83504 22.2569C5.84601 23.5547 6.3663 24.7964 7.28386 25.7144C8.20141 26.6324 9.44281 27.1532 10.7407 27.1648C12.0386 27.1764 13.2891 26.6778 14.2228 25.7763H14.2245L15.0445 24.9513C15.2772 24.725 15.5894 24.5991 15.9139 24.6008C16.2385 24.6025 16.5494 24.7316 16.7796 24.9604C17.0099 25.1891 17.141 25.4991 17.1449 25.8237C17.1487 26.1482 17.0249 26.4612 16.8001 26.6953L15.9784 27.522L15.9752 27.5253C14.5827 28.9178 12.6941 29.7 10.7249 29.7C8.75561 29.7 6.86702 28.9178 5.47455 27.5253C4.08208 26.1328 3.2998 24.2442 3.2998 22.275C3.2998 20.3057 4.08208 18.4172 5.47455 17.0247L17.0245 5.47469C18.4161 4.08135 20.3042 3.29789 22.2735 3.29665C24.2427 3.29541 26.1318 4.0765 27.5251 5.46809C28.9185 6.85968 29.702 8.74778 29.7032 10.717C29.7044 12.6863 28.9233 14.5754 27.5318 15.9687L21.831 21.8311C21.433 22.2509 20.9549 22.5867 20.425 22.8187C19.895 23.0506 19.324 23.1741 18.7456 23.1818C18.1672 23.1895 17.5931 23.0812 17.0572 22.8634C16.5213 22.6456 16.0344 22.3226 15.6254 21.9136C15.2164 21.5046 14.8934 21.0177 14.6756 20.4818C14.4578 19.9459 14.3495 19.3718 14.3572 18.7934C14.3649 18.215 14.4883 17.644 14.7203 17.114C14.9523 16.5841 15.2881 16.106 15.7079 15.708L21.4004 10.0138C21.5145 9.8956 21.651 9.80126 21.8019 9.73633C21.9529 9.67141 22.1152 9.63719 22.2795 9.63569C22.4438 9.63418 22.6068 9.66542 22.7589 9.72757C22.911 9.78972 23.0493 9.88154 23.1655 9.99768C23.2817 10.1138 23.3737 10.2519 23.436 10.404C23.4983 10.556 23.5297 10.719 23.5283 10.8833C23.527 11.0476 23.4929 11.21 23.4281 11.361C23.3633 11.512 23.2691 11.6486 23.151 11.7628L17.4585 17.457C17.2857 17.6289 17.1485 17.8332 17.0546 18.0582C16.9607 18.2832 16.9121 18.5244 16.9115 18.7682C16.9109 19.012 16.9583 19.2535 17.051 19.4789C17.1437 19.7044 17.28 19.9093 17.4519 20.0821C17.6238 20.2549 17.8281 20.3922 18.0531 20.486C18.2781 20.5799 18.5193 20.6285 18.7631 20.6291C19.0069 20.6297 19.2484 20.5823 19.4738 20.4896C19.6993 20.3969 19.9042 20.2607 20.0771 20.0887L25.7761 14.2263C26.7041 13.298 27.2254 12.0392 27.2254 10.7266C27.2254 9.41408 26.7041 8.15526 25.7761 7.22699L25.7745 7.22534Z" fill="#53A2FF"/>
</g>
</svg>
