<svg width="14" height="8" viewBox="0 0 14 8" fill="none" xmlns="http://www.w3.org/2000/svg">
<path d="M13.9999 1.32738C14.0004 1.49815 13.9675 1.66688 13.9034 1.82117C13.8394 1.97546 13.746 2.11139 13.63 2.21897L7.63053 7.73997C7.45162 7.90809 7.22719 8 6.99559 8C6.76399 8 6.53957 7.90809 6.36065 7.73997L0.361218 2.02465C0.157021 1.83063 0.0286086 1.55182 0.00423118 1.24957C-0.0201462 0.947313 0.061508 0.646366 0.231231 0.412933C0.400953 0.179501 0.644841 0.0327044 0.909243 0.00483657C1.17364 -0.0230312 1.4369 0.0703135 1.6411 0.264335L7.00059 5.37383L12.3601 0.435795C12.5069 0.296018 12.6856 0.207228 12.8751 0.179933C13.0646 0.152637 13.257 0.187977 13.4296 0.281772C13.6021 0.375567 13.7475 0.523891 13.8485 0.709193C13.9496 0.894495 14.0022 1.10902 13.9999 1.32738Z" fill="#030303"/>
</svg>
