<svg width="15" height="8" viewBox="0 0 15 8" fill="none" xmlns="http://www.w3.org/2000/svg">
<path d="M7.40949e-05 6.67262C-0.000470446 6.50185 0.0348537 6.33312 0.10345 6.17883C0.172044 6.02454 0.27217 5.88861 0.396466 5.78103L6.82443 0.260033C7.01613 0.0919091 7.25658 -3.38476e-07 7.50472 -3.27629e-07C7.75287 -3.16782e-07 7.99332 0.0919091 8.18502 0.260033L14.613 5.97535C14.8318 6.16937 14.9693 6.44818 14.9955 6.75043C15.0216 7.05269 14.9341 7.35363 14.7523 7.58707C14.5704 7.8205 14.3091 7.9673 14.0258 7.99516C13.7425 8.02303 13.4605 7.92969 13.2417 7.73567L7.49937 2.62617L1.75705 7.56421C1.5998 7.70398 1.40831 7.79277 1.20524 7.82007C1.00217 7.84736 0.796019 7.81202 0.611186 7.71823C0.426352 7.62443 0.270569 7.47611 0.162268 7.29081C0.0539681 7.10551 -0.00231678 6.89098 7.40949e-05 6.67262Z" fill="#030303" fill-opacity="0.17"/>
</svg>
