<svg width="57" height="57" viewBox="0 0 57 57" fill="none" xmlns="http://www.w3.org/2000/svg">
<path d="M49.4398 -3.30465e-07C53.6152 -1.47954e-07 57 3.3848 57 7.56015L57 47C57 52.5228 52.5228 57 47 57L6.19633 57C2.77419 57 -2.37029e-06 54.2258 -2.2207e-06 50.8037L-1.50784e-06 34.4953C-1.02245e-06 23.3909 5.34566 12.9655 14.3626 6.48458C20.2289 2.26818 27.2709 -1.2995e-06 34.4953 -9.83713e-07L49.4398 -3.30465e-07Z" fill="#FFC806" fill-opacity="0.3"/>
<path d="M45.0315 6C48.3278 6 51 8.67221 51 11.9685L51 41C51 46.5228 46.5228 51 41 51L10.8918 51C8.19015 51 6 48.8098 6 46.1082L6 33.2331C6 24.4665 10.2203 16.2359 17.3389 11.1194C21.9702 7.79067 27.5297 6 33.2331 6L45.0315 6Z" fill="#FFC806"/>
<path d="M41 35.9999C41 36.526 40.852 37.0138 40.6149 37.4429L33.0371 28.9645L40.5328 22.4065C40.8244 22.8692 41 23.4128 41 24.0001V35.9999ZM29 30.5039L39.4299 21.378C39.0019 21.1437 38.52 21 38.0001 21H20C19.4794 21 18.9973 21.1437 18.571 21.378L29 30.5039ZM31.9078 29.9518L29.4936 32.0656C29.3524 32.1886 29.1765 32.25 29 32.25C28.8234 32.25 28.6476 32.1886 28.5064 32.0656L26.0916 29.9517L18.418 38.5385C18.8779 38.8271 19.417 39 19.9999 39H38.0001C38.5829 39 39.1222 38.8271 39.582 38.5385L31.9078 29.9518ZM17.4673 22.4064C17.1758 22.8692 17 23.4127 17 24.0001V36C17 36.5261 17.1473 37.0138 17.3853 37.443L24.9622 28.9631L17.4673 22.4064Z" fill="white"/>
</svg>
