<svg width="57" height="57" viewBox="0 0 57 57" fill="none" xmlns="http://www.w3.org/2000/svg">
<path d="M49.4398 -3.30465e-07C53.6152 -1.47954e-07 57 3.3848 57 7.56015L57 47C57 52.5228 52.5228 57 47 57L6.19633 57C2.77419 57 -2.37029e-06 54.2258 -2.2207e-06 50.8037L-1.50784e-06 34.4953C-1.02245e-06 23.3909 5.34566 12.9655 14.3626 6.48458C20.2289 2.26818 27.2709 -1.2995e-06 34.4953 -9.83713e-07L49.4398 -3.30465e-07Z" fill="url(#paint0_linear_17_7567)" fill-opacity="0.3"/>
<path d="M45.0315 6C48.3278 6 51 8.67221 51 11.9685L51 41C51 46.5228 46.5228 51 41 51L10.8918 51C8.19015 51 6 48.8098 6 46.1082L6 33.2331C6 24.4665 10.2203 16.2359 17.3389 11.1194C21.9702 7.79067 27.5297 6 33.2331 6L45.0315 6Z" fill="url(#paint1_linear_17_7567)"/>
<path d="M29 20.16C32.2 20.16 32.58 20.16 33.85 20.23C34.6119 20.2416 35.3661 20.3837 36.08 20.65C36.5981 20.8451 37.0686 21.1485 37.4601 21.5399C37.8515 21.9314 38.1549 22.4019 38.35 22.92C38.6163 23.6339 38.7584 24.3881 38.77 25.15C38.83 26.42 38.84 26.8 38.84 30C38.84 33.2 38.84 33.58 38.77 34.85C38.7584 35.6119 38.6163 36.3661 38.35 37.08C38.1549 37.5981 37.8515 38.0686 37.4601 38.4601C37.0686 38.8515 36.5981 39.1549 36.08 39.35C35.3661 39.6163 34.6119 39.7584 33.85 39.77C32.58 39.83 32.2 39.84 29 39.84C25.8 39.84 25.42 39.84 24.15 39.77C23.3881 39.7584 22.6339 39.6163 21.92 39.35C21.4019 39.1549 20.9314 38.8515 20.5399 38.4601C20.1485 38.0686 19.8451 37.5981 19.65 37.08C19.3837 36.3661 19.2416 35.6119 19.23 34.85C19.17 33.58 19.16 33.2 19.16 30C19.16 26.8 19.16 26.42 19.23 25.15C19.2416 24.3881 19.3837 23.6339 19.65 22.92C19.8451 22.4019 20.1485 21.9314 20.5399 21.5399C20.9314 21.1485 21.4019 20.8451 21.92 20.65C22.6339 20.3837 23.3881 20.2416 24.15 20.23C25.42 20.17 25.8 20.16 29 20.16ZM29 18C25.74 18 25.33 18 24.05 18.07C23.0552 18.0901 22.0712 18.2794 21.14 18.63C20.3406 18.9347 19.6147 19.4049 19.0098 20.0098C18.4049 20.6147 17.9347 21.3406 17.63 22.14C17.2794 23.0712 17.0901 24.0552 17.07 25.05C17 26.33 17 26.74 17 30C17 33.26 17 33.67 17.07 34.95C17.0901 35.9448 17.2794 36.9288 17.63 37.86C17.9347 38.6594 18.4049 39.3853 19.0098 39.9902C19.6147 40.5951 20.3406 41.0653 21.14 41.37C22.0712 41.7206 23.0552 41.9099 24.05 41.93C25.33 42 25.74 42 29 42C32.26 42 32.67 42 33.95 41.93C34.9448 41.9099 35.9288 41.7206 36.86 41.37C37.6594 41.0653 38.3853 40.5951 38.9902 39.9902C39.5951 39.3853 40.0653 38.6594 40.37 37.86C40.715 36.9446 40.9043 35.9779 40.93 35C41 33.67 41 33.26 41 30C41 26.74 41 26.33 40.93 25.05C40.9099 24.0552 40.7206 23.0712 40.37 22.14C40.0653 21.3406 39.5951 20.6147 38.9902 20.0098C38.3853 19.4049 37.6594 18.9347 36.86 18.63C35.9446 18.285 34.9779 18.0957 34 18.07C32.67 18 32.26 18 29 18ZM29 23.84C27.7817 23.84 26.5907 24.2013 25.5777 24.8781C24.5647 25.555 23.7751 26.5171 23.3089 27.6427C22.8427 28.7683 22.7207 30.0068 22.9584 31.2018C23.196 32.3967 23.7827 33.4943 24.6442 34.3558C25.5057 35.2173 26.6033 35.804 27.7982 36.0416C28.9932 36.2793 30.2317 36.1573 31.3573 35.6911C32.4829 35.2249 33.445 34.4353 34.1219 33.4223C34.7987 32.4093 35.16 31.2183 35.16 30C35.16 29.1911 35.0007 28.39 34.6911 27.6427C34.3815 26.8953 33.9278 26.2162 33.3558 25.6442C32.7838 25.0722 32.1047 24.6185 31.3573 24.3089C30.61 23.9993 29.8089 23.84 29 23.84ZM29 34C28.2089 34 27.4355 33.7654 26.7777 33.3259C26.1199 32.8864 25.6072 32.2616 25.3045 31.5307C25.0017 30.7998 24.9225 29.9956 25.0769 29.2196C25.2312 28.4437 25.6122 27.731 26.1716 27.1716C26.731 26.6122 27.4437 26.2312 28.2196 26.0769C28.9956 25.9225 29.7998 26.0017 30.5307 26.3045C31.2616 26.6072 31.8864 27.1199 32.3259 27.7777C32.7654 28.4355 33 29.2089 33 30C33 31.0609 32.5786 32.0783 31.8284 32.8284C31.0783 33.5786 30.0609 34 29 34ZM35.41 22.15C35.1252 22.15 34.8468 22.2345 34.61 22.3927C34.3732 22.5509 34.1886 22.7758 34.0796 23.0389C33.9706 23.3021 33.9421 23.5916 33.9977 23.8709C34.0532 24.1503 34.1904 24.4068 34.3918 24.6082C34.5932 24.8096 34.8497 24.9468 35.1291 25.0023C35.4084 25.0579 35.6979 25.0294 35.9611 24.9204C36.2242 24.8114 36.4491 24.6268 36.6073 24.39C36.7655 24.1532 36.85 23.8748 36.85 23.59C36.85 23.2081 36.6983 22.8418 36.4282 22.5718C36.1582 22.3017 35.7919 22.15 35.41 22.15Z" fill="white"/>
<defs>
<linearGradient id="paint0_linear_17_7567" x1="57" y1="28.5" x2="-1.24577e-06" y2="28.5" gradientUnits="userSpaceOnUse">
<stop stop-color="#BA45C4"/>
<stop offset="1" stop-color="#FD60A6"/>
</linearGradient>
<linearGradient id="paint1_linear_17_7567" x1="48" y1="6" x2="-30" y2="71.5" gradientUnits="userSpaceOnUse">
<stop stop-color="#AF37D9"/>
<stop offset="0.149217" stop-color="#DB7089"/>
<stop offset="0.297545" stop-color="#FF8E6B"/>
<stop offset="0.439491" stop-color="#FE7887"/>
<stop offset="0.7676" stop-color="#FA1CFF"/>
</linearGradient>
</defs>
</svg>
