<svg width="57" height="57" viewBox="0 0 57 57" fill="none" xmlns="http://www.w3.org/2000/svg">
<path d="M49.4398 -3.30465e-07C53.6152 -1.47954e-07 57 3.3848 57 7.56015L57 47C57 52.5228 52.5228 57 47 57L6.19633 57C2.77419 57 -2.37029e-06 54.2258 -2.2207e-06 50.8037L-1.50784e-06 34.4953C-1.02245e-06 23.3909 5.34566 12.9655 14.3626 6.48458C20.2289 2.26818 27.2709 -1.2995e-06 34.4953 -9.83713e-07L49.4398 -3.30465e-07Z" fill="#59C3FF" fill-opacity="0.3"/>
<path d="M45.0315 6C48.3278 6 51 8.67221 51 11.9685L51 41C51 46.5228 46.5228 51 41 51L10.8918 51C8.19015 51 6 48.8098 6 46.1082L6 33.2331C6 24.4665 10.2203 16.2359 17.3389 11.1194C21.9702 7.79067 27.5297 6 33.2331 6L45.0315 6Z" fill="#008BFF"/>
<path d="M41.3114 38.3544C40.3707 38.9437 36.5443 39.119 35.6182 38.446C35.1101 38.0771 34.6456 37.6152 34.2041 37.176C33.8959 36.8685 33.5453 36.7193 33.2803 36.3857C33.0644 36.1125 32.9159 35.7906 32.6877 35.5218C32.3032 35.0696 31.7106 34.6851 31.2416 35.2374C30.5362 36.0679 31.3529 37.7004 30.4119 38.3213C30.0963 38.5298 29.778 38.5901 29.3838 38.5603L28.5106 38.6001C27.9973 38.6102 27.1847 38.6146 26.6015 38.5093C25.9501 38.392 25.4129 38.0362 24.8248 37.7749C23.7074 37.2795 22.6425 36.6042 21.8325 35.6688C19.6282 33.1217 16.6672 29.6183 15.517 26.4157C15.2799 25.7576 14.6557 24.4552 15.2479 23.8906C16.0534 23.3054 20.0083 23.1398 20.6247 24.0454C20.8755 24.4128 21.0334 24.9522 21.2105 25.3687C21.4309 25.8883 21.5508 26.3785 21.8954 26.8386C22.2007 27.2469 22.4262 27.6571 22.6626 28.1049C22.928 28.607 23.1781 29.0887 23.5008 29.5513C23.7197 29.8659 24.2985 30.4908 24.664 30.5377C25.5566 30.652 25.5008 28.4827 25.4345 27.9526C25.3713 27.4423 25.3545 26.9011 25.3713 26.3834C25.3858 25.9419 25.4256 25.3199 25.1639 24.9592C24.7377 24.3711 23.7886 24.8115 23.7141 24.0212C23.8712 23.7968 23.8377 23.5976 24.8851 23.253C25.7096 22.9816 26.2423 22.9902 26.7861 23.0337C27.8953 23.1227 29.0712 22.8223 30.1413 23.1819C31.1634 23.5262 31.0056 24.979 30.9714 25.85C30.9256 27.0392 30.9743 28.1994 30.9714 29.4058C30.9699 29.9556 30.9483 30.4897 31.6175 30.4454C32.2459 30.4034 32.3095 29.8752 32.6091 29.4389C33.0264 28.8311 33.4087 28.2151 33.8334 27.6091C34.4055 26.7906 34.5778 25.8708 35.1164 25.0322C35.3093 24.7318 35.4749 24.0763 35.7716 23.8392C35.9964 23.6602 36.4229 23.7368 36.6947 23.7368H37.3408C37.8359 23.7428 38.3406 23.7499 38.8487 23.7677C39.5809 23.7931 40.4009 23.6341 41.1271 23.7365C44.2597 24.1787 37.1897 30.8798 37.5575 32.0754C37.8121 32.901 39.4246 33.826 40.0067 34.5027C40.7828 35.4027 43.1617 37.1964 41.3114 38.3544Z" fill="white"/>
</svg>
