<svg id="q" viewBox="0 0 48 48" fill="none" xmlns="http://www.w3.org/2000/svg">
<path d="M41.6336 -2.78286e-07C45.1496 -1.24593e-07 48 2.85036 48 6.36645L48 38C48 43.5229 43.5228 48 38 48L5.21796 48C2.33616 48 -1.99603e-06 45.6638 -1.87006e-06 42.782L-1.26976e-06 29.0487C-8.61009e-07 19.6976 4.50161 10.9183 12.0948 5.4607C17.0348 1.91005 22.965 -1.09432e-06 29.0487 -8.2839e-07L41.6336 -2.78286e-07Z" fill="#13E38C" fill-opacity="0.3"/>
<path d="M37.9211 5.05273C40.697 5.05273 42.9473 7.30302 42.9473 10.0789L42.9473 32.9475C42.9473 38.4703 38.4701 42.9475 32.9473 42.9475L9.17197 42.9475C6.89686 42.9475 5.05253 41.1031 5.05253 38.828L5.05253 27.9859C5.05253 20.6035 8.60643 13.6725 14.6011 9.36381C18.5011 6.56067 23.1828 5.05273 27.9857 5.05273L37.9211 5.05273Z" fill="#13E38C"/>
<path d="M36.8591 23.7241C36.8303 26.762 36.0482 29.1387 34.4217 31.2039C32.6753 33.4224 30.4011 34.8311 27.6183 35.4013C25.4688 35.8374 23.3769 35.6457 21.3234 34.903C20.8676 34.7353 20.4214 34.5388 19.9944 34.304C19.8648 34.2322 19.7545 34.2226 19.6105 34.2705C17.6674 34.8982 15.7194 35.5211 13.7715 36.1392C13.6851 36.168 13.5699 36.2494 13.5028 36.1871C13.426 36.1105 13.522 35.9955 13.5507 35.9044C13.9394 34.7497 14.328 33.5901 14.7214 32.4353C14.9613 31.7309 15.1916 31.0314 15.4411 30.3318C15.5083 30.1497 15.4843 30.0107 15.3836 29.843C14.8894 28.9997 14.5247 28.0989 14.2656 27.1549C13.781 25.382 13.7283 23.59 14.1073 21.7979C14.5199 19.8429 15.3836 18.0988 16.7126 16.5942C18.3199 14.7734 20.3014 13.5707 22.6572 12.9909C24.159 12.622 25.6751 12.5645 27.2009 12.8136C29.1968 13.1395 30.996 13.9301 32.5649 15.2046C34.1962 16.5319 35.3861 18.1802 36.1346 20.1592C36.5472 21.2277 36.8735 22.9766 36.8591 23.7241ZM16.4295 33.293C17.6194 32.9097 18.7565 32.5455 19.884 32.1766C20.0328 32.1286 20.1527 32.1382 20.2822 32.2245C20.7141 32.512 21.1795 32.742 21.6593 32.9432C23.2186 33.6045 24.8403 33.844 26.5148 33.6284C28.5683 33.3649 30.3723 32.5407 31.8884 31.108C33.798 29.3016 34.82 27.0879 34.9111 24.4716C34.9975 21.9081 34.1723 19.6561 32.4498 17.7442C30.8137 15.9282 28.7602 14.8932 26.3372 14.6344C24.2309 14.4092 22.259 14.8644 20.4358 15.9569C18.8765 16.8961 17.6818 18.1754 16.8517 19.7902C15.9353 21.5679 15.6235 23.4558 15.8873 25.4347C16.0841 26.9297 16.6214 28.3049 17.4851 29.5412C17.581 29.6801 17.6098 29.7951 17.5522 29.958C17.3747 30.4468 17.2164 30.9403 17.0484 31.4291C16.8469 32.0328 16.6502 32.6365 16.4295 33.293Z" fill="white"/>
<path d="M19.6159 21.468C19.6399 20.3276 20.0429 19.4795 20.8057 18.8038C21.0504 18.5834 21.3527 18.4876 21.6934 18.5355C21.8373 18.5547 21.9812 18.569 22.1252 18.5595C22.3939 18.5451 22.5762 18.6745 22.6673 18.9093C22.9888 19.743 23.3007 20.5767 23.6125 21.4153C23.7181 21.7028 23.5358 21.928 23.3822 22.134C23.2047 22.3784 22.9888 22.594 22.7777 22.8096C22.5618 23.03 22.533 23.1546 22.6817 23.423C23.5502 24.9994 24.7688 26.2117 26.4241 26.9592C26.4817 26.9831 26.5393 27.0167 26.5969 27.0454C26.8176 27.146 27.0143 27.1221 27.1822 26.9304C27.4893 26.5711 27.8251 26.2404 28.1082 25.8619C28.2953 25.6127 28.4249 25.5696 28.7079 25.6942C29.5524 26.0583 30.344 26.5183 31.1501 26.964C31.2988 27.0454 31.3516 27.17 31.3468 27.3425C31.3036 28.756 30.4928 29.4939 29.0678 29.8198C28.3769 29.9779 27.7388 29.8054 27.1054 29.5754C25.7764 29.0962 24.4954 28.5308 23.4206 27.5821C22.5666 26.825 21.8133 25.9817 21.1752 25.0377C20.6858 24.3094 20.1772 23.5955 19.8941 22.7473C19.731 22.2969 19.6111 21.8369 19.6159 21.468Z" fill="white"/>
</svg>
