<svg width="66" height="66" viewBox="0 0 66 66" fill="none" xmlns="http://www.w3.org/2000/svg">
<rect width="66" height="66" rx="17" fill="#EBFBFE"/>
<path d="M17.25 46.1251H30.25C30.681 46.1251 31.0943 45.9539 31.399 45.6492C31.7038 45.3444 31.875 44.9311 31.875 44.5001C31.875 44.0691 31.7038 43.6558 31.399 43.3511C31.0943 43.0463 30.681 42.8751 30.25 42.8751H18.9904C19.3847 40.1692 20.7391 37.6954 22.8063 35.9054C24.8735 34.1153 27.5155 33.1285 30.25 33.1251C32.1634 33.1417 34.0223 32.4883 35.5046 31.2783C36.9868 30.0682 37.999 28.3777 38.3657 26.4996C38.7324 24.6216 38.4304 22.6745 37.5122 20.9957C36.594 19.317 35.1174 18.0123 33.3383 17.308C31.5592 16.6036 29.5897 16.5439 27.7712 17.1391C25.9527 17.7344 24.3997 18.9472 23.3815 20.5672C22.3632 22.1872 21.9439 24.1125 22.1961 26.0093C22.4483 27.906 23.3562 29.6548 24.7624 30.9525C22.0652 32.0466 19.7554 33.9199 18.1278 36.333C16.5003 38.746 15.6289 41.5895 15.625 44.5001C15.625 44.9311 15.7962 45.3444 16.101 45.6492C16.4057 45.9539 16.819 46.1251 17.25 46.1251ZM30.25 20.1251C31.2142 20.1251 32.1567 20.411 32.9584 20.9467C33.7601 21.4824 34.3849 22.2437 34.7539 23.1345C35.1229 24.0253 35.2194 25.0055 35.0313 25.9512C34.8432 26.8968 34.3789 27.7655 33.6971 28.4473C33.0154 29.129 32.1467 29.5933 31.2011 29.7814C30.2554 29.9695 29.2752 29.873 28.3844 29.504C27.4936 29.1351 26.7323 28.5102 26.1966 27.7085C25.6609 26.9068 25.375 25.9643 25.375 25.0001C25.375 23.7072 25.8886 22.4672 26.8029 21.553C27.7171 20.6387 28.9571 20.1251 30.25 20.1251ZM51.375 33.9376V42.0626C51.375 42.2781 51.2894 42.4848 51.137 42.6371C50.9847 42.7895 50.778 42.8751 50.5625 42.8751H48.9375V46.1251L44.875 42.8751H37.5625C37.347 42.8751 37.1403 42.7895 36.988 42.6371C36.8356 42.4848 36.75 42.2781 36.75 42.0626V33.9376C36.75 33.7221 36.8356 33.5155 36.988 33.3631C37.1403 33.2107 37.347 33.1251 37.5625 33.1251H50.5625C50.778 33.1251 50.9847 33.2107 51.137 33.3631C51.2894 33.5155 51.375 33.7221 51.375 33.9376Z" fill="#FFD913"/>
</svg>
