<svg width="66" height="66" viewBox="0 0 66 66" fill="none" xmlns="http://www.w3.org/2000/svg">
<rect width="66" height="66" rx="17" fill="#EBFBFE"/>
<path d="M19.1377 48.7957H45.4365C46.6923 48.7957 47.7157 47.7731 47.7157 46.5158V23.7676H19.1377V48.7957ZM30.7236 43.1027C31.1123 43.4922 31.1123 44.1239 30.7236 44.5137C30.5281 44.7084 30.2732 44.8049 30.0183 44.8049C29.7633 44.8049 29.5077 44.7084 29.3122 44.513L27.2945 42.4931L25.2761 44.5123C25.0806 44.707 24.8264 44.8049 24.5707 44.8049C24.3158 44.8049 24.0601 44.707 23.8661 44.5123C23.4759 44.1235 23.4759 43.4918 23.8661 43.102L25.8853 41.0828L23.8661 39.0629C23.4759 38.6727 23.4759 38.0417 23.8661 37.6519C24.2556 37.2624 24.8866 37.2624 25.2764 37.6519L27.2949 39.6718L29.3126 37.6526C29.7035 37.2631 30.3338 37.2631 30.7243 37.6526C31.1131 38.0413 31.1131 38.6731 30.7243 39.0629L28.7052 41.0828L30.7236 43.1027ZM40.167 44.93H39.47C38.9188 44.93 38.4721 44.484 38.4721 43.9328C38.4721 43.3815 38.9188 42.9355 39.47 42.9355H40.167C40.7182 42.9355 41.1657 43.3815 41.1657 43.9328C41.1657 44.484 40.7179 44.93 40.167 44.93ZM36.6277 29.6242H43.0058C43.557 29.6242 44.0045 30.0702 44.0045 30.6214C44.0045 31.1726 43.557 31.6187 43.0058 31.6187H36.6277C36.0779 31.6187 35.6312 31.1726 35.6312 30.6214C35.6312 30.0702 36.0779 29.6242 36.6277 29.6242ZM41.1657 38.2241C41.1657 38.7753 40.7182 39.2221 40.167 39.2221H39.47C38.9188 39.2221 38.4721 38.7753 38.4721 38.2241C38.4721 37.6736 38.9188 37.2269 39.47 37.2269H40.167C40.7179 37.2269 41.1657 37.674 41.1657 38.2241ZM36.6277 40.0848H43.0058C43.557 40.0848 44.0045 40.5309 44.0045 41.0821C44.0045 41.6333 43.557 42.0793 43.0058 42.0793H36.6277C36.0779 42.0793 35.6312 41.6333 35.6312 41.0821C35.6312 40.5309 36.0779 40.0848 36.6277 40.0848ZM24.1069 29.6242H26.2962V27.4342C26.2962 26.883 26.7429 26.437 27.2934 26.437C27.8446 26.437 28.2907 26.883 28.2907 27.4342V29.6242H30.4835C31.0333 29.6242 31.4808 30.0702 31.4808 30.6214C31.4808 31.1726 31.0333 31.6187 30.4835 31.6187H28.2907V33.8101C28.2907 34.3613 27.8446 34.8081 27.2934 34.8081C26.7429 34.8081 26.2962 34.3613 26.2962 33.8101V31.6187H24.1069C23.5557 31.6187 23.1082 31.1726 23.1082 30.6214C23.1082 30.0702 23.5557 29.6242 24.1069 29.6242Z" fill="#F47D75"/>
<path d="M47.7161 16.4082H19.1377V21.772H47.7161V16.4082Z" fill="#EF5D54"/>
</svg>
