<svg width="529" height="373" viewBox="0 0 529 373" fill="none" xmlns="http://www.w3.org/2000/svg">
<path d="M524.657 362.076C522.168 365.758 518.025 368.347 512.188 369.785C506.34 371.226 498.893 371.482 489.996 370.563C472.204 368.727 448.934 362.23 421.76 351.636C367.435 330.458 297.819 293.03 225.817 244.36C153.814 195.689 93.1341 145.042 53.2322 102.526C33.2727 81.2597 18.5702 62.0886 10.2337 46.2633C6.06483 38.3496 3.52651 31.344 2.6835 25.3804C1.84212 19.4284 2.70029 14.6189 5.18953 10.9364C7.67876 7.25386 11.8217 4.66475 17.6584 3.22684C23.5065 1.78611 30.9533 1.53012 39.8507 2.44859C57.6428 4.28528 80.9128 10.782 108.087 21.3756C162.412 42.5539 232.027 79.9814 304.03 128.652C376.033 177.323 436.713 227.97 476.614 270.485C496.574 291.752 511.277 310.923 519.613 326.749C523.782 334.662 526.32 341.668 527.163 347.632C528.005 353.583 527.146 358.393 524.657 362.076Z" stroke="url(#paint0_linear_234_44)" stroke-width="3"/>
<defs>
<linearGradient id="paint0_linear_234_44" x1="214.85" y1="239.479" x2="282.436" y2="142.106" gradientUnits="userSpaceOnUse">
<stop stop-color="#65BEFB"/>
<stop offset="1" stop-color="#49E3E7" stop-opacity="0"/>
</linearGradient>
</defs>
</svg>
