<svg width="66" height="66" viewBox="0 0 66 66" fill="none" xmlns="http://www.w3.org/2000/svg">
<rect width="66" height="66" rx="17" fill="#EAFAFF"/>
<path d="M43.8713 37.9791C46.9606 35.9356 49 32.4215 49 28.4286C49 22.1168 43.9053 17 37.6207 17C35.8421 16.9976 34.0879 17.4156 32.5 18.2205C30.9121 17.4156 29.1579 16.9976 27.3793 17C21.0947 17 16 22.1168 16 28.4286C16 32.4215 18.0394 35.9356 21.1287 37.9791C21.3426 44.102 26.3513 49 32.5 49C38.6487 49 43.6574 44.102 43.8713 37.9791ZM45.5044 23.8572C47.7084 27.6907 46.8333 32.4611 43.6503 35.2804C43.3494 33.8064 42.7618 32.4065 41.9213 31.161C41.0808 29.9154 40.0039 28.8486 38.7522 28.0218C38.6958 26.4405 38.3132 24.8881 37.6288 23.4629C36.9443 22.0377 35.9729 20.7706 34.7759 19.7418C38.7867 18.4125 43.3096 20.0389 45.5044 23.8572ZM41.5594 36.6707C39.4407 37.6953 37.0087 37.8539 34.7759 37.1132C36.7009 35.4614 38.0219 33.2116 38.5296 30.7204C40.2511 32.2487 41.3334 34.3743 41.5594 36.6707ZM32.5004 20.8689C33.5019 21.5533 34.3575 22.4314 35.0169 23.4519C35.6764 24.4724 36.1265 25.6148 36.3409 26.8122C33.858 25.9178 31.1429 25.9181 28.6602 26.8129C28.8736 25.6151 29.3233 24.4723 29.9827 23.4515C30.6422 22.4308 31.4982 21.5527 32.5004 20.8689ZM19.4956 23.8572C21.6904 20.0389 26.2133 18.4125 30.2241 19.7418C29.0271 20.7706 28.0557 22.0377 27.3712 23.4629C26.6868 24.8881 26.3042 26.4405 26.2478 28.0218C24.9961 28.8486 23.9192 29.9154 23.0787 31.161C22.2382 32.4065 21.6506 33.8064 21.3497 35.2804C18.1667 32.4611 17.2916 27.6907 19.4956 23.8572ZM26.4686 30.7204C26.9764 33.2116 28.2976 35.4615 30.2227 37.1132C27.9899 37.8539 25.5579 37.6953 23.4392 36.6707C23.6652 34.3744 24.7474 32.2488 26.4686 30.7204ZM32.5 46.7143C28.0215 46.7143 24.2987 43.4664 23.5384 39.1882C24.9915 39.7109 26.5352 39.9314 28.0758 39.8363C29.6164 39.7412 31.1216 39.3325 32.5 38.635C33.8784 39.3325 35.3836 39.7412 36.9242 39.8363C38.4648 39.9314 40.0085 39.7109 41.4616 39.1882C40.7013 43.4664 36.9785 46.7143 32.5 46.7143Z" fill="#F85A5A"/>
</svg>
