<svg width="66" height="66" viewBox="0 0 66 66" fill="none" xmlns="http://www.w3.org/2000/svg">
<rect width="66" height="66" rx="17" fill="#EAFAFF"/>
<path fill-rule="evenodd" clip-rule="evenodd" d="M32.6305 55.0693H30.5277C27.668 55.0693 25.313 52.7142 25.313 49.8545V45.2285C25.313 44.8921 25.5653 44.5557 25.9859 44.5557H37.2564C37.5929 44.5557 37.9293 44.8921 37.9293 45.2285V49.8545C37.8452 52.7142 35.4902 55.0693 32.6305 55.0693ZM32.294 53.303H30.9483C29.0138 53.303 27.4998 51.789 27.4998 49.8545V46.9948C27.4998 46.6584 27.7521 46.3219 28.0886 46.3219H35.1537C35.4902 46.3219 35.7425 46.6584 35.7425 46.9948V49.8545C35.7425 51.789 34.2285 53.303 32.294 53.303ZM28.6773 47.5836V49.8545C28.6773 51.1162 29.6866 52.1255 30.9483 52.1255H32.294C33.5557 52.1255 34.565 51.1162 34.565 49.8545V47.5836H28.6773Z" fill="#5287A4"/>
<path fill-rule="evenodd" clip-rule="evenodd" d="M31.3689 44.1354C30.1072 44.1354 28.7615 43.799 27.6681 43.2102C25.8177 42.285 24.8925 40.6029 24.9766 38.5001C24.9766 38.2478 24.9766 38.2478 24.8925 38.0796V37.9114C24.3037 35.8928 23.8832 34.0424 23.715 32.192H30.2755C30.4437 33.6218 30.9483 34.9676 31.8735 36.2292C32.3782 36.9021 32.9669 37.5749 33.7239 38.0796H29.5185C29.1821 38.0796 28.9297 38.3319 28.9297 38.6684C28.9297 39.0048 29.1821 39.3412 29.5185 39.3412H36.5836C37.1724 39.4253 37.7612 39.5094 38.3499 39.5094C38.0135 40.687 37.3406 41.7804 36.3313 42.6215C34.9856 43.5467 33.1352 44.1354 31.3689 44.1354ZM30.2755 30.9303H23.6309C23.3785 27.1454 23.9673 23.8652 24.8925 21.0896H34.0604C34.3968 21.0896 34.7332 20.7532 34.7332 20.4167C34.7332 20.0803 34.3968 19.828 34.0604 19.828H25.3972C27.2475 15.7066 30.0231 13.0993 32.7146 12.2582C35.8267 11.333 38.3499 12.931 39.4433 16.4636C40.2844 19.2392 40.6209 21.6784 40.705 23.697C38.3499 23.0241 35.6584 23.3605 33.5557 24.9586C31.5371 26.3885 30.4437 28.6594 30.2755 30.9303Z" fill="#5287A4"/>
<path fill-rule="evenodd" clip-rule="evenodd" d="M38.3497 38.3316C36.247 38.3316 34.1443 37.3223 32.7985 35.556C30.5276 32.444 31.2005 28.1544 34.2284 25.8835C37.3404 23.6125 41.63 24.2854 43.9009 27.3974C46.1718 30.4253 45.499 34.7149 42.3869 36.9858C41.2094 37.8269 39.7796 38.3316 38.3497 38.3316ZM38.3497 35.8083C37.004 35.8083 35.6582 35.2195 34.8171 34.042C33.3873 32.1075 33.8078 29.3319 35.7423 27.9021C37.6768 26.4722 40.4524 26.8928 41.8823 28.8273C43.3121 30.7618 42.8916 33.5374 40.9571 34.9672C40.2001 35.556 39.2749 35.8083 38.3497 35.8083Z" fill="#4AEDD9"/>
<path fill-rule="evenodd" clip-rule="evenodd" d="M46.5087 44.304C46.004 44.304 45.4994 44.0517 45.0788 43.6312L41.6304 38.837C42.135 38.5846 42.6397 38.2482 43.1443 37.9118C43.5649 37.5753 43.9854 37.2389 44.406 36.8184L47.9385 41.5285C48.4432 42.2854 48.275 43.3788 47.518 43.9676C47.2657 44.2199 46.8451 44.304 46.5087 44.304Z" fill="#4AEDD9"/>
</svg>
