<svg width="66" height="66" viewBox="0 0 66 66" fill="none" xmlns="http://www.w3.org/2000/svg">
<rect width="66" height="66" rx="17" fill="#EAFAFF"/>
<path d="M41.2737 31.5608H24.3907C23.9255 31.5608 23.4794 31.376 23.1505 31.047C22.8215 30.7181 22.6367 30.272 22.6367 29.8068C22.6367 29.3416 22.8215 28.8954 23.1505 28.5665C23.4794 28.2375 23.9255 28.0527 24.3907 28.0527H41.2737C41.504 28.0527 41.7321 28.0981 41.9449 28.1863C42.1577 28.2744 42.3511 28.4036 42.514 28.5665C42.6768 28.7294 42.806 28.9227 42.8942 29.1355C42.9823 29.3483 43.0277 29.5764 43.0277 29.8068C43.0277 30.0371 42.9823 30.2652 42.8942 30.478C42.806 30.6908 42.6768 30.8842 42.514 31.047C42.3511 31.2099 42.1577 31.3391 41.9449 31.4273C41.7321 31.5154 41.504 31.5608 41.2737 31.5608Z" fill="#AA8AF9"/>
<path d="M41.2737 35.0686H24.3907C24.1604 35.0686 23.9323 35.0232 23.7195 34.9351C23.5067 34.8469 23.3133 34.7177 23.1505 34.5549C22.9876 34.392 22.8584 34.1986 22.7702 33.9858C22.6821 33.773 22.6367 33.5449 22.6367 33.3146C22.6367 33.0842 22.6821 32.8561 22.7702 32.6433C22.8584 32.4305 22.9876 32.2372 23.1505 32.0743C23.3133 31.9114 23.5067 31.7822 23.7195 31.6941C23.9323 31.6059 24.1604 31.5605 24.3907 31.5605H41.2737C41.504 31.5605 41.7321 31.6059 41.9449 31.6941C42.1577 31.7822 42.3511 31.9114 42.514 32.0743C42.6768 32.2372 42.806 32.4305 42.8942 32.6433C42.9823 32.8561 43.0277 33.0842 43.0277 33.3146C43.0277 33.5449 42.9823 33.773 42.8942 33.9858C42.806 34.1986 42.6768 34.392 42.514 34.5549C42.3511 34.7177 42.1577 34.8469 41.9449 34.9351C41.7321 35.0232 41.504 35.0686 41.2737 35.0686Z" fill="#855FE0"/>
<path d="M41.2737 38.5774H24.3907C24.1604 38.5774 23.9323 38.532 23.7195 38.4439C23.5067 38.3557 23.3133 38.2265 23.1505 38.0636C22.9876 37.9008 22.8584 37.7074 22.7702 37.4946C22.6821 37.2818 22.6367 37.0537 22.6367 36.8234C22.6367 36.593 22.6821 36.3649 22.7702 36.1521C22.8584 35.9393 22.9876 35.746 23.1505 35.5831C23.3133 35.4202 23.5067 35.291 23.7195 35.2029C23.9323 35.1147 24.1604 35.0693 24.3907 35.0693H41.2737C41.504 35.0693 41.7321 35.1147 41.9449 35.2029C42.1577 35.291 42.3511 35.4202 42.514 35.5831C42.6768 35.746 42.806 35.9393 42.8942 36.1521C42.9823 36.3649 43.0277 36.593 43.0277 36.8234C43.0277 37.0537 42.9823 37.2818 42.8942 37.4946C42.806 37.7074 42.6768 37.9008 42.514 38.0636C42.3511 38.2265 42.1577 38.3557 41.9449 38.4439C41.7321 38.532 41.504 38.5774 41.2737 38.5774Z" fill="#AA8AF9"/>
<path d="M39.2567 21.3731V22.0706C38.1949 22.6674 37.3112 23.5361 36.6962 24.5874C36.0812 25.6387 35.7571 26.8348 35.7572 28.0528H35.7486V21.3731C35.7395 20.6057 35.4283 19.8728 34.8824 19.3333C34.3365 18.7938 33.5999 18.4913 32.8324 18.4913C32.065 18.4913 31.3284 18.7938 30.7825 19.3333C30.2366 19.8728 29.9254 20.6057 29.9162 21.3731V28.0528H26.4082V21.3731C26.4217 19.6782 27.1046 18.0573 28.3079 16.8636C29.5112 15.6698 31.1375 15 32.8324 15C34.5274 15 36.1537 15.6698 37.357 16.8636C38.5603 18.0573 39.2431 19.6782 39.2567 21.3731Z" fill="#855FE0"/>
<path d="M44.3767 22.9384C44.3775 23.1722 44.3305 23.4037 44.2384 23.6186C44.1051 23.9367 43.8808 24.2082 43.5936 24.399C43.3064 24.5899 42.9691 24.6915 42.6243 24.6912C41.7335 24.693 40.8797 25.0478 40.2499 25.6779C39.6202 26.3079 39.2658 27.1619 39.2644 28.0527V28.0568H35.7588V28.0527C35.7577 26.8348 36.0812 25.6386 36.6961 24.5873C37.311 23.536 38.1949 22.6675 39.257 22.0714C40.2829 21.4873 41.4438 21.1819 42.6243 21.1856C43.089 21.186 43.5345 21.3708 43.8631 21.6995C44.1916 22.0281 44.3764 22.4737 44.3767 22.9384Z" fill="#966DE8"/>
<path d="M49.5977 21.7207V23.6192H44.2384C44.3304 23.4042 44.3775 23.1727 44.3766 22.9389C44.3785 22.484 44.2017 22.0465 43.8843 21.7207H49.5977Z" fill="#634BC9"/>
<path d="M26.4082 38.7734V44.7158C26.3867 44.7309 26.3642 44.7446 26.3409 44.7568C25.3143 45.3391 24.1538 45.6443 22.9736 45.6426C22.509 45.6422 22.0636 45.4575 21.7351 45.129C21.4066 44.8006 21.2217 44.3552 21.2212 43.8907C21.2204 43.6569 21.2674 43.4253 21.3595 43.2104C21.4919 42.8915 21.716 42.619 22.0033 42.4275C22.2906 42.2359 22.6283 42.1338 22.9736 42.1342C23.8637 42.133 24.717 41.7791 25.3468 41.1501C25.9765 40.521 26.3313 39.668 26.3335 38.7779V38.7743L26.4082 38.7734Z" fill="#966DE8"/>
<path d="M39.2571 38.5771V45.4513C39.2571 47.1551 38.5802 48.7892 37.3754 49.994C36.1706 51.1989 34.5365 51.8757 32.8326 51.8757C31.1288 51.8757 29.4947 51.1989 28.2899 49.994C27.0851 48.7892 26.4082 47.1551 26.4082 45.4513V38.5771H29.9175V45.4513C29.9175 45.8341 29.9929 46.2132 30.1394 46.5669C30.2859 46.9205 30.5006 47.2419 30.7713 47.5126C31.042 47.7833 31.3634 47.998 31.7171 48.1445C32.0707 48.291 32.4498 48.3664 32.8326 48.3664C33.2155 48.3664 33.5945 48.291 33.9482 48.1445C34.3019 47.998 34.6233 47.7833 34.894 47.5126C35.1647 47.2419 35.3794 46.9205 35.5259 46.5669C35.6724 46.2132 35.7478 45.8341 35.7478 45.4513V38.5771H39.2571Z" fill="#855FE0"/>
<path d="M21.7142 45.1074H16V43.209H21.3593C21.2673 43.4239 21.2202 43.6554 21.221 43.8893C21.2194 44.3443 21.3965 44.7817 21.7142 45.1074Z" fill="#634BC9"/>
</svg>
