<svg width="66" height="66" viewBox="0 0 66 66" fill="none" xmlns="http://www.w3.org/2000/svg">
<rect width="66" height="66" rx="17" fill="#EAFAFF"/>
<path d="M30.8849 13.6965C30.0476 13.2593 29.0655 13 27.8807 13C25.5962 13 23.6391 14.3412 22.2402 16.1473C21.3747 17.2664 21.0288 18.724 21.319 20.1086C21.4311 20.644 21.6276 21.1983 21.9258 21.7581C22.775 23.353 24.6277 25.2394 26.2872 26.7775C26.2698 26.5252 26.2607 26.2719 26.2607 26.0173C26.2607 22.2176 27.1875 18.9252 29.0868 16C29.8822 14.7877 30.8849 13.6965 30.8849 13.6965Z" fill="#85C8A0"/>
<path d="M31.2023 38.12C31.2023 37.1393 30.9789 36.1915 30.5592 35.334C30.4465 37.0777 29.7476 38.773 28.5648 40.0768C27.448 41.3078 25.7886 42.1542 23.9414 42.4733V46.017C23.9414 49.4468 26.7219 52.2273 30.1517 52.2273C31.244 52.2273 32.2698 51.9443 33.1615 51.4491C31.8931 49.9252 31.2022 48.0243 31.2022 46.017L31.2023 38.12Z" fill="#85C8A0"/>
<path d="M21.4709 32.0687C23.0546 33.6848 23.9416 35.8573 23.9416 38.12V40.1277C25.1247 39.8532 26.1734 39.2922 26.8627 38.5324C27.9387 37.3464 28.4582 35.6259 28.2185 34.0425C27.8899 31.8715 26.2393 29.981 24.838 28.5766C24.5361 28.274 24.2201 27.9664 23.9144 27.669C22.4397 26.2338 20.9149 24.7497 19.897 22.8381C19.7331 22.5303 19.5892 22.2104 19.4648 21.8828C19.1581 23.1591 19 24.5306 19 26.0171C19.0001 28.28 19.8871 30.4525 21.4709 32.0687Z" fill="#85C8A0"/>
<path d="M42.9135 15.8786C41.6593 14.2408 40.0347 13 37.4403 13C35.1557 13 33.1987 14.3412 31.7997 16.1473C30.9343 17.2663 30.5884 18.7237 30.8785 20.1083C30.9907 20.6437 31.1872 21.1982 31.4853 21.758C32.3345 23.3529 33.6666 24.6493 35.0769 26.0219C35.3885 26.3251 35.7107 26.6388 36.0245 26.9532C39.1642 30.0999 39.8252 32.211 40.0505 33.6986C40.3962 35.982 39.6761 38.3664 38.1244 40.0768C37.0076 41.3078 35.3483 42.1542 33.5011 42.4733V46.017C33.5011 49.4469 36.2814 52.2273 39.7113 52.2273C43.1411 52.2273 45.9216 49.4469 45.9216 46.017V36.7397C45.9216 35.1212 46.0837 33.5069 46.4055 31.9208C47.5415 26.3203 46.3125 20.4723 42.9135 15.8786Z" fill="#53E78E"/>
<path d="M31.0304 32.0686C32.6141 33.6847 33.5011 35.8572 33.5011 38.1199V40.1276C34.6841 39.8531 35.7329 39.2922 36.4222 38.5324C37.4982 37.3464 38.0177 35.6259 37.778 34.0424C37.4494 31.8714 35.7988 29.9809 34.3975 28.5765C34.0957 28.274 33.7796 27.9663 33.4739 27.6688C31.9992 26.2337 30.4744 24.7496 29.4565 22.8381C29.2926 22.5302 29.1487 22.2103 29.0243 21.8828C28.7177 23.1591 28.5596 24.5306 28.5596 26.0171C28.5596 28.2799 29.4466 30.4525 31.0304 32.0686Z" fill="#53E78E"/>
</svg>
