<svg width="66" height="66" viewBox="0 0 66 66" fill="none" xmlns="http://www.w3.org/2000/svg">
<rect width="66" height="66" rx="17" fill="#EAFAFF"/>
<path d="M48.0226 14.3454C47.4547 13.7778 46.6846 13.459 45.8817 13.459C45.0788 13.459 44.3087 13.7778 43.7408 14.3454L41.8271 16.2635L46.1044 20.5408L48.0226 18.6226C48.3036 18.3419 48.5265 18.0085 48.6786 17.6415C48.8307 17.2745 48.909 16.8812 48.909 16.484C48.909 16.0868 48.8307 15.6934 48.6786 15.3265C48.5265 14.9595 48.3036 14.6261 48.0226 14.3454Z" fill="#5362E7"/>
<path d="M40.1413 15.8607C40.0991 15.8185 40.049 15.785 39.9938 15.7622C39.9387 15.7393 39.8796 15.7275 39.8199 15.7275C39.7602 15.7275 39.7011 15.7393 39.646 15.7622C39.5908 15.785 39.5407 15.8185 39.4985 15.8607L36.7713 18.588C36.6861 18.6732 36.6382 18.7888 36.6382 18.9094C36.6382 19.0299 36.6861 19.1455 36.7713 19.2307L43.1349 25.5944C43.1771 25.6366 43.2272 25.6701 43.2823 25.6929C43.3375 25.7158 43.3966 25.7276 43.4563 25.7276C43.516 25.7276 43.5751 25.7158 43.6302 25.6929C43.6853 25.6701 43.7354 25.6366 43.7776 25.5944L46.5049 22.8671C46.5471 22.8249 46.5806 22.7748 46.6035 22.7197C46.6263 22.6645 46.6381 22.6054 46.6381 22.5457C46.6381 22.486 46.6263 22.4269 46.6035 22.3718C46.5806 22.3167 46.5471 22.2666 46.5049 22.2244L40.1413 15.8607Z" fill="#5362E7"/>
<path d="M20.3683 42.7238C20.0331 43.1613 17.0928 47.0515 17.0928 48.9094C17.0928 49.8739 17.4759 50.7988 18.1578 51.4807C18.8398 52.1627 19.7647 52.5458 20.7291 52.5458C21.6936 52.5458 22.6185 52.1627 23.3004 51.4807C23.9824 50.7988 24.3655 49.8739 24.3655 48.9094C24.3655 47.0515 21.4252 43.1613 21.09 42.7238C21.0458 42.6711 20.9906 42.6288 20.9282 42.5998C20.8659 42.5707 20.7979 42.5557 20.7292 42.5557C20.6604 42.5557 20.5924 42.5707 20.5301 42.5998C20.4678 42.6288 20.4125 42.6711 20.3683 42.7238Z" fill="#AFB6FC"/>
<path d="M30.5435 27.5452H39.1003L41.4503 25.1952L37.173 20.918L30.5435 27.5452Z" fill="#5362E7"/>
<path d="M23.1367 34.9496C23.0863 34.9988 23.0488 35.0597 23.0276 35.1268L21.2094 40.5814C21.1823 40.6618 21.1782 40.7483 21.1975 40.8309C21.2167 40.9136 21.2586 40.9893 21.3185 41.0496C21.3602 41.0915 21.4098 41.1247 21.4644 41.1473C21.519 41.17 21.5775 41.1815 21.6367 41.1814C21.686 41.1808 21.735 41.1732 21.7821 41.1586L27.2367 39.3405C27.3035 39.3186 27.3642 39.2812 27.4139 39.2314L38.1912 28.4541H29.6342L23.1367 34.9496Z" fill="#5362E7"/>
</svg>
