<svg width="157" height="142" viewBox="0 0 157 142" fill="none" xmlns="http://www.w3.org/2000/svg">
<path fill-rule="evenodd" clip-rule="evenodd" d="M24.7422 82.7175C24.7559 81.75 24.7582 81.75 24.7566 80.75C26.2559 81.75 24.7559 80.75 26.2559 81.75C28.3959 84.29 30.5022 86.0575 32.6822 88.5775C32.9822 89.0675 33.1722 89.6075 33.2422 90.1875C33.0322 106.538 33.0122 122.898 33.1722 139.248C33.1885 140.918 33.2201 140.918 31.6842 140.918C29.143 140.918 27.663 140.918 25.5322 140.918C24.7559 140.75 24.7559 140.75 24.7622 139.308C24.7722 120.438 24.7622 101.578 24.7422 82.7175ZM26.0022 118.718C26.2022 123.888 26.2522 129.058 26.1722 134.228C26.2822 134.968 26.5622 135.628 27.0322 136.218C25.9422 137.268 25.9222 138.338 26.9722 139.408C27.8322 139.648 28.7222 139.738 29.6222 139.678C30.2022 139.758 30.6722 139.578 31.0322 139.138C31.4822 129.478 31.5722 119.818 31.3122 110.148C31.0922 108.838 30.9322 107.518 30.8522 106.198C30.8222 105.108 31.0722 104.098 31.6222 103.168C31.2322 102.588 31.0422 101.958 31.0422 101.258C31.1322 99.5775 31.0822 97.8975 30.9122 96.2175C31.3122 93.9175 31.4222 91.6075 31.2422 89.2975C29.8722 87.8975 28.5722 86.4375 27.3322 84.9275C27.0022 84.7475 26.7422 84.8175 26.5622 85.1475C26.7522 85.7975 26.8222 86.4675 26.7522 87.1475C26.3222 88.1175 26.0922 89.1275 26.0722 90.1875C26.1222 96.1975 26.1522 102.218 26.1622 108.228C26.2522 109.258 26.4022 110.278 26.6222 111.288C26.5322 113.768 26.3222 116.248 26.0022 118.718Z" fill="#1C1512"/>
<path fill-rule="evenodd" clip-rule="evenodd" d="M41.3917 20.4452C41.2217 20.8252 40.9417 21.1152 40.5717 21.3052C40.0717 21.1252 39.6217 21.1752 39.2317 21.4652C39.3517 22.3352 39.3017 23.1752 39.0717 23.9852C38.5417 24.1752 38.0517 24.4152 37.5817 24.7252C37.2917 25.6252 36.7617 26.3252 36.0017 26.8552C35.3017 25.8052 34.5017 24.8652 33.6217 24.0152C33.2317 24.2752 33.0717 24.6552 33.1517 25.1452C33.2517 34.5252 33.2717 43.9052 33.1917 53.2952C33.2317 53.8352 32.7754 54.7073 32.6017 54.5452C30.0617 52.1752 27.6817 49.6152 25.4817 46.8752C25.1417 46.3952 24.9317 45.8552 24.8417 45.2652C24.6917 30.5552 24.7417 15.8552 25.0017 1.16521C25.023 -0.0419803 25.7754 0.25 26.6917 1.62521C31.5617 7.92521 36.4617 14.1952 41.3917 20.4452ZM64.7617 118.025C65.3717 116.965 66.0517 115.945 66.7817 114.985C68.3017 114.455 69.8317 113.935 71.3517 113.425C73.2117 115.705 75.1417 117.945 77.1317 120.115C77.7717 120.645 78.4417 120.685 79.1317 120.225C88.1017 109.465 97.0117 98.6552 105.862 87.7852C108.872 84.1152 111.722 80.3152 114.392 76.3952C114.922 75.6952 115.775 75.7499 115.775 76.2499C115.775 79.7499 115.775 79.7499 115.775 83.2499C115.745 83.8899 115.775 85.2499 115.722 88.0352C103.862 103.345 91.6317 118.355 79.0517 133.085C78.4417 133.505 77.8317 133.485 77.2417 133.025C73.0117 128.075 68.8517 123.075 64.7617 118.025Z" fill="#1C1512" stroke="#1C1512" stroke-width="0.5"/>
<path fill-rule="evenodd" clip-rule="evenodd" d="M132.011 68.6481C132.001 92.4581 131.951 116.268 131.871 140.068C131.871 140.75 131.871 140.75 129.501 140.75C127.131 140.75 123.275 140.75 123.275 140.75C123.275 140.75 123.321 63.5781 123.451 25.0981C123.531 24.2381 123.161 23.7581 122.321 23.6581C122.661 22.7581 123.221 22.6281 124.001 23.2681C124.861 24.0681 125.221 25.0581 125.091 26.2281C125.041 63.2281 125.051 100.238 125.121 137.238C125.151 138.338 125.681 139.088 126.691 139.488C127.741 139.178 128.821 138.998 129.921 138.958C130.061 138.808 130.201 138.658 130.341 138.508C130.071 137.748 129.791 136.998 129.501 136.258C129.871 135.308 130.061 134.328 130.071 133.308C129.561 132.008 129.261 130.668 129.141 129.278C129.431 128.238 129.741 127.208 130.071 126.168C130.131 117.198 130.141 108.218 130.111 99.2381C130.181 98.5381 130.291 97.8381 130.461 97.1481C129.971 96.2181 129.541 95.2681 129.141 94.2981C129.531 92.8781 130.081 91.5181 130.801 90.2181C131.001 88.4981 131.001 86.7681 130.801 85.0481C130.051 84.5981 129.501 83.9981 129.141 83.2481C129.141 81.5581 129.111 79.8781 129.041 78.1981C128.481 76.9281 128.161 75.6081 128.081 74.2381C128.051 73.6281 128.131 73.0181 128.301 72.4281C129.151 72.2081 129.991 71.9181 130.811 71.5681C131.151 70.4081 131.101 69.2581 130.671 68.1181C131.131 68.2481 131.581 68.4181 132.011 68.6481ZM6.98128 132.758C7.17128 107.888 7.24128 83.0281 7.19128 58.1581C7.14128 57.4281 7.33128 56.7681 7.75128 56.1781C7.87128 79.1881 7.96128 102.198 8.00128 125.218C8.00128 128.248 7.98128 131.268 7.92128 134.298C7.92128 134.738 7.80128 135.128 7.54128 135.468C7.08128 134.628 6.90128 133.728 6.98128 132.758Z" fill="#1C1512"/>
<path fill-rule="evenodd" clip-rule="evenodd" d="M155.758 140.75C154.758 140.75 154.758 140.75 153.758 140.75C152.82 140.75 152.258 140.75 151.258 140.75C150.258 140.75 150.258 140.75 149.258 140.75C149.248 132.07 149.167 118.96 148.947 110.29C149.057 90.95 149.137 71.62 149.167 52.29C149.197 51.66 149.117 51.05 148.947 50.45C148.777 50.09 148.648 49.68 148.258 49.75C147.578 49.61 146.827 50.02 146.307 50.46C141.537 56.54 136.776 62.63 132.047 68.73C131.617 68.5 131.167 68.33 130.707 68.2C131.137 69.34 131.187 70.49 130.847 71.65C130.027 72 129.187 72.29 128.337 72.51C128.167 73.1 128.087 73.71 128.117 74.32C128.197 75.69 128.517 77.01 129.077 78.28C129.147 79.96 129.177 81.64 129.177 83.33C129.537 84.08 130.087 84.68 130.837 85.13C131.037 86.85 131.037 88.58 130.837 90.3C130.117 91.6 129.567 92.96 129.177 94.38C129.577 95.35 130.007 96.3 130.497 97.23C130.327 97.92 130.217 98.62 130.147 99.32C130.177 108.3 130.167 117.28 130.107 126.25C130.137 127.3 130.137 128.8 130.137 129.8C130.137 131.3 130.119 132.095 130.107 133.39C130.097 134.41 130.107 135.3 130.137 136.3C130.172 137.492 130.137 138.3 130.137 139.3C130.137 140.3 130.137 139.937 130.137 140.437C129.037 140.477 126.758 140.25 125.758 140.25C125.258 140.25 125.167 140.4 125.137 139.3C125.067 102.3 125.077 63.31 125.127 26.31C125.257 25.14 124.896 24.15 124.036 23.35C123.257 22.71 122.697 22.84 122.357 23.74C121.857 25.04 121.116 26.18 120.127 27.17C106.487 44.88 92.7863 62.55 79.0366 80.17C78.7166 80.57 78.3066 80.72 77.8066 80.62C63.8368 62.78 49.9164 44.88 36.0366 26.94C36.7966 26.41 37.3266 25.71 37.6166 24.81C38.0866 24.5 38.5766 24.26 39.1066 24.07C39.3366 23.26 39.3866 22.42 39.2666 21.55C39.6566 21.26 40.1066 21.21 40.6066 21.39C40.9766 21.2 41.2566 20.91 41.4266 20.53C48.4065 29.38 55.2667 38.33 61.9966 47.37C66.9765 53.41 71.8767 59.52 76.6966 65.68C77.1466 66.35 77.7766 66.72 78.5766 66.78C79.6165 66.17 80.4766 65.34 81.1366 64.29C97.4363 43.25 113.807 22.26 130.237 1.32C130.577 0.840001 131.258 0.25 131.537 0.25C131.758 0.25 131.997 0.714844 131.997 1.28C131.947 18.96 131.987 36.62 132.097 54.28C132.737 54.63 133.257 54.47 133.657 53.79C135.097 51.58 136.647 49.45 138.317 47.41C143.686 41.12 148.957 34.74 154.127 28.28C154.507 27.78 155.402 27.17 155.566 27.17C155.731 27.17 156.057 27.81 155.987 28.27C155.957 65.29 156.027 102.31 156.207 139.33C156.213 140.75 156.207 140.75 155.758 140.75ZM71.3866 113.51C69.8666 114.02 68.3366 114.54 66.8166 115.07C66.0866 116.03 65.4066 117.05 64.7966 118.11C46.3969 95.41 27.1855 71.9 8.75586 49.25C8.75586 48.75 8.75586 49.75 8.75586 50.75C8.75586 51.25 8.75586 51.75 8.75586 52.25C8.71586 81.23 8.75664 110.19 8.77664 139.18C8.75586 141.25 8.77664 141.25 6.75586 141.25C5.05542 141.25 2.25586 141.25 1.25586 141.25C0.255859 141.25 0.255859 141.25 0.255859 139.25C0.335858 101.63 0.266396 27.5132 0.256661 27.26C0.246926 27.0068 0.24828 27.25 0.258002 25.75C0.267724 24.25 47.897 84.26 71.3866 113.51ZM7.01665 132.84C6.93665 133.81 7.11666 134.71 7.57665 135.55C7.83665 135.21 7.95665 134.82 7.95665 134.38C8.01665 131.35 8.03665 128.33 8.03665 125.3C7.99665 102.28 7.90665 79.27 7.78665 56.26C7.36666 56.85 7.17665 57.51 7.22665 58.24C7.27665 83.11 7.20665 107.97 7.01665 132.84ZM26.0366 118.8C26.3566 116.33 26.5666 113.85 26.6566 111.37C26.4366 110.36 26.2866 109.34 26.1966 108.31C26.1866 102.3 26.1566 96.28 26.1066 90.27C26.1266 89.21 26.3566 88.2 26.7866 87.23C26.8566 86.55 26.7866 85.88 26.5966 85.23C27.0766 84.83 27.4966 84.92 27.8666 85.47C28.9066 86.86 30.0466 88.16 31.2766 89.38C31.4566 91.69 31.3466 94 30.9466 96.3C31.1166 97.98 31.1666 99.66 31.0766 101.34C31.0766 102.04 31.2666 102.67 31.6566 103.25C31.1066 104.18 30.8566 105.19 30.8866 106.28C30.9666 107.6 31.1266 108.92 31.3466 110.23C31.6066 119.9 31.5166 129.56 31.0666 139.22C30.7066 139.66 30.2366 139.84 29.6566 139.76C28.0366 140.16 26.1964 139.703 26.2166 138.21C26.2266 137.47 26.5166 136.83 27.0666 136.3C26.5966 135.71 26.3166 135.05 26.2066 134.31C26.2866 129.14 26.2366 123.97 26.0366 118.8Z" fill="#1C1512" stroke="#1C1512" stroke-width="0.5"/>
</svg>
