<svg width="397" height="213" viewBox="0 0 397 213" fill="none" xmlns="http://www.w3.org/2000/svg">
<path fill-rule="evenodd" clip-rule="evenodd" d="M145.486 82.7175C145.5 81.75 145.502 81.75 145.501 80.75C147 81.75 145.5 80.75 147 81.75C149.14 84.29 151.246 86.0575 153.426 88.5775C153.726 89.0675 153.916 89.6075 153.986 90.1875C153.776 106.538 153.756 122.898 153.916 139.248C153.933 140.918 153.964 140.918 152.428 140.918C149.887 140.918 148.407 140.918 146.276 140.918C145.5 140.75 145.5 140.75 145.506 139.308C145.516 120.438 145.506 101.578 145.486 82.7175ZM146.746 118.718C146.946 123.888 146.996 129.058 146.916 134.228C147.026 134.968 147.306 135.628 147.776 136.218C146.686 137.268 146.666 138.338 147.716 139.408C148.576 139.648 149.466 139.738 150.366 139.678C150.946 139.758 151.416 139.578 151.776 139.138C152.226 129.478 152.316 119.818 152.056 110.148C151.836 108.838 151.676 107.518 151.596 106.198C151.566 105.108 151.816 104.098 152.366 103.168C151.976 102.588 151.786 101.958 151.786 101.258C151.876 99.5775 151.826 97.8975 151.656 96.2175C152.056 93.9175 152.166 91.6075 151.986 89.2975C150.616 87.8975 149.316 86.4375 148.076 84.9275C147.746 84.7475 147.486 84.8175 147.306 85.1475C147.496 85.7975 147.566 86.4675 147.496 87.1475C147.066 88.1175 146.836 89.1275 146.816 90.1875C146.866 96.1975 146.896 102.218 146.906 108.228C146.996 109.258 147.146 110.278 147.366 111.288C147.276 113.768 147.066 116.248 146.746 118.718Z" fill="#C49D74"/>
<path fill-rule="evenodd" clip-rule="evenodd" d="M162.136 20.4452C161.966 20.8252 161.686 21.1152 161.316 21.3052C160.816 21.1252 160.366 21.1752 159.976 21.4652C160.096 22.3352 160.046 23.1752 159.816 23.9852C159.286 24.1752 158.796 24.4152 158.326 24.7252C158.036 25.6252 157.506 26.3252 156.746 26.8552C156.046 25.8052 155.246 24.8652 154.366 24.0152C153.976 24.2752 153.816 24.6552 153.896 25.1452C153.996 34.5252 154.016 43.9052 153.936 53.2952C153.976 53.8352 153.52 54.7073 153.346 54.5452C150.806 52.1752 148.426 49.6152 146.226 46.8752C145.886 46.3952 145.676 45.8552 145.586 45.2652C145.436 30.5552 145.486 15.8552 145.746 1.16521C145.767 -0.0419803 146.52 0.25 147.436 1.62521C152.306 7.92521 157.206 14.1952 162.136 20.4452ZM185.506 118.025C186.116 116.965 186.796 115.945 187.526 114.985C189.046 114.455 190.576 113.935 192.096 113.425C193.956 115.705 195.886 117.945 197.876 120.115C198.516 120.645 199.186 120.685 199.876 120.225C208.846 109.465 217.756 98.6552 226.606 87.7852C229.616 84.1152 232.466 80.3152 235.136 76.3952C235.666 75.6952 236.52 75.7499 236.52 76.2499C236.52 79.7499 236.52 79.7499 236.52 83.2499C236.49 83.8899 236.52 85.2499 236.466 88.0352C224.606 103.345 212.376 118.355 199.796 133.085C199.186 133.505 198.576 133.485 197.986 133.025C193.756 128.075 189.596 123.075 185.506 118.025Z" fill="#C49D74" stroke="#C49D74" stroke-width="0.5"/>
<path fill-rule="evenodd" clip-rule="evenodd" d="M252.755 68.6481C252.745 92.4581 252.695 116.268 252.615 140.068C252.615 140.75 252.615 140.75 250.245 140.75C247.875 140.75 244.02 140.75 244.02 140.75C244.02 140.75 244.065 63.5781 244.195 25.0981C244.275 24.2381 243.905 23.7581 243.065 23.6581C243.405 22.7581 243.965 22.6281 244.745 23.2681C245.605 24.0681 245.965 25.0581 245.835 26.2281C245.785 63.2281 245.795 100.238 245.865 137.238C245.895 138.338 246.425 139.088 247.435 139.488C248.485 139.178 249.565 138.998 250.665 138.958C250.805 138.808 250.945 138.658 251.085 138.508C250.815 137.748 250.535 136.998 250.245 136.258C250.615 135.308 250.805 134.328 250.815 133.308C250.305 132.008 250.005 130.668 249.885 129.278C250.175 128.238 250.485 127.208 250.815 126.168C250.875 117.198 250.885 108.218 250.855 99.2381C250.925 98.5381 251.035 97.8381 251.205 97.1481C250.715 96.2181 250.285 95.2681 249.885 94.2981C250.275 92.8781 250.825 91.5181 251.545 90.2181C251.745 88.4981 251.745 86.7681 251.545 85.0481C250.795 84.5981 250.245 83.9981 249.885 83.2481C249.885 81.5581 249.855 79.8781 249.785 78.1981C249.225 76.9281 248.905 75.6081 248.825 74.2381C248.795 73.6281 248.875 73.0181 249.045 72.4281C249.895 72.2081 250.735 71.9181 251.555 71.5681C251.895 70.4081 251.845 69.2581 251.415 68.1181C251.875 68.2481 252.325 68.4181 252.755 68.6481ZM127.725 132.758C127.915 107.888 127.985 83.0281 127.935 58.1581C127.885 57.4281 128.075 56.7681 128.495 56.1781C128.615 79.1881 128.705 102.198 128.745 125.218C128.745 128.248 128.725 131.268 128.665 134.298C128.665 134.738 128.545 135.128 128.285 135.468C127.825 134.628 127.645 133.728 127.725 132.758Z" fill="#C49D74"/>
<path fill-rule="evenodd" clip-rule="evenodd" d="M276.502 140.75C275.502 140.75 275.502 140.75 274.502 140.75C273.564 140.75 273.002 140.75 272.002 140.75C271.002 140.75 271.002 140.75 270.002 140.75C269.992 132.07 269.911 118.96 269.691 110.29C269.801 90.95 269.881 71.62 269.911 52.29C269.941 51.66 269.861 51.05 269.691 50.45C269.521 50.09 269.392 49.68 269.002 49.75C268.322 49.61 267.571 50.02 267.051 50.46C262.281 56.54 257.521 62.63 252.791 68.73C252.361 68.5 251.911 68.33 251.451 68.2C251.881 69.34 251.931 70.49 251.591 71.65C250.771 72 249.931 72.29 249.081 72.51C248.911 73.1 248.831 73.71 248.861 74.32C248.941 75.69 249.261 77.01 249.821 78.28C249.891 79.96 249.921 81.64 249.921 83.33C250.281 84.08 250.831 84.68 251.581 85.13C251.781 86.85 251.781 88.58 251.581 90.3C250.861 91.6 250.311 92.96 249.921 94.38C250.321 95.35 250.751 96.3 251.241 97.23C251.071 97.92 250.961 98.62 250.891 99.32C250.921 108.3 250.911 117.28 250.851 126.25C250.881 127.3 250.881 128.8 250.881 129.8C250.881 131.3 250.863 132.095 250.851 133.39C250.841 134.41 250.851 135.3 250.881 136.3C250.917 137.492 250.881 138.3 250.881 139.3C250.881 140.3 250.881 139.937 250.881 140.437C249.781 140.477 247.502 140.25 246.502 140.25C246.002 140.25 245.911 140.4 245.881 139.3C245.811 102.3 245.821 63.31 245.871 26.31C246.001 25.14 245.641 24.15 244.781 23.35C244.001 22.71 243.441 22.84 243.101 23.74C242.601 25.04 241.861 26.18 240.871 27.17C227.231 44.88 213.53 62.55 199.781 80.17C199.461 80.57 199.051 80.72 198.551 80.62C184.581 62.78 170.66 44.88 156.781 26.94C157.541 26.41 158.071 25.71 158.361 24.81C158.831 24.5 159.321 24.26 159.851 24.07C160.081 23.26 160.131 22.42 160.011 21.55C160.401 21.26 160.851 21.21 161.351 21.39C161.721 21.2 162.001 20.91 162.171 20.53C169.151 29.38 176.011 38.33 182.741 47.37C187.721 53.41 192.621 59.52 197.441 65.68C197.891 66.35 198.521 66.72 199.321 66.78C200.361 66.17 201.221 65.34 201.881 64.29C218.18 43.25 234.551 22.26 250.981 1.32C251.321 0.840001 252.002 0.25 252.281 0.25C252.502 0.25 252.741 0.714844 252.741 1.28C252.691 18.96 252.731 36.62 252.841 54.28C253.481 54.63 254.001 54.47 254.401 53.79C255.841 51.58 257.391 49.45 259.061 47.41C264.431 41.12 269.701 34.74 274.871 28.28C275.251 27.78 276.146 27.17 276.311 27.17C276.475 27.17 276.801 27.81 276.731 28.27C276.701 65.29 276.771 102.31 276.951 139.33C276.958 140.75 276.951 140.75 276.502 140.75ZM192.131 113.51C190.611 114.02 189.081 114.54 187.561 115.07C186.831 116.03 186.151 117.05 185.541 118.11C167.141 95.41 147.93 71.9 129.5 49.25C129.5 48.75 129.5 49.75 129.5 50.75C129.5 51.25 129.5 51.75 129.5 52.25C129.46 81.23 129.501 110.19 129.521 139.18C129.5 141.25 129.521 141.25 127.5 141.25C125.8 141.25 123 141.25 122 141.25C121 141.25 121 141.25 121 139.25C121.08 101.63 121.011 27.5132 121.001 27.26C120.991 27.0068 120.992 27.25 121.002 25.75C121.012 24.25 168.641 84.26 192.131 113.51ZM127.761 132.84C127.681 133.81 127.861 134.71 128.321 135.55C128.581 135.21 128.701 134.82 128.701 134.38C128.761 131.35 128.781 128.33 128.781 125.3C128.741 102.28 128.651 79.27 128.531 56.26C128.111 56.85 127.921 57.51 127.971 58.24C128.021 83.11 127.951 107.97 127.761 132.84ZM146.781 118.8C147.101 116.33 147.311 113.85 147.401 111.37C147.181 110.36 147.031 109.34 146.941 108.31C146.931 102.3 146.901 96.28 146.851 90.27C146.871 89.21 147.101 88.2 147.531 87.23C147.601 86.55 147.531 85.88 147.341 85.23C147.821 84.83 148.241 84.92 148.611 85.47C149.651 86.86 150.791 88.16 152.021 89.38C152.201 91.69 152.091 94 151.691 96.3C151.861 97.98 151.911 99.66 151.821 101.34C151.821 102.04 152.011 102.67 152.401 103.25C151.851 104.18 151.601 105.19 151.631 106.28C151.711 107.6 151.871 108.92 152.091 110.23C152.351 119.9 152.261 129.56 151.811 139.22C151.451 139.66 150.981 139.84 150.401 139.76C148.781 140.16 146.941 139.703 146.961 138.21C146.971 137.47 147.261 136.83 147.811 136.3C147.341 135.71 147.061 135.05 146.951 134.31C147.031 129.14 146.981 123.97 146.781 118.8Z" fill="#C49D74" stroke="#C49D74" stroke-width="0.5"/>
<path d="M8.142 197.514C6.45067 197.593 5.192 197.652 4.366 197.691C3.54 197.73 2.98933 197.75 2.714 197.75C2.478 197.75 2.36 197.75 2.36 197.75C1.92733 197.75 1.67167 197.514 1.593 197.042C1.51433 196.531 1.475 196.177 1.475 195.98L6.49 194.682L8.319 159.577L3.481 158.279C3.481 158.082 3.52033 157.728 3.599 157.217C3.67767 156.706 3.93333 156.45 4.366 156.45C4.366 156.45 5.05433 156.47 6.431 156.509C7.80767 156.509 10.3053 156.568 13.924 156.686L26.255 186.894L39.884 156.686C43.5027 156.568 45.961 156.509 47.259 156.509C48.557 156.47 49.206 156.45 49.206 156.45C49.6387 156.45 49.8943 156.706 49.973 157.217C50.0517 157.728 50.091 158.082 50.091 158.279L45.253 159.577L47.082 194.682L52.097 195.98C52.097 196.177 52.0577 196.531 51.979 197.042C51.9003 197.514 51.6447 197.75 51.212 197.75C51.212 197.75 50.681 197.75 49.619 197.75C48.5963 197.711 46.8067 197.632 44.25 197.514L37.583 197.75C37.111 197.75 36.8357 197.514 36.757 197.042C36.6783 196.57 36.639 196.216 36.639 195.98L42.244 194.682L41.005 162.291L26.078 194.8H24.957L11.328 162.704L9.971 194.682L15.576 195.98C15.576 196.216 15.5367 196.57 15.458 197.042C15.3793 197.514 15.104 197.75 14.632 197.75L8.142 197.514ZM60.9 195.095L64.853 195.921C64.853 196.196 64.8137 196.57 64.735 197.042C64.6563 197.514 64.3417 197.75 63.791 197.75C63.791 197.75 63.673 197.75 63.437 197.75C63.2403 197.75 62.788 197.73 62.08 197.691C61.372 197.652 60.2313 197.612 58.658 197.573L54.587 197.75C53.9183 197.75 53.584 197.16 53.584 195.98L57.006 195.095L66.977 168.899H70.812L80.901 195.036L84.323 195.98C84.323 196.177 84.2837 196.531 84.205 197.042C84.1263 197.514 83.8313 197.75 83.32 197.75C83.32 197.75 82.9857 197.75 82.317 197.75C81.6483 197.711 80.3897 197.652 78.541 197.573C76.4563 197.652 75.0797 197.711 74.411 197.75C73.7423 197.75 73.408 197.75 73.408 197.75C72.8967 197.75 72.582 197.514 72.464 197.042C72.3853 196.57 72.346 196.196 72.346 195.921L76.358 195.095L73.998 188.546L63.024 189.136L60.9 195.095ZM68.511 173.442L64.027 186.068H73.054L68.511 173.442ZM108.07 168.899L113.616 169.076L117.628 168.899C118.139 168.938 118.434 169.214 118.513 169.725C118.591 170.197 118.631 170.531 118.631 170.728L115.268 171.613L115.091 197.75H112.436L94.1456 175.035L94.6176 195.095C95.2469 195.252 96.0336 195.41 96.9776 195.567C97.9216 195.685 98.6886 195.803 99.2786 195.921C99.2786 196.196 99.2392 196.57 99.1606 197.042C99.0819 197.514 98.7672 197.75 98.2166 197.75L92.7886 197.396L88.3636 197.75C87.8522 197.75 87.5376 197.514 87.4196 197.042C87.3409 196.531 87.3016 196.157 87.3016 195.921L91.1956 195.036L91.0186 171.613L87.3016 170.787C87.3016 170.59 87.3409 170.236 87.4196 169.725C87.5376 169.174 87.8522 168.899 88.3636 168.899C88.3636 168.899 88.5012 168.899 88.7766 168.899C89.0912 168.899 89.6812 168.919 90.5466 168.958C91.4119 168.958 92.7492 168.997 94.5586 169.076L112.082 191.26L111.728 171.613L107.067 170.787C107.067 170.59 107.106 170.217 107.185 169.666C107.263 169.115 107.558 168.86 108.07 168.899ZM128.593 171.554L124.817 170.728C124.817 170.492 124.857 170.138 124.935 169.666C125.053 169.155 125.368 168.899 125.879 168.899C125.879 168.899 126.194 168.919 126.823 168.958C127.453 168.958 128.77 168.997 130.776 169.076C131.996 168.997 133.235 168.899 134.493 168.781C135.791 168.624 137.05 168.506 138.269 168.427C140.275 168.427 142.222 168.683 144.11 169.194C145.998 169.666 147.69 170.453 149.184 171.554C150.718 172.655 151.918 174.13 152.783 175.979C153.688 177.828 154.14 180.109 154.14 182.823C154.14 186.284 153.491 189.136 152.193 191.378C150.895 193.62 149.086 195.292 146.765 196.393C144.484 197.455 141.868 197.986 138.918 197.986L130.835 197.396L125.879 197.75C125.368 197.75 125.053 197.514 124.935 197.042C124.857 196.531 124.817 196.157 124.817 195.921L128.593 195.095V171.554ZM133.136 182.941L132.546 194.8C133.648 194.997 134.788 195.154 135.968 195.272C137.148 195.351 138.289 195.39 139.39 195.39C142.301 195.39 144.72 194.407 146.647 192.44C148.575 190.473 149.538 187.405 149.538 183.236C149.538 180.207 149.047 177.828 148.063 176.097C147.119 174.327 145.802 173.068 144.11 172.321C142.458 171.574 140.551 171.2 138.387 171.2C137.522 171.2 136.578 171.259 135.555 171.377C134.533 171.456 133.53 171.593 132.546 171.79L133.136 182.941ZM187.595 182.823C187.595 186.284 186.946 189.156 185.648 191.437C184.35 193.718 182.541 195.429 180.22 196.57C177.939 197.671 175.323 198.222 172.373 198.222C169.62 198.222 167.161 197.671 164.998 196.57C162.835 195.469 161.124 193.797 159.865 191.555C158.606 189.313 157.977 186.52 157.977 183.177C157.977 179.952 158.646 177.257 159.983 175.094C161.36 172.891 163.189 171.239 165.47 170.138C167.751 168.997 170.269 168.427 173.022 168.427C175.697 168.427 178.135 168.958 180.338 170.02C182.541 171.082 184.291 172.675 185.589 174.799C186.926 176.923 187.595 179.598 187.595 182.823ZM162.579 183.236C162.579 187.405 163.562 190.513 165.529 192.558C167.496 194.603 169.915 195.626 172.786 195.626C175.697 195.626 178.116 194.603 180.043 192.558C182.01 190.513 182.993 187.405 182.993 183.236C182.993 179.224 182.01 176.235 180.043 174.268C178.116 172.262 175.697 171.259 172.786 171.259C171.724 171.259 170.662 171.357 169.6 171.554C168.538 171.711 167.594 171.908 166.768 172.144C165.549 173.088 164.546 174.543 163.759 176.51C162.972 178.477 162.579 180.719 162.579 183.236ZM197.818 197.514C196.126 197.593 194.868 197.652 194.042 197.691C193.216 197.73 192.665 197.75 192.39 197.75C192.154 197.75 192.036 197.75 192.036 197.75C191.603 197.75 191.347 197.514 191.269 197.042C191.19 196.531 191.151 196.177 191.151 195.98L196.166 194.682L197.995 159.577L193.157 158.279C193.157 158.082 193.196 157.728 193.275 157.217C193.353 156.706 193.609 156.45 194.042 156.45C194.042 156.45 194.73 156.47 196.107 156.509C197.483 156.509 199.981 156.568 203.6 156.686L215.931 186.894L229.56 156.686C233.178 156.568 235.637 156.509 236.935 156.509C238.233 156.47 238.882 156.45 238.882 156.45C239.314 156.45 239.57 156.706 239.649 157.217C239.727 157.728 239.767 158.082 239.767 158.279L234.929 159.577L236.758 194.682L241.773 195.98C241.773 196.177 241.733 196.531 241.655 197.042C241.576 197.514 241.32 197.75 240.888 197.75C240.888 197.75 240.357 197.75 239.295 197.75C238.272 197.711 236.482 197.632 233.926 197.514L227.259 197.75C226.787 197.75 226.511 197.514 226.433 197.042C226.354 196.57 226.315 196.216 226.315 195.98L231.92 194.682L230.681 162.291L215.754 194.8H214.633L201.004 162.704L199.647 194.682L205.252 195.98C205.252 196.216 205.212 196.57 205.134 197.042C205.055 197.514 204.78 197.75 204.308 197.75L197.818 197.514ZM267.037 197.75L252.464 197.396L247.567 197.75C247.055 197.75 246.741 197.514 246.623 197.042C246.544 196.531 246.505 196.157 246.505 195.921L250.281 195.095V171.554L246.505 170.728C246.505 170.492 246.544 170.138 246.623 169.666C246.741 169.155 247.055 168.899 247.567 168.899C247.567 168.899 247.881 168.919 248.511 168.958C249.14 168.958 250.458 168.997 252.464 169.076L266.742 168.899C267.292 168.899 267.725 168.938 268.04 169.017C268.354 169.056 268.512 169.292 268.512 169.725L267.45 175.979C267.292 175.979 267.017 175.979 266.624 175.979C266.23 175.94 265.857 175.861 265.503 175.743C265.188 175.586 265.031 175.369 265.031 175.094V171.672L254.234 171.79L254.765 181.584H265.68V184.003L254.706 184.652L254.234 194.859H265.562L266.565 191.496C266.683 191.063 266.919 190.788 267.273 190.67C267.627 190.552 268.217 190.493 269.043 190.493L268.689 197.042C268.649 197.357 268.492 197.553 268.217 197.632C267.981 197.711 267.587 197.75 267.037 197.75ZM277.092 168.899L284.585 169.253L293.317 189.136L302.993 169.253L310.014 168.899C310.328 168.899 310.564 169.115 310.722 169.548C310.918 169.981 311.017 170.394 311.017 170.787L307.3 171.672L308.716 195.095C309.227 195.252 309.856 195.39 310.604 195.508C311.39 195.626 312.02 195.764 312.492 195.921C312.492 196.157 312.452 196.531 312.374 197.042C312.295 197.514 312 197.75 311.489 197.75L306.474 197.396L301.577 197.75C301.065 197.75 300.751 197.514 300.633 197.042C300.554 196.57 300.515 196.196 300.515 195.921L304.645 195.036L303.76 174.799L293.494 195.744H292.137L282.756 175.212L281.989 195.095C282.618 195.252 283.306 195.41 284.054 195.567C284.801 195.685 285.47 195.803 286.06 195.921C286.06 196.196 286.001 196.57 285.883 197.042C285.804 197.514 285.489 197.75 284.939 197.75L280.101 197.396L275.676 197.75C275.164 197.75 274.869 197.514 274.791 197.042C274.712 196.531 274.673 196.157 274.673 195.921L278.449 195.095L279.806 171.613L276.089 170.787C276.089 170.59 276.128 170.236 276.207 169.725C276.285 169.174 276.58 168.899 277.092 168.899ZM347.137 182.823C347.137 186.284 346.488 189.156 345.19 191.437C343.892 193.718 342.083 195.429 339.762 196.57C337.481 197.671 334.865 198.222 331.915 198.222C329.162 198.222 326.703 197.671 324.54 196.57C322.377 195.469 320.666 193.797 319.407 191.555C318.148 189.313 317.519 186.52 317.519 183.177C317.519 179.952 318.188 177.257 319.525 175.094C320.902 172.891 322.731 171.239 325.012 170.138C327.293 168.997 329.811 168.427 332.564 168.427C335.239 168.427 337.677 168.958 339.88 170.02C342.083 171.082 343.833 172.675 345.131 174.799C346.468 176.923 347.137 179.598 347.137 182.823ZM322.121 183.236C322.121 187.405 323.104 190.513 325.071 192.558C327.038 194.603 329.457 195.626 332.328 195.626C335.239 195.626 337.658 194.603 339.585 192.558C341.552 190.513 342.535 187.405 342.535 183.236C342.535 179.224 341.552 176.235 339.585 174.268C337.658 172.262 335.239 171.259 332.328 171.259C331.266 171.259 330.204 171.357 329.142 171.554C328.08 171.711 327.136 171.908 326.31 172.144C325.091 173.088 324.088 174.543 323.301 176.51C322.514 178.477 322.121 180.719 322.121 183.236ZM360.664 185.596L360.251 195.095L364.735 195.921C364.735 196.157 364.695 196.531 364.617 197.042C364.538 197.514 364.243 197.75 363.732 197.75L358.422 197.396L353.525 197.75C353.013 197.75 352.699 197.514 352.581 197.042C352.502 196.531 352.463 196.157 352.463 195.921L356.239 195.095V171.554L352.463 170.728C352.463 170.492 352.502 170.138 352.581 169.666C352.699 169.155 353.013 168.899 353.525 168.899C353.525 168.899 353.839 168.919 354.469 168.958C355.098 168.958 356.416 168.997 358.422 169.076L364.44 168.899C367.39 168.899 369.691 169.686 371.343 171.259C372.995 172.832 373.821 174.72 373.821 176.923C373.821 178.26 373.368 179.617 372.464 180.994C371.559 182.331 370.163 183.374 368.275 184.121L376.948 198.104L373.939 198.989L364.145 185.065L360.664 185.596ZM360.782 182.764L362.906 182.823C365.226 182.744 366.977 182.095 368.157 180.876C369.337 179.617 369.927 178.28 369.927 176.864C369.927 175.487 369.415 174.229 368.393 173.088C367.409 171.908 365.856 171.298 363.732 171.259L360.251 171.554L360.782 182.764ZM385.105 171.554L381.329 170.728C381.329 170.492 381.368 170.138 381.447 169.666C381.565 169.155 381.88 168.899 382.391 168.899C382.391 168.899 382.706 168.919 383.335 168.958C383.964 168.958 385.282 168.997 387.288 169.076C389.137 168.997 390.395 168.958 391.064 168.958C391.733 168.919 392.067 168.899 392.067 168.899C392.578 168.899 392.873 169.155 392.952 169.666C393.031 170.138 393.07 170.472 393.07 170.669L389.294 171.554V195.095L393.07 195.921C393.07 196.157 393.031 196.531 392.952 197.042C392.873 197.514 392.578 197.75 392.067 197.75L387.288 197.396L382.391 197.75C381.88 197.75 381.565 197.514 381.447 197.042C381.368 196.531 381.329 196.157 381.329 195.921L385.105 195.095V171.554Z" fill="white"/>
</svg>
