<svg width="157" height="142" viewBox="0 0 157 142" fill="none" xmlns="http://www.w3.org/2000/svg" shape-rendering="geometricPrecision">
  <path fill-rule="evenodd" clip-rule="evenodd" d="M22 84C22.5 81.5 24 80 26.5 80.5C29 81 31.5 83 33.5 86C34 87 34.5 89 34.5 91C34.5 108 34.5 125 34.5 141C34 142 32 142.5 29 142C26 141.5 24 140 24 138C24 119 24 101 22 84ZM27 117C27 123 27 129 26.5 135C26.5 136 27 137 28 137.5C29.5 138 31 138 32 137C32.5 136 32.5 135 32 133.5C31.5 117 32 101 32 89C32 87.5 31.5 86 30.5 85C29.5 84.5 28.5 84.5 27.5 85.5C26.5 87 26.5 89 27 91C27.5 99 27.5 108 27 117Z" fill="#C49D74"/>
  <path fill-rule="evenodd" clip-rule="evenodd" d="M42 20C41.5 21 41 22 40.5 22.5C39.5 22 38.5 22 38 22.5C38.5 24 38.5 25.5 38 27C37 27.5 36 28 35 28.5C34 30 33 31 32 32C31 31 30 30 29 29C28.5 29.5 28.5 30 28.5 31C28.5 40 28.5 50 28.5 59C28.5 60 28 60.5 27 60.5C24 58.5 21.5 55.5 19.5 52.5C18.5 51 18 49.5 18 48C18 34 18 20 18.5 6C19 3 21.5 2 24 5C29 11 34 17 42 20ZM68 119C69 117.5 70 116 71.5 115C73.5 114.5 75.5 114 77.5 113.5C79.5 115.5 81.5 117.5 83.5 119.5C84 120 85 120 85.5 119.5C93 109 101 98.5 109 88C112 84.5 114.5 80.5 117 76.5C117.5 75.5 118 75.5 118.5 76C118.5 80 118.5 84 118.5 88C118.5 88.5 118 89.5 117.5 90C106 105 94 120 82 135C81.5 135.5 80.5 135.5 80 135C76 130 72 125 68 119Z" fill="#C49D74"/>
  <path fill-rule="evenodd" clip-rule="evenodd" d="M134 68C134 92 134 117 133 141C132.5 142.5 131 142.5 129.5 142.5C128 142.5 124 142.5 123.5 141.5C123 140.5 123.5 64 123.5 26C124 25 124.5 25 125 25.5C125 36 125 46 125 57C126 57.5 126.5 57 127 56C127 46 127 36 126.5 27C127 26.5 128 27 128.5 28C129.5 42 129.5 57 129 72C129 72.5 129.5 73 130 73C130.5 73 131 72.5 131.5 71.5C132 66 132.5 60.5 133 55C133.5 56 134 57 134 58C134 61 134 64.5 134 68ZM7.5 133C7.5 108 7.5 83 7.5 58.5C7.5 58 7.5 57.5 8 57C8 80 8.5 103 8.5 126C8.5 129 8 132 7.5 135C7.5 134.5 7.5 134 7.5 133Z" fill="#C49D74"/>
  <path fill-rule="evenodd" clip-rule="evenodd" d="M157 141.5C156.5 140.5 155.5 140 154.5 139.5C153 139 151.5 139 150 138.5C148.5 137.5 147.5 136 147.5 134C147.5 125 147 116 146.5 108C146.5 89 147 70 147.5 51C148 50 148 49 147.5 48.5C146.5 48 145.5 48 144.5 49C140 55 135 61.5 130 68C129 68 128 67.5 127.5 67C128 67 128.5 67.5 129 68C130.5 70 131 72.5 130.5 75C131 76 131.5 76.5 132 76.5C132.5 76 132.5 75 132 74C132.5 73 132.5 72 132 71C132 73 132 75 132.5 77C132.5 79 133 81 133.5 83C133.5 85 133.5 87 133.5 89C134 90 134.5 90.5 135 90.5C135 92 135 93.5 135 95C134.5 96 134 97 133.5 97.5C134 98 134.5 98.5 135 99C134.5 100 134 100.5 133.5 101C134.5 102 135 103 134.5 104C133 108 131 112 129 116C129 123 128.5 130 128 137C128 138 128.5 139 129.5 139.5C130.5 140 132 140.5 133 141H125.5C125 141 124.5 140.5 124.5 139.5C124.5 102 124.5 65 124.5 28C124.5 27 124 26.5 123.5 27C123 27.5 122.5 28.5 122 29.5C108 47 94 65 80 82.5C79.5 83 79 83 78.5 82.5C65 65 51 47 37 29.5C36 28 35 27 34 26C34.5 25.5 35 24.5 35.5 24C37 24.5 38.5 24.5 39.5 24C40 23.5 40 22.5 39.5 21.5C40 21.5 40.5 21.5 41 22C42 21 43 20 44 19C46.5 22.5 49 26 51.5 29.5C55 33.5 58.5 37.5 62 41.5C66 46 70 50.5 73.5 55C74 56 74.5 56 75 55.5C75.5 55 75.5 54 75 53C70 47 65 41 60 35.5C59.5 35 59 34.5 58.5 34.5C55 39 51.5 43 48 47C52 52 56 57 60 62C62.5 65.5 65 69 67.5 72C68.5 73 69.5 73.5 70 73C70.5 72.5 70 72 69.5 71C68.5 69.5 67.5 68 66.5 67C67 66 67.5 65.5 68 65.5C68.5 65.5 68.5 66 68.5 66.5C69.5 68 70.5 69.5 71 71C100 111 128 131 133 138C133.5 139 134 139.5 134.5 139.5C135 139.5 135 139 134.5 138.5C130 134 124 128 117 121C116.5 120.5 116 120 115.5 119.5C114 118 112.5 116.5 111 115C111.5 114 111.5 113.5 111 113.5C110.5 113.5 110 114 109.5 115C108 117 106.5 119 105 121C104 122.5 103 124 101.5 125.5C103 127.5 104.5 129.5 106 131.5C106.5 132 107 132.5 107.5 132.5C109 133.5 110.5 134.5 112 135.5C112.5 136 113 136 113.5 135.5C114 135 113.5 134.5 113 134C112.5 133.5 112 133 111.5 132.5C111 132 110.5 131.5 110 131C110.5 130.5 111 130 111.5 130C112 130 112.5 130.5 113 131.5C115 134 117 136.5 119 139C119.5 139.5 120 140 120.5 140C121.5 140.5 122.5 141 123.5 141.5H119C118 141 117 140.5 116 140C114 138 112 136 110 134C109 133 108 132 107.5 131.5C106.5 131 105.5 131 105 132C104 133 103 134.5 102.5 136C102 137 101.5 137.5 101 137.5C96 132 91 126.5 86.5 121C86 120.5 85.5 120 85 119.5C84 118.5 83 118 82.5 118.5C82 119 82.5 119.5 83 120Z" fill="#C49D74"/>
  <path fill-rule="evenodd" clip-rule="evenodd" d="M149 50C149.5 50.5 149.5 51 149.5 52C149.5 71 149.5 90 149.5 110C150 119 150.5 128 150.5 137C151 139 152 140 153 141C153 141.5 153 141.5 152.5 141.5H150.5C150 141.5 149.5 141 149 140C148.5 139.5 148 138.5 148 137.5C148 108.5 148 79.5 148 50.5C148 49.5 148.5 49 149 50Z" fill="#C49D74"/>
</svg>
