<svg width="56" height="56" viewBox="0 0 56 56" fill="none" xmlns="http://www.w3.org/2000/svg">
<rect width="56" height="56" rx="8" fill="#D5F5FF"/>
<g clip-path="url(#clip0_17_3385)">
<path d="M39.4001 16.6008H37.5001V15.6508C37.5001 14.0792 38.7785 12.8008 40.3501 12.8008H41.3001V14.7008H40.3501C39.826 14.7008 39.4001 15.1266 39.4001 15.6508V16.6008Z" fill="#FF99FF"/>
<path d="M18.5001 15.6508V16.6008H16.6001V15.6508C16.6001 15.1266 16.1742 14.7008 15.6501 14.7008H14.7001V12.8008H15.6501C17.2217 12.8008 18.5001 14.0792 18.5001 15.6508Z" fill="#FF99FF"/>
<path d="M31.8001 18.5L28.0001 20.4L24.2001 18.5H14.7001V26.1H16.6001L28.0001 24.2L39.4001 26.1H41.3001V18.5H31.8001Z" fill="#D580FF"/>
<path d="M24.2 18.5008L22.1101 17.3038L24.0101 13.9978L26.1 15.2137V12.8008H29.9V15.2137L31.99 13.9978L33.89 17.3038L31.8 18.5008L28 20.4008L24.2 18.5008Z" fill="#FF99FF"/>
<path d="M39.4001 26.1012V43.2012H16.6001V26.1012L28.0001 24.2012L39.4001 26.1012Z" fill="#FF99FF"/>
<path d="M39.4001 24.2V26.1H16.6001V24.2H26.1001V21.7869L24.0102 23.003L22.1102 19.697L24.2001 18.5H31.8001L33.89 19.697L31.99 23.003L29.9001 21.7869V24.2H39.4001Z" fill="#9966FF"/>
</g>
<defs>
<clipPath id="clip0_17_3385">
<rect width="30.4" height="30.4" fill="white" transform="translate(12.8 12.8008)"/>
</clipPath>
</defs>
</svg>
