<svg width="76" height="78" viewBox="0 0 76 78" fill="none" xmlns="http://www.w3.org/2000/svg">
<rect width="76" height="78" rx="8" fill="#EAFAFF"/>
<path d="M55.5143 44.8118C55.5143 53.5953 48.0085 60.7171 38.7571 60.7171C29.5058 60.7171 22 53.5953 22 44.8118C22 35.4348 33.0178 21.2959 37.1862 16.2897C37.2741 16.1678 37.3991 16.0775 37.5424 16.0323C37.6858 15.9871 37.84 15.9894 37.9819 16.0388C38.1239 16.0882 38.2462 16.1821 38.3305 16.3066C38.4148 16.4311 38.4567 16.5794 38.4499 16.7296C38.0938 20.9189 38.3382 29.884 45.837 34.3525C45.9871 34.4542 46.1707 34.4936 46.3492 34.4623C46.5277 34.431 46.6871 34.3316 46.7936 34.185C47.7335 32.8004 48.2767 31.1851 48.3646 29.5139C48.3727 29.3604 48.4313 29.2139 48.5313 29.0971C48.6312 28.9803 48.7669 28.8998 48.9172 28.868C49.0676 28.8361 49.2243 28.8548 49.3629 28.9211C49.5016 28.9874 49.6145 29.0976 49.6842 29.2346C52.875 34.4852 55.5143 40.2175 55.5143 44.8118Z" fill="#FF8E26"/>
<path d="M28.2837 50.7745C28.2837 56.2694 32.9757 60.717 38.7569 60.717C44.5381 60.717 49.2301 56.2694 49.2301 50.7745C49.2301 45.2795 43.1626 37.1523 40.265 33.5914C40.1782 33.4662 40.0528 33.3728 39.908 33.3255C39.7632 33.2782 39.6068 33.2796 39.4629 33.3294C39.3189 33.3793 39.1951 33.4748 39.1105 33.6016C39.0259 33.7283 38.9851 33.8792 38.9943 34.0313C39.099 36.8242 38.6103 41.5511 34.5606 44.1205C34.482 44.1726 34.3936 44.2082 34.3007 44.2252C34.2079 44.2421 34.1126 44.2401 34.0206 44.2192C33.9286 44.1983 33.8418 44.159 33.7654 44.1037C33.689 44.0483 33.6246 43.978 33.5762 43.8971C33.2242 43.2943 32.9874 42.6314 32.8779 41.9421C32.862 41.7904 32.7968 41.648 32.6924 41.5369C32.5879 41.4257 32.4499 41.3518 32.2995 41.3265C32.1491 41.3011 31.9945 41.3257 31.8594 41.3966C31.7243 41.4674 31.6161 41.5805 31.5513 41.7186C29.715 44.8117 28.2837 48.1003 28.2837 50.7745Z" fill="#FFDA00"/>
<path d="M44.5176 55.2499C44.5023 55.9883 44.3407 56.7163 44.0421 57.3919C43.7436 58.0674 43.314 58.677 42.7783 59.1855C42.2426 59.6939 41.6114 60.091 40.9212 60.3539C40.231 60.6168 39.4955 60.7402 38.7573 60.7169C38.0191 60.7402 37.2837 60.6168 36.5935 60.3539C35.9033 60.091 35.2721 59.6939 34.7364 59.1855C34.2007 58.677 33.7711 58.0674 33.4726 57.3919C33.174 56.7163 33.0124 55.9883 32.9971 55.2499C32.9971 52.5478 35.6503 48.7076 37.3609 46.5153C37.4444 46.3952 37.5635 46.3045 37.7013 46.2557C37.8392 46.207 37.9889 46.2028 38.1293 46.2437C38.2696 46.2845 38.3936 46.3685 38.4838 46.4836C38.5739 46.5987 38.6256 46.7392 38.6317 46.8853C38.6343 47.7357 38.8233 48.5752 39.1851 49.3448C39.547 50.1144 40.0731 50.7954 40.7263 51.3399C40.8117 51.4134 40.9135 51.4651 41.0232 51.4907C41.1329 51.5163 41.2471 51.515 41.3562 51.4869C41.4652 51.4588 41.5659 51.4047 41.6495 51.3292C41.7331 51.2538 41.7973 51.1592 41.8365 51.0536C41.8782 50.9221 41.9579 50.8059 42.0656 50.7197C42.1733 50.6334 42.3041 50.581 42.4415 50.5691C42.579 50.5571 42.7169 50.5862 42.8379 50.6525C42.9588 50.7189 43.0574 50.8196 43.1212 50.9419C43.9158 52.2496 44.394 53.7248 44.5176 55.2499Z" fill="white"/>
</svg>
