<svg width="76" height="78" viewBox="0 0 76 78" fill="none" xmlns="http://www.w3.org/2000/svg">
<rect width="76" height="78" rx="8" fill="#EAFAFF"/>
<path d="M30.2505 43.5928V53.0514C30.2505 57.6369 33.9555 61.3749 38.5005 61.3749C43.0455 61.3749 46.7505 57.6369 46.7505 53.0514V43.5928H30.2505Z" fill="#5362E7"/>
<path d="M38.6802 28.7155C38.6802 29.5479 39.3552 30.2289 40.1802 30.2289H46.7502V27.2021H40.1802C39.3552 27.2021 38.6802 27.868 38.6802 28.7155Z" fill="#5362E7"/>
<path d="M38.6802 36.903C38.6802 37.7505 39.3552 38.4164 40.1802 38.4164H46.7502V35.3896H40.1802C39.3552 35.3896 38.6802 36.0707 38.6802 36.903Z" fill="#5362E7"/>
<path d="M47.5 19H45.25H31.75H29.5C28.672 19 28 19.678 28 20.5134C28 21.3488 28.672 22.0267 29.5 22.0267H30.25V43.5923H46.75V38.4166H40.18C39.355 38.4166 38.68 37.7507 38.68 36.9032C38.68 36.0709 39.355 35.3898 40.18 35.3898H46.75V30.2292H40.18C39.355 30.2292 38.68 29.5482 38.68 28.7159C38.68 27.8684 39.355 27.2025 40.18 27.2025H46.75V22.0267H47.5C48.3295 22.0267 49 21.3488 49 20.5134C49 19.678 48.3295 19 47.5 19Z" fill="#CACFFD"/>
</svg>
