<svg width="158" height="118.5" viewBox="0 0 158 118.5" fill="none" xmlns="http://www.w3.org/2000/svg"><path fill-rule="evenodd" clip-rule="evenodd" d="M86.41 1.617a0.731 0.731 0 0 0 0.36 0.154c0.085 0 0.178 0.023 0.209 0.053s0.171 0.094 0.313 0.146c0.142 0.05 0.509 0.183 0.816 0.296 0.478 0.173 1.829 0.632 3.156 1.071 1.756 0.582 3.453 1.216 3.976 1.485 0.145 0.073 0.3 0.133 0.347 0.133 0.234 0 3.665 1.675 4.583 2.235 0.219 0.135 0.494 0.293 0.612 0.351 0.707 0.351 1.053 0.541 1.624 0.888 0.351 0.214 0.819 0.477 1.039 0.585s0.49 0.274 0.6 0.367 0.398 0.287 0.639 0.429c0.241 0.143 0.528 0.336 0.638 0.432a0.878 0.878 0 0 0 0.252 0.171c0.05 0 1.091 0.74 1.346 0.957 0.066 0.056 0.354 0.281 0.639 0.5 0.869 0.666 0.907 0.696 1.165 0.93 0.138 0.126 0.462 0.398 0.721 0.606 1.165 0.936 2.952 2.652 3.908 3.752 0.164 0.189 0.325 0.358 0.358 0.38 0.035 0.02 0.224 0.241 0.421 0.492 0.199 0.25 0.489 0.591 0.647 0.758s0.421 0.492 0.587 0.721 0.329 0.427 0.361 0.442 0.059 0.073 0.059 0.132c0 0.06 0.034 0.108 0.073 0.108s0.241 0.263 0.451 0.588c0.209 0.322 0.639 0.963 0.957 1.421 0.591 0.854 0.683 1.004 1.037 1.679 0.113 0.214 0.256 0.432 0.322 0.483 0.064 0.051 0.117 0.117 0.117 0.149s0.256 0.477 0.569 0.99c0.598 0.982 1.052 1.858 1.548 2.99 0.164 0.375 0.38 0.851 0.477 1.061 0.098 0.209 0.224 0.515 0.279 0.682s0.149 0.405 0.209 0.531c0.161 0.341 0.584 1.454 0.746 1.975 0.08 0.252 0.272 0.815 0.427 1.249 0.347 0.973 0.983 3.45 1.138 4.431l0.228 1.404c0.436 2.671 0.598 4.967 0.617 8.753 0.015 2.534 0.057 3.273 0.19 3.24 0.044 -0.012 0.085 -0.08 0.088 -0.152a1.317 1.317 0 0 1 0.088 -0.322c0.146 -0.345 0.351 -1.54 0.421 -2.462 0.088 -1.147 0.047 -4.342 -0.073 -5.837 -0.152 -1.902 -0.579 -4.447 -1.093 -6.519 -0.473 -1.905 -1.568 -5.267 -2.212 -6.784 -1.385 -3.276 -2.25 -4.902 -4.009 -7.546 -0.411 -0.622 -2.355 -3.21 -2.97 -3.951a54.13 54.13 0 0 0 -1.697 -1.919 14.63 14.63 0 0 1 -0.442 -0.493c-0.597 -0.683 -2.933 -2.911 -3.754 -3.581 -0.749 -0.612 -0.91 -0.743 -1.639 -1.349 -0.65 -0.541 -2.721 -1.985 -3.804 -2.652l-1.482 -0.917a5.852 5.852 0 0 0 -0.575 -0.332c-0.025 0 -0.395 -0.211 -0.827 -0.468 -1.574 -0.944 -4.866 -2.418 -7.078 -3.175a43.889 43.889 0 0 1 -1.094 -0.385c-0.271 -0.108 -1.434 -0.47 -2.117 -0.658 -1.22 -0.336 -1.543 -0.413 -2.196 -0.512a32.185 32.185 0 0 1 -1.042 -0.177 10.241 10.241 0 0 0 -0.913 -0.117L86.205 1.463zM66.702 10.724c-1.099 0.032 -2.142 0.092 -2.317 0.132 -0.37 0.085 -0.336 0.088 2.499 0.132 0.891 0.015 1.655 0.047 1.7 0.073s0.452 0.513 0.906 1.083c0.454 0.571 1.103 1.327 1.442 1.682 0.341 0.354 0.851 0.917 1.134 1.249 0.731 0.862 3.78 3.839 3.874 3.783a0.512 0.512 0 0 0 0.146 -0.209c0.078 -0.19 -0.018 -0.355 -0.556 -0.958 -0.629 -0.707 -3.672 -4.052 -4.502 -4.949 -0.432 -0.468 -1.037 -1.131 -1.346 -1.475 -0.458 -0.512 -0.6 -0.623 -0.772 -0.614 -0.117 0.007 -1.11 0.04 -2.209 0.072m21.925 0.41a1.024 1.024 0 0 1 -0.339 0.111c-0.076 0.001 -0.139 0.044 -0.139 0.091 0 0.05 -0.022 0.069 -0.048 0.044 -0.095 -0.091 -0.802 0.265 -1.137 0.573 -0.424 0.389 -0.939 1.207 -1.185 1.881 -0.146 0.399 -0.202 0.78 -0.265 1.82 -0.085 1.409 -0.154 23.189 -0.073 23.144 0.025 -0.016 0.252 -0.336 0.502 -0.71l0.454 -0.679 -0.009 -2.794c-0.007 -2.819 -0.04 -3.463 -0.167 -3.388 -0.038 0.022 -0.069 0.007 -0.069 -0.034 0 -0.04 0.044 -0.094 0.099 -0.117q0.102 -0.045 0.012 -0.085c-0.063 -0.029 -0.08 -0.439 -0.06 -1.346 0.029 -1.35 0.044 -1.536 0.123 -1.609 0.026 -0.026 0.053 -2.867 0.059 -6.314 0.012 -5.827 0.053 -7.198 0.236 -7.783 0.04 -0.126 0.19 -0.468 0.336 -0.759 0.334 -0.661 1.27 -1.576 1.895 -1.852q0.421 -0.186 0.317 -0.244c-0.146 -0.088 -0.315 -0.073 -0.541 0.05M67.267 13.579c-0.025 0.022 -0.044 3.362 -0.044 7.42v7.378h0.274c0.269 0 0.383 -0.08 0.417 -0.296a0.263 0.263 0 0 1 0.082 -0.152 0.293 0.293 0 0 0 0.086 -0.14c0.075 -0.357 0.092 -3.281 0.047 -8.251l-0.053 -5.77 -0.382 -0.116c-0.211 -0.064 -0.402 -0.097 -0.427 -0.073m15.456 0.385c-0.157 0.101 -0.338 0.241 -0.404 0.313s-0.432 0.449 -0.813 0.841c-0.38 0.392 -1.129 1.208 -1.663 1.813 -0.913 1.031 -1.381 1.581 -3.025 3.555 -0.369 0.442 -0.72 0.831 -0.78 0.863 -0.059 0.035 -0.108 0.098 -0.108 0.143q-0.003 0.083 0.107 -0.003c0.059 -0.047 0.132 -0.063 0.161 -0.035 0.029 0.029 0.241 -0.136 0.471 -0.364 1.612 -1.595 2.155 -2.145 2.575 -2.606 0.263 -0.29 0.642 -0.701 0.84 -0.914 0.568 -0.612 3.233 -3.678 3.261 -3.75 0.048 -0.126 -0.341 -0.037 -0.62 0.143m26.085 0.176c0.566 0.512 0.614 0.56 1.66 1.57 0.478 0.464 0.9 0.843 0.938 0.843s0.069 0.051 0.069 0.114a0.117 0.117 0 0 0 0.119 0.113c0.066 0 0.12 0.05 0.12 0.11s0.066 0.154 0.146 0.209a0.629 0.629 0 0 1 0.2 0.241c0.032 0.079 0.08 0.121 0.11 0.095s0.138 0.028 0.244 0.121l0.193 0.171 -0.101 -0.209c-0.054 -0.114 -0.146 -0.208 -0.205 -0.208s-0.108 -0.069 -0.108 -0.152 -0.053 -0.151 -0.117 -0.151 -0.143 -0.088 -0.171 -0.195c-0.032 -0.123 -0.091 -0.178 -0.161 -0.154q-0.107 0.035 -0.11 -0.11 0.003 -0.152 -0.173 -0.149c-0.097 0 -0.151 -0.02 -0.123 -0.047 0.079 -0.076 -0.097 -0.332 -0.227 -0.332a0.117 0.117 0 0 1 -0.117 -0.114c0 -0.061 -0.037 -0.113 -0.08 -0.113s-0.079 -0.051 -0.079 -0.114 -0.06 -0.114 -0.133 -0.114 -0.113 -0.019 -0.088 -0.044c0.059 -0.056 -0.228 -0.335 -0.344 -0.335 -0.045 0 -0.06 -0.037 -0.031 -0.08s-0.023 -0.099 -0.114 -0.123c-0.092 -0.022 -0.151 -0.066 -0.132 -0.098 0.02 -0.029 -0.105 -0.117 -0.279 -0.192s-0.317 -0.181 -0.317 -0.238c0 -0.056 -0.073 -0.102 -0.164 -0.102s-0.143 -0.034 -0.116 -0.076 -0.034 -0.108 -0.135 -0.146c-0.102 -0.04 -0.155 -0.073 -0.12 -0.076 0.108 -0.007 -0.139 -0.208 -0.326 -0.263 -0.11 -0.034 -0.012 0.092 0.271 0.35m5.782 5.975c0 0.042 0.056 0.076 0.124 0.076s0.108 0.026 0.088 0.059c-0.022 0.031 0.007 0.117 0.064 0.19 0.098 0.126 0.105 0.126 0.145 -0.016 0.028 -0.102 -0.019 -0.187 -0.146 -0.268 -0.221 -0.136 -0.275 -0.145 -0.275 -0.041m0.401 0.578c0 0.048 0.053 0.129 0.117 0.18 0.067 0.053 0.121 0.135 0.121 0.183s0.063 0.14 0.139 0.206c0.246 0.211 0.344 0.35 0.876 1.23 0.123 0.205 0.339 0.474 0.483 0.6 0.142 0.127 0.259 0.296 0.259 0.376s0.108 0.293 0.24 0.475c0.132 0.181 0.238 0.366 0.238 0.411 0 0.044 0.034 0.082 0.076 0.082s0.099 0.076 0.13 0.17 0.184 0.358 0.341 0.588c0.157 0.228 0.278 0.439 0.271 0.468 -0.007 0.026 0.073 0.129 0.183 0.227 0.107 0.097 0.196 0.233 0.198 0.3 0 0.067 0.061 0.17 0.136 0.227 0.117 0.092 0.127 0.088 0.079 -0.035a1.317 1.317 0 0 1 -0.054 -0.369c0 -0.192 -0.026 -0.222 -0.161 -0.19 -0.176 0.044 -0.206 -0.022 -0.069 -0.152 0.067 -0.064 0.045 -0.139 -0.082 -0.294a2.926 2.926 0 0 1 -0.317 -0.516 2.341 2.341 0 0 0 -0.389 -0.556c-0.133 -0.135 -0.237 -0.304 -0.231 -0.379q0.012 -0.133 -0.136 -0.11c-0.108 0.019 -0.136 -0.012 -0.104 -0.113 0.023 -0.076 -0.026 -0.257 -0.111 -0.404s-0.176 -0.325 -0.205 -0.398c-0.028 -0.073 -0.082 -0.132 -0.121 -0.132s-0.07 -0.066 -0.07 -0.143 -0.054 -0.164 -0.12 -0.187c-0.066 -0.025 -0.12 -0.079 -0.12 -0.123 0 -0.108 -0.533 -0.819 -0.768 -1.027 -0.105 -0.092 -0.19 -0.218 -0.19 -0.279 0 -0.176 -0.263 -0.366 -0.399 -0.287 -0.073 0.044 -0.138 0.035 -0.176 -0.023q-0.064 -0.094 -0.063 -0.006m-59.747 0.816c-0.203 0.051 -0.319 0.114 -0.268 0.145 0.051 0.029 0.158 0.034 0.238 0.009 0.218 -0.064 -0.219 0.278 -1.03 0.808 -0.383 0.25 -0.79 0.572 -0.904 0.714l-0.208 0.257 0.332 0.743c0.576 1.295 2.073 3.767 2.829 4.677 0.132 0.158 0.373 0.14 0.892 -0.066 0.256 -0.102 0.281 -0.132 0.176 -0.212 -0.157 -0.12 -0.448 -0.54 -1.222 -1.76 -0.737 -1.165 -1.096 -1.832 -1.355 -2.525 -0.334 -0.898 -0.335 -0.966 -0.015 -1.404 0.326 -0.451 0.859 -0.895 1.425 -1.189l0.395 -0.205 -0.256 -0.048c-0.344 -0.066 -0.606 -0.051 -1.033 0.059m42.221 0.111c-0.038 0.056 0.015 0.088 0.146 0.088 0.205 0 1.138 0.253 1.456 0.395 0.097 0.044 0.307 0.053 0.48 0.023 0.168 -0.029 0.49 -0.064 0.717 -0.076s0.534 -0.061 0.686 -0.11 0.339 -0.063 0.417 -0.035c0.08 0.029 0.167 0.01 0.203 -0.045 0.037 -0.057 0.105 -0.072 0.167 -0.037 0.056 0.034 0.293 0.053 0.527 0.044 0.234 -0.012 0.424 0.01 0.424 0.047 0 0.107 1.463 0.173 1.573 0.07 0.031 -0.029 -0.003 -0.11 -0.076 -0.178 -0.107 -0.102 -0.336 -0.13 -1.233 -0.146 -0.606 -0.012 -2.076 -0.044 -3.265 -0.073 -1.59 -0.04 -2.18 -0.029 -2.222 0.034m3.233 1.132c-1.097 0.821 -2.326 2.39 -3.347 4.278 -0.249 0.461 -0.533 0.977 -0.629 1.15 -0.187 0.334 -0.231 0.576 -0.105 0.576 0.044 0 0.057 0.099 0.029 0.227 -0.029 0.146 -0.015 0.228 0.042 0.228 0.05 0 0.089 -0.069 0.089 -0.152s0.034 -0.151 0.075 -0.151 0.099 -0.073 0.129 -0.161q0.054 -0.167 0.114 -0.072c0.064 0.099 0.23 -0.143 0.77 -1.132 0.171 -0.313 0.331 -0.585 0.353 -0.607 0.023 -0.02 0.217 -0.328 0.43 -0.682 0.925 -1.532 2.007 -2.706 3.006 -3.261 0.306 -0.17 0.556 -0.317 0.556 -0.328s-0.234 -0.015 -0.522 -0.01c-0.288 0.006 -0.541 -0.018 -0.565 -0.053 -0.063 -0.097 -0.129 -0.073 -0.424 0.149m-33.372 12.024 0.048 3.973 0.288 0.543c0.24 0.454 0.307 0.527 0.404 0.452 0.097 -0.078 0.116 -0.568 0.116 -3.101 0 -1.656 -0.025 -3.584 -0.053 -4.286 -0.059 -1.419 -0.111 -1.554 -0.6 -1.554h-0.252zm8.883 2.641c-0.064 7.268 0.012 11.183 0.219 11.382 0.132 0.123 0.117 0.149 0.702 -1.178l0.222 -0.502 -0.035 -7.154c-0.019 -3.935 -0.056 -7.566 -0.079 -8.07l-0.045 -0.914 -0.408 -0.018a2.341 2.341 0 0 1 -0.462 -0.05c-0.029 -0.019 -0.08 2.908 -0.114 6.503m19.406 -6.305c-0.029 0.047 -0.127 0.066 -0.218 0.044 -0.117 -0.029 -0.23 0.029 -0.392 0.2 -0.291 0.307 -1.4 1.956 -2.175 3.23 -0.736 1.211 -0.954 1.543 -2.183 3.319 -0.538 0.777 -0.979 1.425 -0.979 1.438s-0.227 0.358 -0.505 0.765c-0.278 0.405 -0.61 0.907 -0.736 1.116s-0.259 0.391 -0.294 0.405a0.117 0.117 0 0 0 -0.063 0.097c0 0.04 -0.367 0.609 -0.816 1.264s-1.021 1.565 -1.271 2.025l-0.454 0.834 -0.047 1.706c-0.026 0.938 -0.067 6.156 -0.094 11.597l-0.047 9.893 0.174 0.531c0.556 1.712 1.927 2.92 4.298 3.789 0.699 0.256 1.181 0.322 1.59 0.219 0.193 -0.05 0.17 -0.181 -0.032 -0.181 -0.203 0 -1.407 -0.563 -1.953 -0.914 -1.361 -0.872 -2.256 -2.054 -2.677 -3.527 -0.143 -0.502 -0.149 -0.999 -0.136 -11.872 0.009 -8.465 0.037 -11.417 0.107 -11.619 0.124 -0.36 0.508 -0.985 1.639 -2.677 0.395 -0.591 0.808 -1.213 0.917 -1.38s0.411 -0.619 0.67 -1.004c1.726 -2.567 3.99 -6.103 5.041 -7.878 0.313 -0.528 0.607 -1.007 0.652 -1.061 0.116 -0.139 0.186 -0.442 0.102 -0.442 -0.037 0 -0.091 0.038 -0.12 0.083m7.073 0.079c-0.102 0.069 -0.098 0.075 0.019 0.038 0.078 -0.023 0.14 -0.012 0.14 0.026 0 0.14 0.26 0.31 0.407 0.265 0.11 -0.032 0.139 -0.015 0.107 0.064q-0.042 0.11 0.161 0.158c0.113 0.026 0.205 0.082 0.205 0.123s0.038 0.075 0.085 0.075 0.202 0.085 0.347 0.19c0.143 0.102 0.303 0.19 0.354 0.19 0.05 0 0.136 0.067 0.19 0.151s0.127 0.152 0.161 0.152 0.124 0.051 0.2 0.117c0.189 0.157 1.426 1.004 1.697 1.16 0.117 0.069 0.459 0.336 0.758 0.598 0.297 0.26 0.572 0.474 0.61 0.474 0.04 0 0.07 0.051 0.07 0.113 0 0.063 0.047 0.114 0.102 0.114 0.139 0 0.955 0.79 0.885 0.857 -0.031 0.029 -0.015 0.053 0.034 0.053q0.161 -0.003 0.783 0.727c0.298 0.348 0.417 0.483 0.743 0.827 0.24 0.256 1.287 1.612 1.287 1.668 0 0.029 0.102 0.178 0.227 0.331 0.294 0.357 1.058 1.624 1.448 2.399 0.702 1.402 1.419 3.643 1.636 5.119 0.127 0.875 0.171 2.436 0.088 3.142 -0.029 0.25 -0.064 0.591 -0.08 0.758 -0.067 0.752 -0.366 2.063 -0.578 2.54 -0.066 0.146 -0.184 0.454 -0.263 0.682 -0.263 0.755 -1.053 2.385 -1.394 2.882 -0.799 1.156 -1.083 1.617 -1.083 1.745 0 0.222 0.088 0.184 0.494 -0.212 1.592 -1.554 2.768 -3.687 3.375 -6.121 0.338 -1.356 0.396 -1.897 0.395 -3.676 -0.001 -1.422 -0.031 -1.851 -0.176 -2.585 -0.565 -2.873 -1.543 -4.895 -3.812 -7.881a22.822 22.822 0 0 0 -5.299 -4.967c-1.687 -1.128 -2.322 -1.5 -3.485 -2.041l-0.679 -0.317c-0.022 -0.01 -0.094 0.018 -0.161 0.063m-44.692 0.094c-0.329 0.076 -0.395 0.117 -0.372 0.241 0.015 0.082 0.088 0.217 0.165 0.3 0.139 0.152 0.726 1.039 0.829 1.251 0.029 0.063 0.341 0.541 0.691 1.062s0.825 1.235 1.059 1.586c0.891 1.342 3.213 4.736 5.618 8.212l1.53 2.216c0.404 0.585 1.014 1.463 1.358 1.952s0.802 1.156 1.02 1.478c0.218 0.323 0.661 0.942 0.986 1.372 0.323 0.432 0.911 1.233 1.304 1.782l1.4 1.946c0.376 0.519 0.974 1.378 1.328 1.906 0.761 1.132 0.872 1.17 0.856 0.3 -0.015 -0.806 -0.009 -0.857 0.08 -0.805 0.044 0.025 0.08 0.01 0.08 -0.034s-0.029 -0.08 -0.067 -0.08 -0.066 -0.042 -0.067 -0.095c0 -0.136 -1.355 -2.134 -3.195 -4.715a1265.463 1265.463 0 0 1 -6.817 -9.705c-0.468 -0.695 -2.819 -4.032 -4.986 -7.076 -0.486 -0.682 -0.952 -1.346 -1.039 -1.478a1.024 1.024 0 0 0 -0.219 -0.263 0.117 0.117 0 0 1 -0.064 -0.098 0.878 0.878 0 0 0 -0.139 -0.274 3.657 3.657 0 0 1 -0.3 -0.622c-0.143 -0.379 -0.184 -0.424 -0.399 -0.436a2.926 2.926 0 0 0 -0.639 0.078m-2.155 9.223c0.026 0.041 -0.003 0.073 -0.067 0.073 -0.063 0 0.296 0.402 0.797 0.892 1.799 1.76 2.56 3.018 3.084 5.106 0.161 0.647 0.178 0.889 0.17 2.645 -0.009 2.01 0.001 1.916 -0.458 4.055a0.585 0.585 0 0 1 -0.066 0.151c-0.026 0.042 -0.073 0.196 -0.102 0.341 -0.064 0.306 -0.263 0.887 -0.37 1.08a0.805 0.805 0 0 0 -0.073 0.326c0 0.111 -0.034 0.176 -0.08 0.149 -0.044 -0.026 -0.079 0.006 -0.079 0.07 0 0.066 0.038 0.119 0.085 0.119 0.045 0 0.061 0.035 0.035 0.076 -0.028 0.042 -0.02 0.076 0.015 0.075 0.094 0 0.723 -1.056 0.79 -1.325a1.024 1.024 0 0 1 0.123 -0.307c0.037 -0.047 0.124 -0.301 0.196 -0.571 0.07 -0.268 0.18 -0.562 0.241 -0.654a0.731 0.731 0 0 0 0.113 -0.354c0 -0.259 0.158 -0.957 0.266 -1.173a1.463 1.463 0 0 0 0.091 -0.512c0.001 -0.183 0.032 -0.332 0.067 -0.332 0.037 0 0.044 -0.069 0.015 -0.152 -0.031 -0.094 -0.015 -0.152 0.044 -0.152 0.165 0 0.045 -2.537 -0.161 -3.448 -0.461 -2.029 -1.279 -3.593 -2.478 -4.737 -0.822 -0.786 -1.814 -1.434 -2.012 -1.318q-0.082 0.044 -0.038 -0.028c0.029 -0.044 -0.004 -0.099 -0.073 -0.124 -0.07 -0.025 -0.102 -0.013 -0.073 0.029m45.489 0.176c0 0.056 0.202 0.234 0.449 0.395 0.459 0.301 1.415 1.283 1.628 1.674 0.064 0.12 0.263 0.456 0.442 0.749 0.889 1.46 1.112 2.313 1.195 4.585 0.061 1.71 0.17 2.606 0.353 2.942 0.181 0.335 0.9 1.109 1.154 1.244 1.295 0.696 2.265 1.021 2.468 0.828 0.066 -0.064 0.054 -0.086 -0.045 -0.086 -0.075 0 -0.136 -0.028 -0.136 -0.061s-0.143 -0.138 -0.317 -0.231c-0.484 -0.259 -1.194 -0.907 -1.53 -1.399 -0.461 -0.676 -0.682 -1.442 -0.907 -3.137 -0.405 -3.033 -0.606 -3.643 -1.709 -5.208 -0.644 -0.913 -1.557 -1.742 -2.333 -2.123 -0.609 -0.298 -0.711 -0.322 -0.711 -0.171M38.894 43.348c0.025 0.063 0.001 0.114 -0.051 0.116 -0.146 0.003 -0.838 1.431 -1.191 2.462 -0.432 1.261 -0.546 1.915 -0.6 3.448 -0.057 1.684 0.119 2.657 0.805 4.462 0.721 1.899 2.499 4.108 4.152 5.161 1.311 0.834 3.318 1.52 4.447 1.52 0.559 0 0.331 -0.17 -0.629 -0.467 -2.633 -0.815 -4.916 -2.594 -6.434 -5.015a10.094 10.094 0 0 1 -1.568 -4.714c-0.097 -1.21 -0.051 -2.108 0.17 -3.412 0.215 -1.267 0.315 -1.624 0.775 -2.765 0.176 -0.439 0.303 -0.822 0.282 -0.854 -0.069 -0.105 -0.205 -0.057 -0.158 0.059m56.124 0.143c-0.35 0.19 -0.49 0.336 -0.916 0.955 -1.422 2.069 -1.533 6.251 -0.244 9.173 0.557 1.264 1.232 2.385 1.87 3.107 1.641 1.861 3.848 3.204 5.697 3.473 0.25 0.037 0.502 0.038 0.559 0.003 0.082 -0.048 0.078 -0.063 -0.015 -0.063 -0.222 -0.003 -2.193 -0.966 -2.756 -1.346 -1.375 -0.93 -2.745 -2.292 -3.526 -3.507 -0.563 -0.878 -1.031 -1.987 -1.453 -3.45 -0.215 -0.743 -0.351 -2.199 -0.304 -3.221 0.079 -1.644 0.32 -2.752 0.844 -3.874 0.176 -0.373 0.298 -0.737 0.274 -0.809q-0.054 -0.152 0.035 -0.025c0.064 0.085 0.095 0.076 0.167 -0.051a0.439 0.439 0 0 0 0.041 -0.296q-0.056 -0.152 0.029 -0.035c0.044 0.057 0.097 0.073 0.12 0.038s0 -0.101 -0.05 -0.145c-0.066 -0.057 -0.173 -0.037 -0.372 0.073M48.424 45.741c-0.38 0.743 -0.559 1.966 -0.516 3.558 0.029 1.08 0.034 1.106 0.298 1.573 0.55 0.97 2.443 2.363 3.221 2.367 0.143 0.001 0.04 -0.205 -0.161 -0.317 -0.37 -0.206 -1.086 -0.922 -1.456 -1.453 -0.193 -0.277 -0.38 -0.503 -0.415 -0.503 -0.037 0 -0.059 -0.025 -0.053 -0.057a0.366 0.366 0 0 0 -0.037 -0.17 10.241 10.241 0 0 1 -0.351 -0.966c-0.023 -0.095 -0.07 -0.171 -0.104 -0.171 -0.238 0 -0.38 -2.742 -0.183 -3.543 0.057 -0.23 0.07 -0.468 0.034 -0.563 -0.059 -0.149 -0.088 -0.123 -0.278 0.246m-20.591 1.397c-0.079 0.707 -0.015 4.562 0.088 5.154 0.048 0.293 0.138 0.872 0.198 1.289 0.129 0.895 0.332 1.943 0.497 2.578 0.067 0.249 0.149 0.573 0.184 0.72a40.837 40.837 0 0 0 1.075 3.562c0.056 0.146 0.164 0.454 0.241 0.683 0.076 0.228 0.222 0.62 0.323 0.87 0.102 0.25 0.317 0.796 0.48 1.214 0.297 0.764 0.559 1.38 0.854 2.007 0.224 0.474 1.444 2.769 1.693 3.185 0.113 0.187 0.237 0.41 0.278 0.492 0.04 0.083 0.303 0.511 0.585 0.948l0.746 1.167c0.345 0.541 0.721 1.071 1.219 1.713 0.667 0.862 0.995 1.29 1.298 1.691 0.331 0.439 1.331 1.602 2.099 2.44 1.17 1.276 4.082 3.941 5.369 4.916 1.873 1.413 4.345 3.04 6.386 4.199 1.116 0.633 3.495 1.785 4.553 2.205 0.307 0.121 0.936 0.375 1.399 0.56 1.444 0.585 4.914 1.643 6.649 2.028 1.668 0.369 2.053 0.451 2.657 0.562 1.309 0.241 2.497 0.424 3.235 0.497 0.417 0.042 0.992 0.11 1.279 0.151s1.687 0.11 3.115 0.154c2.137 0.066 2.955 0.059 4.633 -0.035 1.119 -0.064 2.209 -0.149 2.42 -0.19s0.492 -0.073 0.623 -0.073c0.139 0 0.219 -0.034 0.192 -0.076 -0.029 -0.047 0.094 -0.061 0.336 -0.04l0.382 0.035 -0.358 -0.078c-0.269 -0.059 -0.67 -0.044 -1.598 0.057 -1.558 0.168 -7.161 0.195 -8.627 0.04l-2.036 -0.214c-3.663 -0.382 -8.441 -1.524 -12.059 -2.885 -1.639 -0.614 -4.48 -1.897 -6.153 -2.775a49.741 49.741 0 0 1 -3.913 -2.399l-1.2 -0.838c-1.849 -1.296 -2.806 -2.089 -4.837 -4.016 -2.095 -1.985 -3.006 -2.955 -4.31 -4.588 -0.808 -1.012 -2.139 -2.783 -2.366 -3.145l-0.607 -0.948a42.719 42.719 0 0 1 -4.18 -8.251c-1.876 -5.011 -2.547 -8.533 -2.772 -14.527l-0.019 -0.493zm39.267 1.5c-0.023 0.092 -0.032 4.772 -0.018 10.402 0.029 11.484 -0.022 10.552 0.632 11.65 0.492 0.824 1.826 2.048 2.704 2.483 0.679 0.335 1.306 0.533 1.697 0.534 0.19 0 0.209 -0.018 0.132 -0.132 -0.048 -0.073 -0.376 -0.336 -0.726 -0.588 -0.666 -0.474 -1.852 -1.6 -2.187 -2.074l-0.389 -0.541c-0.236 -0.319 -0.578 -1.141 -0.639 -1.532a10.241 10.241 0 0 0 -0.127 -0.639c-0.089 -0.377 -0.116 -16.523 -0.029 -17.858l0.045 -0.702 -0.426 -0.547c-0.477 -0.612 -0.604 -0.699 -0.669 -0.454m16.322 0.395c-0.117 0.095 -0.193 0.195 -0.167 0.219 0.026 0.026 -0.013 0.047 -0.088 0.047 -0.176 0 -0.427 0.263 -0.974 1.023 -0.24 0.334 -0.711 0.982 -1.046 1.441 -0.336 0.458 -0.916 1.311 -1.289 1.895a127.278 127.278 0 0 1 -2.108 3.107l-1.428 2.048 0.034 12.355c0.019 6.795 0.038 12.369 0.044 12.385 0.019 0.067 1.163 -0.078 1.213 -0.154 0.029 -0.045 0.129 -0.059 0.222 -0.031 0.132 0.04 0.159 0.025 0.121 -0.069 -0.026 -0.064 -0.015 -0.117 0.026 -0.117 0.042 0 0.076 -0.045 0.076 -0.099s-0.107 -0.107 -0.243 -0.117c-0.135 -0.009 -0.271 -0.059 -0.304 -0.11s-0.061 -4.168 -0.063 -9.149c0 -4.983 -0.023 -10.355 -0.051 -11.939l-0.05 -2.881 0.26 -0.454c0.256 -0.451 0.834 -1.334 2.124 -3.261 1.963 -2.93 2.78 -4.199 3.337 -5.182 0.339 -0.598 0.606 -1.097 0.593 -1.112 -0.015 -0.012 -0.121 0.056 -0.24 0.152M50.466 68.069c-0.158 0.063 -0.121 0.195 0.23 0.829 0.471 0.856 2.01 2.897 2.794 3.707 0.492 0.508 0.731 0.8 0.692 0.84 -0.022 0.02 -0.293 -0.246 -0.6 -0.591a30.722 30.722 0 0 0 -0.717 -0.781 2.926 2.926 0 0 1 -0.307 -0.379 16.093 16.093 0 0 0 -0.593 -0.77c-0.243 -0.298 -0.638 -0.805 -0.881 -1.124 -0.595 -0.789 -0.676 -0.846 -0.619 -0.439 0.123 0.884 2.379 3.674 4.706 5.823 2.016 1.862 2.946 2.581 4.98 3.843a33.063 33.063 0 0 0 9.026 3.899c1.649 0.446 3.628 0.827 4.725 0.907l0.654 0.05 0.053 -0.268c0.094 -0.473 0.044 -0.541 -0.442 -0.604a35.111 35.111 0 0 1 -5.916 -1.314c-3.609 -1.173 -7.607 -3.36 -10.538 -5.764 -2.802 -2.297 -5.962 -6.13 -6.213 -7.534l-0.06 -0.342 -0.439 -0.015a2.341 2.341 0 0 0 -0.537 0.026m53.661 0.399 -0.516 0.044 -0.562 0.698c-0.31 0.385 -0.922 1.184 -1.361 1.776 -1.699 2.288 -3.059 3.827 -5.014 5.668 -0.815 0.768 -1.539 1.426 -1.611 1.463 -0.072 0.04 -0.11 0.102 -0.083 0.142s0 0.07 -0.059 0.07c-0.126 0 -0.544 0.353 -0.544 0.458 0 0.041 -0.073 0.073 -0.164 0.073s-0.145 0.031 -0.12 0.069 0 0.086 -0.054 0.105q-0.101 0.035 0.047 0.094c0.095 0.037 0.173 0.02 0.219 -0.048 0.038 -0.059 0.072 -0.073 0.073 -0.029 0.001 0.041 0.041 0.015 0.086 -0.059s0.206 -0.183 0.36 -0.243c0.591 -0.234 2.234 -1.59 4.228 -3.491a45.352 45.352 0 0 0 4.048 -4.295c0.383 -0.454 1.007 -1.181 1.384 -1.617s0.664 -0.828 0.636 -0.87c-0.051 -0.079 -0.132 -0.08 -0.995 -0.007m-49.848 5.071c0 0.034 0.127 0.176 0.281 0.317 0.342 0.316 0.372 0.208 0.035 -0.132 -0.25 -0.255 -0.316 -0.293 -0.316 -0.186m2.955 2.698c0 0.148 1.966 1.713 2.153 1.713 0.047 0 0.083 0.029 0.083 0.064 0 0.101 2.426 1.592 3.555 2.186 1.015 0.534 2.516 1.189 3.475 1.516 1.188 0.404 2.844 0.863 3.072 0.849 0.161 -0.007 0.161 -0.009 0.003 -0.044 -0.383 -0.092 -2.374 -0.733 -2.995 -0.966 -1.361 -0.511 -4.831 -2.102 -4.75 -2.18 0.015 -0.015 -0.14 -0.11 -0.347 -0.212 -0.663 -0.328 -3.442 -2.192 -3.514 -2.358 -0.034 -0.076 -0.734 -0.619 -0.734 -0.568m14.379 6.7c0 0.095 0.135 0.136 0.658 0.205 0.424 0.054 0.533 -0.067 0.12 -0.136a17.556 17.556 0 0 1 -0.519 -0.095c-0.164 -0.034 -0.259 -0.023 -0.259 0.028" fill="#FAF0C6"/><path fill-rule="evenodd" clip-rule="evenodd" d="M73.66 0.047c-4.493 0.272 -9.979 1.325 -13.762 2.644 -5.501 1.916 -8.589 3.435 -13.203 6.496 -2.747 1.823 -6.738 5.343 -8.915 7.862 -2.702 3.126 -4.705 5.995 -6.169 8.833 -0.284 0.549 -0.556 1.067 -0.604 1.15a27.796 27.796 0 0 0 -1.122 2.336 1.463 1.463 0 0 0 -0.132 0.413 0.439 0.439 0 0 1 -0.113 0.243c-0.063 0.067 -0.184 0.36 -0.271 0.652 -0.088 0.293 -0.282 0.872 -0.434 1.29 -0.152 0.417 -0.375 1.067 -0.493 1.442a98.019 98.019 0 0 1 -0.366 1.125 5.852 5.852 0 0 0 -0.195 0.721 7.315 7.315 0 0 1 -0.195 0.734 23.407 23.407 0 0 0 -0.647 2.771C26.562 41.299 26.333 43.936 26.333 46.917c0 1.293 0.04 2.73 0.088 3.191 0.165 1.595 0.385 3.347 0.506 4.028 0.066 0.376 0.161 0.922 0.209 1.214s0.173 0.84 0.275 1.214c0.104 0.377 0.282 1.094 0.398 1.595 0.114 0.502 0.259 1.02 0.32 1.151s0.113 0.293 0.113 0.355c0 0.064 0.035 0.138 0.079 0.164s0.08 0.114 0.08 0.198c0 0.159 0.256 0.945 0.432 1.321 0.059 0.126 0.132 0.313 0.164 0.417 0.032 0.105 0.102 0.293 0.157 0.418 0.056 0.126 0.162 0.432 0.24 0.68s0.187 0.522 0.244 0.607c0.056 0.085 0.164 0.36 0.237 0.61s0.167 0.489 0.205 0.527a0.293 0.293 0 0 1 0.072 0.178c0 0.057 0.124 0.353 0.278 0.657s0.278 0.604 0.278 0.667 0.059 0.161 0.129 0.218 0.338 0.512 0.597 1.015c0.489 0.951 0.948 1.748 1.226 2.133 0.088 0.123 0.225 0.342 0.303 0.489 0.252 0.477 0.565 0.96 1.422 2.194 0.075 0.108 0.187 0.3 0.249 0.424 0.059 0.126 0.186 0.293 0.279 0.373s0.17 0.205 0.17 0.277c0 0.073 0.05 0.149 0.11 0.171 0.129 0.048 0.765 0.958 0.765 1.097 0 0.051 0.198 0.291 0.436 0.531 0.24 0.24 0.437 0.474 0.439 0.518 0 0.044 0.094 0.165 0.208 0.266s0.363 0.405 0.556 0.677c0.193 0.271 0.484 0.632 0.648 0.8 0.165 0.17 0.771 0.805 1.346 1.413 1.068 1.122 3.179 3.037 4.044 3.665 0.263 0.19 0.717 0.527 1.008 0.746s0.667 0.499 0.834 0.623c0.168 0.123 0.373 0.288 0.455 0.367s0.351 0.263 0.597 0.413 0.59 0.377 0.765 0.512c0.176 0.132 0.761 0.494 1.301 0.805l1.112 0.641c0.073 0.042 0.401 0.225 0.73 0.407s0.731 0.413 0.897 0.513c0.473 0.29 0.803 0.459 2.165 1.119 1.244 0.6 1.767 0.834 2.664 1.185 0.241 0.094 0.506 0.205 0.59 0.246s0.334 0.138 0.556 0.214c0.224 0.076 0.657 0.227 0.963 0.336 1.89 0.667 4.313 1.396 5.687 1.709 0.154 0.035 0.493 0.117 0.756 0.181 1.608 0.395 5.252 0.988 6.601 1.072l1.194 0.075c0.263 0.016 1.533 0.053 2.824 0.08 3.546 0.078 6.532 -0.146 9.992 -0.752 4.055 -0.711 8.121 -1.883 11.376 -3.28 0.138 -0.06 0.278 -0.108 0.31 -0.108 0.034 0 0.768 -0.341 1.634 -0.758a40.963 40.963 0 0 0 4.247 -2.316l1.592 -0.989c2.19 -1.358 3.482 -2.333 5.695 -4.297 0.909 -0.805 3.551 -3.463 4.177 -4.202 1.463 -1.726 2.872 -3.614 4.358 -5.842 0.575 -0.863 2.512 -4.314 2.512 -4.477 0 -0.02 0.158 -0.355 0.351 -0.745 1.084 -2.187 2.565 -6.642 3.145 -9.458 0.746 -3.628 0.901 -4.81 1.043 -7.915 0.268 -5.862 -0.473 -10.797 -2.469 -16.482 -1.883 -5.357 -4.187 -9.404 -8.002 -14.052 -1.723 -2.098 -4.399 -4.809 -6.068 -6.146a95.093 95.093 0 0 1 -1.034 -0.844c-0.794 -0.66 -3.428 -2.538 -4.478 -3.195 -1.384 -0.866 -3.409 -2.019 -4.399 -2.502 -0.906 -0.443 -2.402 -1.116 -2.481 -1.116 -0.025 0 -0.246 -0.083 -0.492 -0.183a48.278 48.278 0 0 0 -1.283 -0.487c-2.894 -1.056 -4.183 -1.448 -6.561 -1.993C85.305 0.751 83.169 0.396 80.46 0.152c-1.57 -0.143 -5.251 -0.2 -6.801 -0.105m12.742 1.434a0.731 0.731 0 0 0 0.36 0.155c0.083 0 0.177 0.023 0.208 0.053s0.17 0.094 0.312 0.146l0.813 0.296c0.475 0.173 1.821 0.633 3.141 1.074 1.748 0.582 3.438 1.217 3.96 1.486a1.317 1.317 0 0 0 0.347 0.135c0.231 0 3.647 1.677 4.562 2.238 0.219 0.135 0.493 0.293 0.61 0.351 0.702 0.351 1.05 0.543 1.618 0.889 0.35 0.214 0.815 0.477 1.034 0.585s0.487 0.275 0.595 0.369c0.11 0.094 0.395 0.288 0.636 0.43s0.527 0.336 0.636 0.43a0.878 0.878 0 0 0 0.249 0.173c0.051 0 1.088 0.742 1.343 0.958 0.064 0.056 0.351 0.281 0.635 0.5 0.866 0.667 0.903 0.698 1.16 0.933 0.138 0.126 0.459 0.398 0.717 0.607 1.162 0.936 2.941 2.655 3.891 3.758 0.164 0.187 0.325 0.358 0.358 0.38 0.034 0.019 0.222 0.241 0.42 0.492s0.486 0.593 0.644 0.761c0.155 0.167 0.418 0.49 0.584 0.72s0.326 0.43 0.36 0.443 0.059 0.073 0.059 0.132c0 0.06 0.032 0.108 0.073 0.108 0.038 0 0.24 0.265 0.448 0.59 0.208 0.322 0.636 0.964 0.952 1.423 0.588 0.856 0.68 1.005 1.033 1.682 0.111 0.214 0.256 0.432 0.32 0.483s0.117 0.117 0.117 0.149 0.255 0.478 0.566 0.992c0.595 0.983 1.047 1.861 1.542 2.995 0.164 0.376 0.377 0.854 0.475 1.062 0.097 0.209 0.222 0.516 0.278 0.683s0.149 0.407 0.208 0.533c0.161 0.341 0.581 1.456 0.743 1.976 0.079 0.253 0.271 0.816 0.424 1.254 0.345 0.973 0.98 3.454 1.135 4.436l0.227 1.409c0.433 2.674 0.594 4.974 0.614 8.766 0.013 2.538 0.057 3.277 0.19 3.245 0.044 -0.012 0.083 -0.079 0.088 -0.152a1.317 1.317 0 0 1 0.088 -0.322c0.145 -0.345 0.347 -1.543 0.417 -2.468 0.088 -1.147 0.048 -4.348 -0.072 -5.845 -0.152 -1.905 -0.578 -4.456 -1.088 -6.529 -0.471 -1.908 -1.561 -5.274 -2.202 -6.795 -1.381 -3.28 -2.241 -4.91 -3.992 -7.558 -0.41 -0.622 -2.347 -3.214 -2.955 -3.957a54.13 54.13 0 0 0 -1.693 -1.922 14.63 14.63 0 0 1 -0.439 -0.494c-0.594 -0.683 -2.922 -2.916 -3.738 -3.586 -0.746 -0.612 -0.907 -0.743 -1.631 -1.35 -0.647 -0.541 -2.711 -1.99 -3.788 -2.657l-1.478 -0.92a5.852 5.852 0 0 0 -0.572 -0.331 10.241 10.241 0 0 1 -0.822 -0.47c-1.568 -0.945 -4.845 -2.423 -7.049 -3.18 -0.49 -0.168 -0.98 -0.341 -1.09 -0.385a35.111 35.111 0 0 0 -2.107 -0.658c-1.214 -0.338 -1.538 -0.414 -2.187 -0.515 -0.373 -0.057 -0.84 -0.136 -1.039 -0.176a10.241 10.241 0 0 0 -0.907 -0.117L86.198 1.328zm-12.426 0.692c-4.766 0.278 -9.136 1.093 -13.361 2.487 -2.472 0.815 -3.646 1.287 -6.045 2.44 -1.761 0.846 -2.271 1.118 -4.177 2.24 -5.482 3.227 -10.943 8.329 -14.674 13.705 -1.51 2.177 -3.745 6.384 -4.538 8.541 -1.982 5.392 -2.807 9.522 -2.935 14.691 -0.037 1.486 -0.063 1.921 -0.08 1.29 -0.022 -0.849 -0.031 -0.901 -0.086 -0.493 -0.088 0.648 -0.028 4.528 0.079 5.163 0.05 0.293 0.139 0.872 0.199 1.29 0.127 0.897 0.329 1.946 0.494 2.581 0.066 0.252 0.148 0.575 0.183 0.721a41.029 41.029 0 0 0 1.071 3.568c0.056 0.146 0.164 0.454 0.24 0.683s0.222 0.623 0.322 0.873c0.102 0.25 0.317 0.797 0.478 1.214 0.296 0.767 0.556 1.384 0.851 2.013 0.222 0.474 1.437 2.772 1.685 3.189 0.111 0.187 0.237 0.41 0.277 0.493s0.301 0.511 0.581 0.948l0.745 1.17c0.344 0.541 0.717 1.072 1.214 1.715 0.663 0.863 0.99 1.292 1.292 1.694 0.328 0.439 1.325 1.605 2.089 2.443 1.165 1.279 4.064 3.949 5.347 4.923a62.907 62.907 0 0 0 6.358 4.206c1.112 0.635 3.482 1.788 4.535 2.209 0.307 0.121 0.932 0.375 1.391 0.562 1.432 0.582 4.898 1.646 6.602 2.025 1.745 0.388 2.07 0.456 2.664 0.568 1.304 0.243 2.487 0.426 3.221 0.499 0.415 0.042 0.989 0.11 1.273 0.151s1.679 0.11 3.101 0.154c2.129 0.066 2.943 0.059 4.614 -0.035 1.115 -0.064 2.2 -0.151 2.409 -0.19 0.211 -0.042 0.49 -0.075 0.622 -0.075 0.136 0 0.219 -0.032 0.19 -0.076 -0.029 -0.047 0.094 -0.061 0.334 -0.041 0.241 0.02 0.178 0 -0.168 -0.059l-0.55 -0.091 0.988 -0.14c1.176 -0.167 3.229 -0.556 4.607 -0.873 1.385 -0.319 4.873 -1.375 6.026 -1.824 0.206 -0.082 0.895 -0.345 1.53 -0.585 1.067 -0.404 4.09 -1.807 5.488 -2.546a40.963 40.963 0 0 0 2.904 -1.748c2.843 -1.924 3.84 -2.683 5.533 -4.216 2.054 -1.858 3.16 -3.033 5.164 -5.483 1.233 -1.507 1.551 -1.943 2.502 -3.423 0.256 -0.396 0.556 -0.857 0.667 -1.024 0.181 -0.274 0.925 -1.634 2.007 -3.679 0.386 -0.731 0.688 -1.39 1.107 -2.433l0.478 -1.176c0.734 -1.792 1.422 -4.099 2.026 -6.795 0.07 -0.313 0.161 -0.689 0.2 -0.834 0.067 -0.249 0.116 -0.521 0.315 -1.766 0.489 -3.066 0.521 -7.066 0.086 -10.876 -0.418 -3.676 -1.565 -7.991 -3.131 -11.768a43.011 43.011 0 0 0 -2.98 -5.808c-0.353 -0.594 -1.606 -2.439 -2.194 -3.226 -1.627 -2.184 -4.273 -5.065 -6.381 -6.948 -1.639 -1.463 -4.74 -3.772 -6.316 -4.702a87.778 87.778 0 0 1 -1.074 -0.65c-2.856 -1.757 -6.62 -3.454 -10.219 -4.608 -1.982 -0.635 -5.647 -1.456 -8.035 -1.799 -3.043 -0.436 -6.542 -0.612 -9.148 -0.458M63.771 10.576c-1.703 0.023 -1.918 0.089 -1.045 0.319 1.028 0.271 2.221 1.258 2.715 2.25l0.3 0.6 0.057 7.095c0.037 4.487 0.029 7.128 -0.019 7.183q-0.076 0.088 -1.327 0.099c-0.689 0.007 -1.826 0.044 -2.525 0.083l-2.848 0.161 -1.576 0.088 -0.212 -0.181c-0.165 -0.14 -0.187 -0.146 -0.098 -0.028 0.061 0.083 0.165 0.195 0.23 0.246 0.098 0.079 0.07 0.111 -0.18 0.211 -0.519 0.208 -0.758 0.225 -0.889 0.066 -0.753 -0.91 -2.244 -3.387 -2.818 -4.683l-0.331 -0.745 0.206 -0.257c0.114 -0.143 0.519 -0.465 0.901 -0.717 0.382 -0.249 0.802 -0.544 0.933 -0.651 0.2 -0.164 0.211 -0.189 0.066 -0.151 -0.095 0.025 -0.192 0.015 -0.215 -0.023 -0.073 -0.113 0.81 -0.262 1.211 -0.205l0.37 0.054 -0.379 0.184c-0.208 0.101 -0.377 0.2 -0.377 0.219 0 0.022 0.18 -0.048 0.401 -0.155 0.869 -0.42 0.475 -0.446 -4.657 -0.31 -2.361 0.061 -4.402 0.143 -4.534 0.18q-0.238 0.067 -0.238 0.214c0 0.117 0.08 0.158 0.398 0.208 2.107 0.331 3.385 1.148 4.825 3.09 0.787 1.061 2.642 4.026 2.563 4.093 -0.04 0.032 -0.5 0.154 -1.024 0.268 -1.697 0.37 -2.639 0.721 -5.012 1.865 -2.404 1.159 -4.506 2.557 -6.263 4.165 -0.784 0.717 -2.446 2.452 -2.446 2.553 0 0.029 -0.161 0.253 -0.358 0.5 -0.196 0.249 -0.357 0.478 -0.357 0.512 0 0.037 -0.117 0.215 -0.257 0.399 -0.475 0.62 -0.633 0.856 -0.854 1.279 -0.12 0.233 -0.369 0.693 -0.552 1.027 -0.294 0.537 -0.415 0.816 -0.808 1.862l-0.243 0.644c-0.237 0.633 -0.531 1.829 -0.793 3.227 -0.088 0.465 -0.088 3.769 -0.003 4.101 0.038 0.146 0.132 0.538 0.208 0.872 0.424 1.867 0.98 3.08 2.213 4.822 0.531 0.751 1.761 1.99 2.68 2.698 1.39 1.071 3.284 1.887 5.404 2.329 1.637 0.341 4.101 0.155 5.73 -0.433 0.961 -0.347 1.527 -0.582 1.677 -0.699a0.439 0.439 0 0 1 0.174 -0.099c0.114 0 1.176 -0.673 1.688 -1.071 1.09 -0.849 2.622 -2.521 3.233 -3.535 0.386 -0.639 0.939 -1.679 1.102 -2.074 0.094 -0.23 0.219 -0.521 0.281 -0.645 0.161 -0.339 0.503 -1.51 0.644 -2.202 0.078 -0.386 0.13 -1.148 0.143 -2.088 0.01 -0.815 0.007 -0.995 -0.009 -0.399 -0.019 0.682 -0.06 1.083 -0.113 1.083 -0.047 0 -0.06 0.066 -0.032 0.152 0.029 0.083 0.022 0.151 -0.015 0.151 -0.035 0 -0.066 0.151 -0.066 0.334a1.463 1.463 0 0 1 -0.091 0.512c-0.108 0.217 -0.266 0.917 -0.266 1.175 0 0.102 -0.05 0.263 -0.111 0.355a2.926 2.926 0 0 0 -0.241 0.655c-0.07 0.269 -0.158 0.525 -0.195 0.571a1.024 1.024 0 0 0 -0.123 0.307c-0.067 0.269 -0.693 1.327 -0.786 1.328 -0.035 0 -0.044 -0.032 -0.015 -0.073 0.026 -0.044 0.01 -0.078 -0.037 -0.078 -0.045 0 -0.083 -0.053 -0.083 -0.117s0.035 -0.098 0.079 -0.073c0.045 0.028 0.08 -0.037 0.08 -0.148 0 -0.107 0.032 -0.255 0.073 -0.328 0.105 -0.193 0.304 -0.775 0.366 -1.08 0.032 -0.146 0.078 -0.3 0.104 -0.342a0.585 0.585 0 0 0 0.064 -0.152c0.459 -2.142 0.448 -2.048 0.458 -4.061 0.007 -1.757 -0.009 -2.001 -0.17 -2.648 -0.522 -2.092 -1.279 -3.352 -3.072 -5.115 -0.497 -0.492 -0.878 -0.892 -0.843 -0.892a0.878 0.878 0 0 0 0.202 -0.051c0.102 -0.037 0.121 -0.023 0.073 0.05q-0.063 0.098 0.025 0.048c0.05 -0.029 0.198 0 0.331 0.066 0.132 0.066 0.241 0.102 0.241 0.08 0 -0.076 -0.644 -0.35 -0.718 -0.306 -0.044 0.025 -0.078 0.006 -0.078 -0.044 0 -0.047 -0.051 -0.069 -0.114 -0.045 -0.063 0.022 -0.126 0.009 -0.14 -0.032 -0.051 -0.146 -0.922 -0.307 -1.893 -0.347 -1.59 -0.067 -2.828 0.256 -4.044 1.053 -0.543 0.357 -1.448 1.244 -1.846 1.805 -0.998 1.415 -1.188 2.06 -1.818 6.149 -0.178 1.16 -0.383 1.71 -0.878 2.355 -0.459 0.604 -1.69 1.599 -2.186 1.77 -0.047 0.016 -0.063 0.053 -0.035 0.08s0.689 0.019 1.472 -0.022c1.78 -0.092 6.261 -0.04 6.872 0.08 0.739 0.146 0.916 -0.023 0.326 -0.312 -0.784 -0.382 -1.678 -1.416 -2.121 -2.458 -0.439 -1.026 -0.541 -1.595 -0.541 -3.014 0 -1.135 0.019 -1.309 0.205 -1.87 0.357 -1.068 0.743 -1.732 1.287 -2.203 0.914 -0.793 2.171 -1.23 3.229 -1.125 1.052 0.105 1.726 0.427 2.6 1.241 0.802 0.746 1.502 2.101 1.693 3.274 0.399 2.467 0.222 4.894 -0.475 6.491 -0.183 0.417 -0.566 1.211 -0.734 1.519 -0.452 0.829 -1.829 2.424 -2.699 3.128 -1.043 0.841 -1.324 1.021 -2.341 1.502 -1.794 0.849 -3.537 1.058 -5.354 0.644 -0.863 -0.198 -0.897 -0.18 -0.132 0.066 0.723 0.231 0.873 0.392 0.367 0.392 -1.124 0 -3.123 -0.688 -4.428 -1.521 -1.646 -1.055 -3.416 -3.267 -4.134 -5.17 -0.683 -1.807 -0.857 -2.781 -0.8 -4.468 0.053 -1.536 0.165 -2.192 0.595 -3.454 0.351 -1.033 1.04 -2.464 1.185 -2.467 0.054 0 0.078 -0.053 0.053 -0.116 -0.047 -0.114 0.088 -0.162 0.157 -0.057 0.02 0.032 -0.107 0.415 -0.281 0.854s-0.354 0.917 -0.395 1.064l-0.149 0.531c-0.317 1.146 -0.511 3.22 -0.413 4.442 0.059 0.72 0.064 0.67 0.117 -0.949 0.083 -2.644 0.436 -4.124 1.53 -6.453 1.264 -2.69 4.446 -5.976 7.637 -7.888 0.307 -0.183 0.65 -0.394 0.762 -0.468 0.547 -0.355 2.663 -1.283 4.01 -1.758 1.65 -0.582 3.293 -1.045 3.707 -1.046 0.123 0 0.691 0.746 0.986 1.293 0.078 0.146 0.72 1.1 1.428 2.124 0.707 1.023 1.622 2.355 2.035 2.961 0.815 1.195 3.491 5.018 4.411 6.301 0.986 1.375 1.189 1.726 1.075 1.858 -0.078 0.091 -0.08 0.535 -0.012 2.146 0.154 3.581 0.249 17.143 0.132 18.72 -0.132 1.769 -0.395 2.544 -1.213 3.564a9.217 9.217 0 0 1 -3.192 2.502c-0.465 0.215 -0.862 0.401 -0.879 0.414 -0.151 0.113 0.645 0.146 4.513 0.192 2.436 0.029 5.103 0.076 5.926 0.105 1.419 0.05 1.498 0.044 1.472 -0.085a0.249 0.249 0 0 0 -0.146 -0.174c-0.102 -0.032 -0.104 -0.019 -0.01 0.088 0.097 0.113 0.085 0.127 -0.12 0.126 -0.398 0 -1.018 -0.196 -1.7 -0.535 -0.873 -0.433 -2.202 -1.66 -2.692 -2.487 -0.651 -1.097 -0.6 -0.158 -0.629 -11.727 -0.013 -5.669 0.004 -10.358 0.04 -10.416 0.088 -0.149 0.18 -0.076 0.647 0.524 0.36 0.461 0.41 0.569 0.417 0.91 0.006 0.214 0.026 0.326 0.047 0.252s0.067 -0.127 0.102 -0.114c0.038 0.012 0.502 0.638 1.031 1.39s1.2 1.691 1.489 2.088c0.578 0.79 2.063 2.905 2.508 3.568 1.697 2.54 1.504 1.823 1.543 5.717 0.019 1.804 0.038 4.867 0.044 6.809 0.006 2.257 0.038 3.567 0.088 3.628q0.08 0.097 0.006 0.266c-0.05 0.105 -0.051 0.53 -0.006 1.156 0.048 0.667 0.044 1.027 -0.012 1.112 -0.053 0.083 -0.083 1.299 -0.085 3.504 0 1.858 -0.023 3.429 -0.05 3.496a0.336 0.336 0 0 1 -0.192 0.161q-0.146 0.044 -0.102 0.193a1.17 1.17 0 0 1 -0.015 0.424l-0.054 0.278 -0.651 -0.048c-1.093 -0.082 -3.065 -0.464 -4.706 -0.91a32.77 32.77 0 0 1 -8.988 -3.906c-2.023 -1.263 -2.951 -1.982 -4.959 -3.848 -2.316 -2.152 -4.562 -4.948 -4.686 -5.833 -0.057 -0.407 0.023 -0.35 0.617 0.44 0.241 0.32 0.635 0.827 0.876 1.126 0.241 0.298 0.506 0.645 0.591 0.77 0.082 0.124 0.219 0.296 0.306 0.38s0.405 0.436 0.712 0.783c0.307 0.345 0.576 0.612 0.597 0.591 0.042 -0.04 -0.199 -0.332 -0.688 -0.841 -1.112 -1.156 -3.11 -3.99 -3.11 -4.411 0 -0.136 0.307 -0.205 0.756 -0.17 0.326 0.025 0.361 0.012 0.341 -0.124 -0.023 -0.149 -0.088 -0.154 -2.211 -0.173 -3.286 -0.028 -4.259 0.085 -3.464 0.402 0.647 0.257 1.426 0.947 2.269 2.009 0.149 0.187 0.417 0.502 0.594 0.696 0.177 0.196 0.502 0.566 0.72 0.825 1.005 1.188 1.586 1.795 2.866 2.995a54.13 54.13 0 0 0 1.753 1.595c0.208 0.167 0.534 0.448 0.726 0.625 0.62 0.571 1.565 1.342 2.077 1.691 0.274 0.189 0.67 0.461 0.879 0.607 1.064 0.743 2.016 1.346 2.955 1.873 0.736 0.413 2.824 1.397 3.458 1.631 0.219 0.08 0.541 0.212 0.717 0.293 1.324 0.609 4.579 1.54 6.999 2.004 3.121 0.595 5.708 0.563 9.187 -0.117a49.741 49.741 0 0 0 3.935 -0.966c3.039 -0.945 6.525 -2.674 9.187 -4.559 2.712 -1.918 5.501 -4.443 7.625 -6.905 1.143 -1.325 2.183 -2.592 2.126 -2.592 -0.02 0 -0.449 0.487 -0.951 1.083 -1.729 2.048 -2.291 2.648 -4.052 4.333 -1.997 1.914 -3.633 3.271 -4.222 3.507 -0.152 0.061 -0.315 0.171 -0.358 0.244s-0.083 0.099 -0.085 0.059c-0.003 -0.044 -0.037 -0.029 -0.073 0.029 -0.047 0.069 -0.124 0.085 -0.219 0.048q-0.146 -0.059 -0.047 -0.094c0.056 -0.02 0.079 -0.067 0.056 -0.105 -0.025 -0.038 0.029 -0.069 0.117 -0.069 0.091 0 0.165 -0.034 0.165 -0.073 0 -0.105 0.417 -0.459 0.541 -0.459 0.057 0 0.083 -0.031 0.059 -0.07s0.012 -0.102 0.082 -0.14c0.072 -0.038 0.793 -0.698 1.605 -1.466 1.946 -1.843 3.3 -3.385 4.992 -5.676 0.437 -0.594 1.047 -1.394 1.355 -1.779l0.562 -0.699 0.708 -0.057c0.42 -0.034 0.739 -0.026 0.783 0.015 0.045 0.044 -0.127 0.312 -0.458 0.702 -0.392 0.465 -0.421 0.512 -0.111 0.178 0.233 -0.249 0.685 -0.717 1.007 -1.039s0.562 -0.622 0.533 -0.667c-0.072 -0.11 -5.899 -0.114 -5.969 -0.004 -0.029 0.044 0.028 0.198 0.123 0.345 0.281 0.436 0.098 0.952 -0.828 2.339 -0.791 1.185 -1.656 2.186 -3.112 3.605 -1.959 1.906 -3.319 2.974 -5.903 4.632 -0.998 0.641 -3.886 2.034 -5.194 2.505a39.5 39.5 0 0 1 -5.647 1.56c-1.423 0.268 -1.739 0.301 -1.876 0.193 -0.095 -0.076 -0.108 -0.07 -0.067 0.032 0.042 0.102 0.271 0.162 0.518 0.138 0.025 -0.003 0.047 0.044 0.047 0.105 0 0.059 -0.034 0.11 -0.076 0.11s-0.053 0.053 -0.026 0.117c0.038 0.094 0.01 0.11 -0.121 0.069 -0.092 -0.029 -0.19 -0.015 -0.221 0.031s-0.306 0.105 -0.614 0.132l-0.562 0.051 -0.054 -0.257c-0.029 -0.14 -0.04 -2.341 -0.02 -4.886 0.019 -2.548 0.019 -4.453 0 -4.234 -0.061 0.667 -0.187 0.448 -0.187 -0.322 0 -0.43 0.032 -0.721 0.079 -0.721 0.044 0 0.08 -0.051 0.08 -0.114s-0.037 -0.114 -0.08 -0.114c-0.045 0 -0.079 -0.24 -0.079 -0.571 0 -0.328 0.034 -0.569 0.079 -0.569 0.053 0 0.08 -2.221 0.08 -6.512v-6.515l1.419 -2.047A127.278 127.278 0 0 0 79.878 53.603c0.373 -0.585 0.951 -1.44 1.284 -1.899 0.334 -0.458 0.802 -1.107 1.042 -1.442 0.537 -0.749 0.794 -1.024 0.961 -1.024 0.07 0 0.111 -0.026 0.094 -0.059 -0.019 -0.029 0.069 -0.135 0.193 -0.233 0.249 -0.19 0.279 -0.171 0.136 0.088 -0.083 0.151 -0.08 0.155 0.042 0.059 0.073 -0.059 0.161 -0.08 0.19 -0.05 0.032 0.029 0.059 4.33 0.059 9.558 0 8.776 -0.01 9.539 -0.138 9.963 -0.211 0.707 -0.576 1.504 -0.91 1.987 -0.395 0.571 -1.426 1.592 -2.285 2.26 -0.375 0.293 -0.683 0.571 -0.683 0.614 0 0.051 0.26 0.102 0.655 0.132 1.009 0.073 10.823 0.127 10.28 0.059 -0.527 -0.069 -1.475 -0.41 -2.263 -0.816 -1.617 -0.831 -2.575 -1.861 -3.024 -3.252l-0.173 -0.533 0.047 -9.907c0.025 -5.45 0.067 -10.675 0.092 -11.616l0.045 -1.707 0.454 -0.835c0.249 -0.459 0.819 -1.372 1.265 -2.029 0.448 -0.655 0.813 -1.224 0.813 -1.265 0 -0.04 0.028 -0.083 0.063 -0.097s0.165 -0.196 0.293 -0.405c0.126 -0.209 0.454 -0.712 0.731 -1.119s0.503 -0.751 0.503 -0.765 0.439 -0.663 0.974 -1.441c1.224 -1.779 1.441 -2.111 2.174 -3.324 0.772 -1.277 1.877 -2.926 2.165 -3.236 0.161 -0.171 0.275 -0.23 0.392 -0.202 0.088 0.023 0.186 0.004 0.217 -0.041s0.083 -0.083 0.12 -0.083c0.082 0 0.012 0.303 -0.102 0.442 -0.044 0.056 -0.338 0.534 -0.652 1.064 -0.313 0.53 -0.667 1.125 -0.787 1.323 -0.12 0.199 -0.202 0.361 -0.183 0.361s0.249 -0.347 0.505 -0.77l0.868 -1.423c0.26 -0.427 0.454 -0.661 0.556 -0.676 0.252 -0.034 2.516 0.607 3.817 1.08 3.46 1.258 6.314 2.987 8.715 5.277 1.772 1.691 2.721 2.895 3.65 4.636 2.013 3.77 2.407 8.042 1.039 11.312 -0.989 2.367 -3.033 4.544 -5.292 5.635 -1.897 0.917 -4.009 1.185 -5.858 0.742 -1.482 -0.355 -3.223 -1.404 -4.715 -2.844 -0.465 -0.449 -0.645 -0.594 -0.439 -0.353 0.432 0.5 1.589 1.489 2.342 2.001 0.562 0.382 2.524 1.346 2.745 1.349 0.094 0 0.097 0.015 0.015 0.063 -0.056 0.035 -0.307 0.034 -0.556 -0.003 -1.842 -0.268 -4.038 -1.615 -5.672 -3.477 -0.847 -0.966 -1.778 -2.683 -2.265 -4.177 -0.696 -2.136 -0.635 -5.202 0.143 -7.207 0.161 -0.413 0.692 -1.254 0.988 -1.565 0.082 -0.085 0.275 -0.225 0.43 -0.31 0.228 -0.126 0.298 -0.138 0.376 -0.059 0.054 0.056 0.064 0.117 0.025 0.14s-0.088 0.018 -0.105 -0.015c-0.019 -0.031 -0.022 -0.012 -0.007 0.044 0.015 0.054 -0.015 0.17 -0.061 0.256 -0.073 0.127 -0.102 0.138 -0.167 0.051 -0.061 -0.082 -0.069 -0.076 -0.034 0.028 0.025 0.073 -0.066 0.363 -0.2 0.644 -0.303 0.639 -0.547 1.298 -0.538 1.457 0.003 0.066 0.105 -0.154 0.227 -0.487 0.32 -0.879 0.693 -1.568 1.125 -2.08 0.208 -0.247 0.364 -0.468 0.345 -0.494q-0.026 -0.038 0.015 -0.012c0.025 0.018 0.231 -0.079 0.456 -0.215a4.243 4.243 0 0 1 2.841 -0.585c1.005 0.157 1.658 0.537 2.487 1.447 0.442 0.483 1.106 1.723 1.282 2.395 0.31 1.179 0.312 2.847 0.004 3.949 -0.32 1.15 -1.109 2.177 -2.034 2.648 -0.527 0.269 -0.721 0.424 -0.658 0.519 0.029 0.045 0.885 0.053 2.303 0.018a40.963 40.963 0 0 1 4.405 0.083c2.14 0.139 2.426 0.124 2.273 -0.108 -0.029 -0.044 -0.345 -0.227 -0.704 -0.405 -0.767 -0.38 -1.462 -1.009 -1.761 -1.599 -0.272 -0.533 -0.478 -1.34 -0.635 -2.484 -0.436 -3.178 -0.726 -4.101 -1.726 -5.515 -0.863 -1.223 -1.548 -1.845 -2.746 -2.499 -1.911 -1.042 -4.311 -1.046 -6.254 -0.009 -1.219 0.651 -2.737 2.282 -3.394 3.649 -0.676 1.4 -0.941 2.538 -1.009 4.336 -0.06 1.535 0.067 2.543 0.487 3.865 0.854 2.689 2.165 4.81 4.071 6.583 1.624 1.51 3.766 2.673 5.871 3.185 0.636 0.155 0.91 0.176 2.467 0.178 1.653 0.004 1.797 -0.007 2.61 -0.205 1.501 -0.361 2.328 -0.714 3.663 -1.561 2.082 -1.32 4.067 -3.716 4.938 -5.962 0.761 -1.96 1.091 -3.687 1.102 -5.744 0.015 -2.794 -0.828 -5.621 -2.452 -8.242 -0.423 -0.683 -1.753 -2.508 -1.884 -2.585 -0.05 -0.029 0.063 0.148 0.252 0.395 2.175 2.86 3.204 5.003 3.758 7.843 0.143 0.736 0.173 1.165 0.174 2.589 0.001 1.782 -0.056 2.323 -0.394 3.682 -0.366 1.475 -0.923 2.821 -1.639 3.957 -0.698 1.105 -1.799 2.396 -2.006 2.351q-0.078 -0.016 -0.029 0.012c0.076 0.041 -0.004 0.171 -0.105 0.171 -0.041 0 -0.073 -0.067 -0.073 -0.149 0 -0.129 0.282 -0.588 1.077 -1.748 0.339 -0.497 1.125 -2.129 1.388 -2.885 0.079 -0.23 0.198 -0.537 0.262 -0.683 0.211 -0.477 0.509 -1.791 0.576 -2.544 0.015 -0.167 0.051 -0.508 0.08 -0.759 0.083 -0.707 0.04 -2.271 -0.088 -3.145 -0.217 -1.478 -0.929 -3.725 -1.63 -5.129 -0.388 -0.775 -1.148 -2.045 -1.441 -2.402 -0.124 -0.152 -0.227 -0.301 -0.227 -0.331 0 -0.056 -1.042 -1.415 -1.282 -1.671a19.019 19.019 0 0 1 -0.74 -0.828c-0.415 -0.49 -0.67 -0.729 -0.778 -0.729 -0.05 0 -0.064 -0.023 -0.035 -0.053 0.07 -0.066 -0.742 -0.859 -0.881 -0.859 -0.056 0 -0.102 -0.051 -0.102 -0.113 0 -0.063 -0.029 -0.114 -0.069 -0.114 -0.038 0 -0.312 -0.214 -0.609 -0.475a7.315 7.315 0 0 0 -0.755 -0.6 29.259 29.259 0 0 1 -1.688 -1.162c-0.078 -0.064 -0.167 -0.117 -0.2 -0.117s-0.105 -0.069 -0.161 -0.152c-0.054 -0.083 -0.139 -0.152 -0.19 -0.152 -0.05 0 -0.208 -0.085 -0.351 -0.19 -0.143 -0.102 -0.298 -0.189 -0.345 -0.189s-0.085 -0.034 -0.085 -0.073c0 -0.042 -0.092 -0.098 -0.205 -0.124q-0.2 -0.05 -0.158 -0.158c0.032 -0.08 0.003 -0.098 -0.107 -0.064 -0.146 0.044 -0.405 -0.126 -0.405 -0.266 0 -0.038 -0.063 -0.05 -0.139 -0.026 -0.121 0.035 -0.123 0.029 -0.015 -0.037 0.183 -0.114 1.883 0.71 3.106 1.507 2.429 1.58 4.03 2.903 5.384 4.443 0.329 0.376 0.651 0.734 0.717 0.797 0.257 0.25 -0.022 -0.12 -0.487 -0.645 -2.134 -2.414 -5.068 -4.602 -8.089 -6.039 -1.668 -0.793 -3.445 -1.396 -5.488 -1.862 -0.329 -0.076 -0.629 -0.161 -0.666 -0.19s0.209 -0.528 0.547 -1.107l1.012 -1.734c0.992 -1.7 1.919 -2.708 3.14 -3.415 0.358 -0.208 0.614 -0.399 0.569 -0.426s0.019 -0.05 0.143 -0.05c0.123 -0.001 0.421 -0.073 0.663 -0.161 0.24 -0.088 0.565 -0.159 0.72 -0.161a0.922 0.922 0 0 0 0.434 -0.108c0.129 -0.088 0.136 -0.124 0.047 -0.225 -0.176 -0.203 -0.623 -0.278 -2.077 -0.351 -1.57 -0.08 -7.164 -0.102 -7.546 -0.029 -0.358 0.069 -0.306 0.157 0.152 0.249 0.219 0.047 0.497 0.14 0.616 0.211 0.415 0.244 0.907 0.749 1.178 1.208 0.541 0.922 0.351 1.536 -1.375 4.409 -0.279 0.468 -0.559 0.888 -0.62 0.936 -0.085 0.067 -0.442 0.059 -1.486 -0.029a96.556 96.556 0 0 0 -3.994 -0.2c-1.441 -0.044 -2.648 -0.098 -2.685 -0.12s-0.067 -2.946 -0.067 -6.5c0 -3.555 -0.015 -6.446 -0.035 -6.428 -0.02 0.019 -0.041 2.91 -0.048 6.424s-0.034 6.409 -0.059 6.434c-0.08 0.075 -0.094 0.259 -0.124 1.612 -0.02 0.907 -0.001 1.32 0.059 1.347q0.092 0.042 -0.01 0.086c-0.056 0.023 -0.099 0.078 -0.099 0.117s0.035 0.054 0.079 0.028c0.047 -0.028 0.085 0.059 0.092 0.205 0.01 0.195 0.023 0.168 0.059 -0.117l0.048 -0.366 2.467 0.006c2.578 0.009 3.595 0.056 3.751 0.173 0.098 0.073 0.044 0.351 -0.135 0.677 -0.113 0.205 -1.342 2.009 -2.453 3.596 -0.41 0.585 -0.746 1.107 -0.749 1.16 -0.003 0.051 -0.031 0.094 -0.066 0.094 -0.078 0 -1.464 2.007 -2.493 3.606 -1.595 2.481 -2.039 3.151 -3.156 4.755 -0.629 0.903 -1.287 1.868 -1.462 2.146 -0.41 0.65 -1.624 2.408 -3.005 4.352 -0.6 0.844 -1.091 1.554 -1.091 1.577 0 0.056 -1.734 2.546 -1.893 2.718 -0.117 0.129 -0.135 0.124 -0.313 -0.076 -0.18 -0.202 -0.183 -0.202 -0.064 -0.015 0.069 0.107 0.099 0.218 0.07 0.246s-0.012 0.051 0.04 0.051 0.094 0.035 0.094 0.08c0 0.044 -0.037 0.059 -0.08 0.032 -0.089 -0.053 -0.095 0 -0.08 0.808 0.016 0.872 -0.094 0.834 -0.851 -0.301a80.463 80.463 0 0 0 -1.324 -1.911l-1.393 -1.947a115.574 115.574 0 0 0 -1.299 -1.785 39.5 39.5 0 0 1 -0.98 -1.374c-0.218 -0.323 -0.674 -0.99 -1.017 -1.481s-0.951 -1.369 -1.352 -1.955l-1.524 -2.221a709.537 709.537 0 0 1 -5.594 -8.223l-1.053 -1.589c-0.348 -0.522 -0.658 -1.001 -0.688 -1.064a11.704 11.704 0 0 0 -0.827 -1.252 0.731 0.731 0 0 1 -0.164 -0.297c-0.032 -0.17 0.228 -0.263 0.863 -0.307 0.228 -0.015 0.443 -0.044 0.478 -0.064 0.088 -0.05 5.779 -0.225 6.291 -0.193l0.421 0.026 0.016 2.847 0.015 2.847 0.478 0.582c0.263 0.319 0.628 0.794 0.81 1.053l0.335 0.473 -0.048 -3.995 -0.05 -3.995h0.252c0.487 0 0.538 0.135 0.597 1.555 0.029 0.702 0.053 2.633 0.053 4.292 0 2.43 -0.02 3.033 -0.107 3.101 -0.059 0.045 -0.135 0.059 -0.17 0.028 -0.034 -0.031 0 0.059 0.073 0.199 0.082 0.152 0.167 0.228 0.209 0.186 0.041 -0.038 0.082 -2.028 0.092 -4.62l0.022 -4.553 3.022 -0.038c1.662 -0.02 3.129 -0.019 3.261 0.004l0.238 0.041v9.701c0 9.517 0.003 9.704 0.154 9.809 0.085 0.059 0.269 0.108 0.41 0.108 0.227 0 0.29 -0.054 0.584 -0.502 0.345 -0.525 0.758 -1.387 0.693 -1.448 -0.02 -0.019 -0.06 0.037 -0.088 0.123 -0.048 0.142 -0.066 0.146 -0.177 0.04 -0.214 -0.203 -0.288 -4.064 -0.222 -11.402 0.031 -3.6 0.082 -6.532 0.113 -6.515s0.24 0.041 0.468 0.051l0.413 0.018 0.015 0.461 0.015 0.461 0.029 -0.415c0.016 -0.228 0.069 -0.459 0.114 -0.512 0.113 -0.129 6.112 -0.142 6.364 -0.015 0.161 0.083 0.161 0.117 0.14 4.689 -0.025 5.321 -0.022 5.477 0.08 5.477 0.044 0 0.059 -0.047 0.035 -0.105s0 -0.132 0.054 -0.164q0.101 -0.06 0.032 0.05c-0.035 0.059 -0.038 0.083 -0.004 0.054s0.193 -0.268 0.355 -0.531 0.487 -0.771 0.721 -1.126c0.234 -0.354 0.375 -0.604 0.313 -0.556 -0.097 0.076 -0.11 -1.445 -0.091 -10.855 0.022 -11.733 0.061 -13.263 0.361 -14.088 0.247 -0.674 0.761 -1.492 1.182 -1.883 0.334 -0.309 1.037 -0.666 1.132 -0.575 0.026 0.025 0.047 0.006 0.047 -0.044 0 -0.048 0.056 -0.088 0.123 -0.088s0.234 -0.054 0.366 -0.12a0.702 0.702 0 0 1 0.454 -0.069c0.202 0.048 0.19 0.061 -0.227 0.263 -0.24 0.117 -0.67 0.424 -0.954 0.683l-0.516 0.471 0.516 -0.434c0.456 -0.383 0.862 -0.607 1.709 -0.942 0.688 -0.271 -0.632 -0.383 -4.502 -0.383H82.906l-0.35 0.366a65.833 65.833 0 0 0 -1.118 1.235c-3.564 4.023 -5.215 5.839 -5.311 5.839 -0.037 0 -0.322 -0.287 -0.633 -0.636a11.704 11.704 0 0 0 -0.701 -0.74c-0.073 -0.057 0.176 0.247 0.556 0.674 0.377 0.429 0.721 0.838 0.761 0.911 0.076 0.139 0 0.426 -0.135 0.505 -0.094 0.056 -3.131 -2.926 -3.858 -3.789 -0.281 -0.334 -0.79 -0.897 -1.128 -1.252 -0.339 -0.354 -0.986 -1.112 -1.438 -1.682s-0.857 -1.059 -0.901 -1.086 -0.806 -0.059 -1.693 -0.073c-2.581 -0.041 -2.84 -0.053 -2.567 -0.12 0.132 -0.031 0.489 -0.061 0.796 -0.067 0.392 -0.007 0.521 -0.032 0.437 -0.083 -0.066 -0.041 -0.155 -0.067 -0.199 -0.059s-0.79 0.026 -1.656 0.04m2.753 0c0.429 0.013 1.109 0.013 1.511 0 0.402 -0.015 0.053 -0.026 -0.78 -0.026 -0.831 0 -1.16 0.012 -0.731 0.025m3.387 0.767c0.222 0.244 0.468 0.493 0.544 0.55 0.078 0.059 -0.086 -0.142 -0.363 -0.445 -0.278 -0.303 -0.524 -0.55 -0.546 -0.55s0.142 0.2 0.364 0.445m1.318 1.434c0.376 0.408 1.203 1.314 1.839 2.013s1.175 1.271 1.198 1.271 -0.132 -0.196 -0.342 -0.436c-0.878 -0.998 -3.292 -3.587 -3.343 -3.587 -0.018 0 0.274 0.332 0.648 0.74m-3.887 0.685c-0.025 0.023 -0.045 3.369 -0.045 7.433v7.389h0.274c0.266 0 0.38 -0.08 0.414 -0.296a0.249 0.249 0 0 1 0.088 -0.152c0.076 -0.048 0.13 -0.625 0.139 -1.488 0.003 -0.293 0.022 -1.352 0.041 -2.354 0.035 -1.779 0.037 -1.753 0.076 1.138l0.042 2.961 3.34 -0.023c9.097 -0.063 12.16 -0.094 12.189 -0.121 0.053 -0.05 0.009 -12.778 -0.048 -13.597 -0.048 -0.715 -0.061 -0.759 -0.228 -0.767 -0.097 -0.006 -0.161 0.015 -0.142 0.044s-0.08 0.154 -0.219 0.275c-0.212 0.181 -0.225 0.187 -0.078 0.026a0.878 0.878 0 0 0 0.178 -0.249c0 -0.083 -0.394 0.004 -0.6 0.135 -0.344 0.215 -1.521 1.435 -2.901 3.003 -0.907 1.034 -1.375 1.584 -3.014 3.561 -0.366 0.442 -0.714 0.832 -0.775 0.865 -0.059 0.034 -0.107 0.098 -0.107 0.143q-0.003 0.085 0.107 -0.004c0.059 -0.045 0.129 -0.063 0.157 -0.037 0.028 0.028 0.114 0.006 0.192 -0.047s0.041 -0.007 -0.082 0.102c-0.288 0.257 -0.348 0.252 -0.483 -0.054 -0.06 -0.139 -0.66 -0.808 -1.331 -1.486 -0.673 -0.679 -1.238 -1.27 -1.254 -1.312a1.902 1.902 0 0 0 -0.336 -0.342c-0.17 -0.146 -0.288 -0.297 -0.263 -0.336s0 -0.059 -0.057 -0.048c-0.056 0.012 -0.102 -0.019 -0.105 -0.067 -0.004 -0.102 -0.108 -0.215 -0.198 -0.215 -0.108 0 -0.48 -0.471 -0.42 -0.533q0.045 -0.053 -0.029 -0.015c-0.091 0.05 -1.438 -1.363 -1.404 -1.475 0.01 -0.037 -0.012 -0.059 -0.051 -0.047 -0.04 0.01 -0.5 -0.404 -1.024 -0.922 -0.562 -0.553 -0.999 -0.923 -1.064 -0.903 -0.059 0.019 -0.293 -0.025 -0.519 -0.098s-0.432 -0.114 -0.458 -0.089m41.364 0.565c0.563 0.512 0.613 0.559 1.653 1.571 0.475 0.464 0.897 0.844 0.933 0.844s0.069 0.051 0.069 0.113a0.117 0.117 0 0 0 0.119 0.114c0.066 0 0.12 0.05 0.12 0.11s0.064 0.154 0.143 0.209a0.629 0.629 0 0 1 0.202 0.243c0.029 0.079 0.079 0.121 0.107 0.094 0.029 -0.026 0.139 0.029 0.244 0.123l0.192 0.171 -0.099 -0.209c-0.054 -0.114 -0.146 -0.209 -0.205 -0.209s-0.107 -0.067 -0.107 -0.151c0 -0.085 -0.053 -0.152 -0.117 -0.152s-0.142 -0.088 -0.17 -0.195c-0.032 -0.123 -0.091 -0.18 -0.161 -0.154q-0.108 0.035 -0.11 -0.11 0.003 -0.152 -0.171 -0.149c-0.095 0 -0.151 -0.022 -0.123 -0.048 0.079 -0.075 -0.095 -0.332 -0.225 -0.332a0.117 0.117 0 0 1 -0.117 -0.114c0 -0.061 -0.035 -0.113 -0.079 -0.113s-0.079 -0.051 -0.079 -0.114 -0.06 -0.114 -0.133 -0.114 -0.111 -0.02 -0.086 -0.044c0.059 -0.056 -0.228 -0.336 -0.342 -0.336 -0.047 0 -0.061 -0.037 -0.032 -0.08s-0.022 -0.099 -0.114 -0.123c-0.091 -0.022 -0.149 -0.067 -0.129 -0.098s-0.105 -0.117 -0.279 -0.193c-0.174 -0.073 -0.316 -0.181 -0.316 -0.238 0 -0.056 -0.073 -0.102 -0.164 -0.102 -0.089 0 -0.142 -0.034 -0.114 -0.076s-0.034 -0.108 -0.135 -0.146c-0.102 -0.04 -0.155 -0.073 -0.119 -0.076 0.107 -0.007 -0.139 -0.208 -0.325 -0.263 -0.111 -0.035 -0.013 0.092 0.269 0.35m-22.187 0.176c-0.029 0.167 -0.048 0.423 -0.044 0.569 0.007 0.167 0.035 0.082 0.079 -0.228 0.075 -0.547 0.048 -0.819 -0.035 -0.341m-18.312 3.264c0 1.671 0.012 2.342 0.023 1.494 0.015 -0.849 0.015 -2.215 0 -3.036 -0.012 -0.822 -0.023 -0.129 -0.023 1.542m12.805 -1.043 -0.5 0.569c-0.064 0.073 -0.098 0.132 -0.075 0.132 0.022 0 0.263 -0.256 0.534 -0.569 0.272 -0.313 0.478 -0.569 0.458 -0.569 -0.019 0 -0.208 0.196 -0.417 0.437m-3.417 3.681 -0.556 0.552 0.578 -0.53c0.535 -0.492 0.613 -0.571 0.554 -0.571 -0.012 0 -0.272 0.246 -0.576 0.549m36.867 -0.094c0 0.041 0.059 0.075 0.126 0.075s0.107 0.026 0.086 0.059 0.009 0.117 0.064 0.19c0.098 0.127 0.105 0.127 0.145 -0.015q0.042 -0.152 -0.146 -0.268c-0.219 -0.138 -0.274 -0.146 -0.274 -0.041m0.401 0.578c0 0.048 0.051 0.129 0.117 0.18s0.12 0.135 0.12 0.183 0.063 0.142 0.139 0.208c0.244 0.211 0.342 0.348 0.872 1.232 0.121 0.205 0.338 0.474 0.48 0.6 0.142 0.129 0.259 0.297 0.259 0.377s0.107 0.293 0.238 0.475 0.238 0.369 0.238 0.413 0.034 0.08 0.073 0.08c0.042 0 0.101 0.078 0.132 0.171s0.184 0.358 0.339 0.588 0.278 0.442 0.269 0.468c-0.007 0.029 0.073 0.132 0.181 0.228 0.108 0.098 0.196 0.234 0.198 0.301 0 0.067 0.061 0.17 0.135 0.227 0.119 0.092 0.129 0.088 0.08 -0.034a1.317 1.317 0 0 1 -0.056 -0.37c0 -0.193 -0.025 -0.224 -0.158 -0.19 -0.177 0.044 -0.208 -0.023 -0.07 -0.154 0.067 -0.064 0.045 -0.139 -0.082 -0.294a2.926 2.926 0 0 1 -0.316 -0.518 2.341 2.341 0 0 0 -0.386 -0.556c-0.133 -0.135 -0.237 -0.306 -0.231 -0.38q0.012 -0.133 -0.135 -0.108c-0.108 0.018 -0.136 -0.012 -0.104 -0.114 0.023 -0.076 -0.026 -0.257 -0.111 -0.404s-0.176 -0.325 -0.203 -0.398 -0.082 -0.133 -0.121 -0.133c-0.038 0 -0.07 -0.064 -0.07 -0.143s-0.054 -0.164 -0.119 -0.187c-0.066 -0.025 -0.12 -0.08 -0.12 -0.124 0 -0.107 -0.531 -0.819 -0.765 -1.027 -0.104 -0.092 -0.19 -0.219 -0.19 -0.281 0 -0.176 -0.262 -0.366 -0.395 -0.287q-0.117 0.064 -0.177 -0.023 -0.063 -0.094 -0.061 -0.006m-17.453 0.929q-0.053 0.085 0.146 0.088c0.203 0 1.134 0.253 1.45 0.395 0.097 0.044 0.307 0.054 0.477 0.023a7.315 7.315 0 0 1 0.714 -0.076c0.225 -0.012 0.533 -0.061 0.685 -0.108 0.151 -0.048 0.336 -0.064 0.414 -0.037 0.08 0.029 0.167 0.01 0.202 -0.045 0.037 -0.057 0.105 -0.072 0.167 -0.035 0.056 0.032 0.293 0.051 0.527 0.041 0.231 -0.01 0.421 0.012 0.421 0.048 0 0.108 1.457 0.174 1.565 0.07 0.029 -0.029 -0.003 -0.11 -0.076 -0.178 -0.107 -0.102 -0.334 -0.13 -1.229 -0.146 -0.601 -0.012 -2.066 -0.044 -3.251 -0.073 -1.583 -0.04 -2.171 -0.029 -2.212 0.034m3.219 1.134c-1.091 0.822 -2.313 2.395 -3.331 4.285 -0.249 0.461 -0.53 0.98 -0.626 1.151 -0.187 0.334 -0.231 0.578 -0.105 0.578 0.044 0 0.056 0.098 0.029 0.227 -0.029 0.146 -0.015 0.228 0.042 0.228 0.048 0 0.088 -0.069 0.088 -0.152s0.035 -0.152 0.076 -0.152 0.098 -0.073 0.127 -0.161q0.054 -0.165 0.114 -0.07c0.063 0.098 0.228 -0.146 0.767 -1.135 0.17 -0.313 0.328 -0.585 0.351 -0.607a11.704 11.704 0 0 0 0.427 -0.683c0.922 -1.536 1.998 -2.712 2.993 -3.265 0.304 -0.171 0.554 -0.319 0.554 -0.329s-0.234 -0.015 -0.521 -0.01c-0.287 0.006 -0.54 -0.018 -0.562 -0.053 -0.061 -0.097 -0.127 -0.073 -0.424 0.149m-41.402 9.126c0.032 0.105 0.124 0.281 0.206 0.392a0.731 0.731 0 0 1 0.149 0.284c0 0.047 0.031 0.083 0.07 0.083 0.038 0 0.113 0.099 0.165 0.222a1.17 1.17 0 0 0 0.265 0.361l0.17 0.138 -0.154 -0.228a62.907 62.907 0 0 1 -0.541 -0.834c-0.215 -0.335 -0.363 -0.522 -0.331 -0.418m27.196 2.961c0 1.399 0.01 1.971 0.023 1.273 0.013 -0.701 0.013 -1.845 0 -2.546 -0.015 -0.698 -0.025 -0.126 -0.025 1.273m6.681 0.702 -0.418 0.645c-0.063 0.094 -0.095 0.171 -0.073 0.171 0.042 0 0.581 -0.79 0.764 -1.119 0.19 -0.345 0.023 -0.158 -0.272 0.303m-0.958 1.481c-0.209 0.323 -0.432 0.666 -0.494 0.759s-0.095 0.171 -0.073 0.171 0.212 -0.265 0.421 -0.588l0.494 -0.761c0.063 -0.094 0.097 -0.17 0.073 -0.17 -0.022 0 -0.212 0.263 -0.421 0.588m-1.744 2.692c-0.475 0.692 -0.632 0.942 -0.541 0.857 0.136 -0.126 0.916 -1.263 0.885 -1.292 -0.015 -0.015 -0.17 0.181 -0.344 0.434m10.858 0.996c0 0.056 0.202 0.234 0.448 0.395 0.458 0.301 1.409 1.286 1.621 1.677 0.066 0.121 0.263 0.458 0.44 0.751 0.887 1.463 1.107 2.317 1.189 4.594 0.063 1.712 0.17 2.608 0.351 2.946 0.183 0.334 0.897 1.109 1.15 1.245 1.289 0.696 2.254 1.021 2.458 0.828 0.066 -0.063 0.054 -0.085 -0.045 -0.085 -0.075 0 -0.136 -0.029 -0.136 -0.063s-0.142 -0.138 -0.316 -0.231c-0.483 -0.259 -1.188 -0.909 -1.521 -1.402 -0.459 -0.676 -0.682 -1.444 -0.907 -3.141 -0.401 -3.037 -0.6 -3.649 -1.7 -5.215 -0.641 -0.914 -1.549 -1.745 -2.323 -2.127 -0.606 -0.298 -0.708 -0.322 -0.708 -0.171M77.347 42.442c0 0.585 0.015 0.813 0.029 0.509s0.015 -0.783 0 -1.062c-0.016 -0.281 -0.029 -0.031 -0.029 0.553m11.48 -0.474c-0.355 0.534 -0.418 0.645 -0.316 0.55 0.119 -0.11 0.669 -0.948 0.622 -0.948 -0.022 0 -0.159 0.178 -0.306 0.398m-11.399 3.928c0 0.565 0.012 0.794 0.028 0.512a11.704 11.704 0 0 0 0 -1.024c-0.015 -0.281 -0.029 -0.051 -0.029 0.512m-28.85 -0.221c-0.382 0.743 -0.559 1.969 -0.516 3.562 0.029 1.083 0.034 1.109 0.297 1.576 0.547 0.973 2.433 2.366 3.207 2.371 0.145 0 0.041 -0.205 -0.159 -0.319 -0.367 -0.206 -1.08 -0.922 -1.448 -1.454 -0.193 -0.278 -0.38 -0.505 -0.415 -0.505s-0.059 -0.025 -0.051 -0.056a0.38 0.38 0 0 0 -0.038 -0.171 10.241 10.241 0 0 1 -0.348 -0.968c-0.023 -0.094 -0.07 -0.171 -0.104 -0.171 -0.237 0 -0.377 -2.745 -0.181 -3.548 0.056 -0.23 0.07 -0.468 0.032 -0.565 -0.059 -0.148 -0.086 -0.123 -0.275 0.247m38.078 1.513c0 0.939 0.012 1.324 0.026 0.854s0.015 -1.239 0 -1.709 -0.026 -0.085 -0.026 0.854m-26.191 -1.292c-0.001 0.063 0.045 0.303 0.105 0.533s0.111 0.348 0.114 0.265 -0.044 -0.322 -0.105 -0.531 -0.111 -0.328 -0.114 -0.265m33.56 1.118c-0.127 0.809 -0.187 2.535 -0.108 3.135 0.05 0.375 0.066 0.139 0.067 -0.988 0.001 -0.832 0.048 -1.741 0.105 -2.076 0.056 -0.326 0.086 -0.61 0.066 -0.629s-0.078 0.233 -0.129 0.556m-25.845 11.181c-0.029 9.568 -0.029 9.566 0.069 9.982 0.044 0.19 0.101 0.474 0.124 0.629 0.06 0.392 0.402 1.217 0.636 1.536 0.107 0.146 0.278 0.388 0.383 0.535 0.256 0.364 1.34 1.457 1.747 1.761 0.181 0.135 0.023 -0.047 -0.351 -0.404 -1.416 -1.346 -2.086 -2.433 -2.395 -3.877 -0.057 -0.271 -0.102 -3.324 -0.138 -9.062l-0.053 -8.655zm18.404 2.013c0.007 6.013 0.035 8.348 0.102 8.541l0.091 0.265 -0.048 -0.265c-0.026 -0.146 -0.073 -3.99 -0.102 -8.541l-0.051 -8.276zm-9.155 0.948c0 0.772 0.012 1.088 0.026 0.702s0.015 -1.018 0 -1.404 -0.026 -0.07 -0.026 0.702m0.085 13.02c0 4.677 0.01 6.579 0.02 4.228 0.012 -2.352 0.012 -6.18 0 -8.504s-0.02 -0.399 -0.02 4.276m-11.71 -4.499a1.024 1.024 0 0 0 -0.13 0.355 0.951 0.951 0 0 1 -0.178 0.395c-0.069 0.073 -0.11 0.178 -0.088 0.233q0.038 0.101 0.099 -0.053a1.17 1.17 0 0 1 0.167 -0.269c0.14 -0.158 0.358 -0.755 0.275 -0.755 -0.037 0 -0.102 0.042 -0.146 0.094m22.076 1.463c0.161 0.228 0.79 0.819 1.091 1.027 0.088 0.061 0.001 -0.029 -0.193 -0.199a13.167 13.167 0 0 1 -0.707 -0.683c-0.195 -0.205 -0.281 -0.271 -0.192 -0.146m-33.471 2.376c0 0.034 0.126 0.176 0.278 0.319 0.342 0.316 0.37 0.208 0.035 -0.133 -0.249 -0.253 -0.313 -0.293 -0.313 -0.186m2.943 2.702c0 0.149 1.957 1.716 2.142 1.716 0.047 0 0.085 0.029 0.085 0.064 0 0.101 2.414 1.595 3.54 2.189 1.009 0.535 2.506 1.192 3.458 1.519 1.182 0.404 2.831 0.863 3.059 0.85 0.161 -0.007 0.161 -0.009 0.003 -0.045 -0.38 -0.091 -2.364 -0.733 -2.982 -0.966 -1.355 -0.512 -4.81 -2.107 -4.731 -2.183 0.016 -0.015 -0.139 -0.111 -0.344 -0.214 -0.66 -0.328 -3.428 -2.194 -3.501 -2.361 -0.034 -0.078 -0.731 -0.62 -0.731 -0.569m14.317 6.712c0 0.094 0.135 0.135 0.655 0.203 0.424 0.054 0.531 -0.067 0.12 -0.136a17.556 17.556 0 0 1 -0.516 -0.095c-0.164 -0.034 -0.259 -0.023 -0.259 0.028m-12.249 6.124c0 0.044 2.465 0.802 2.581 0.793 0.063 -0.004 -2.455 -0.818 -2.56 -0.827 -0.012 -0.001 -0.02 0.015 -0.02 0.034m3.071 0.948c0.222 0.076 0.527 0.158 0.676 0.183s0.001 -0.038 -0.326 -0.142c-0.686 -0.215 -0.957 -0.247 -0.351 -0.041m2.377 0.6c0.218 0.092 2.189 0.49 2.232 0.449 0.019 -0.018 -0.423 -0.124 -0.98 -0.237 -1.529 -0.307 -1.435 -0.293 -1.252 -0.214m4.575 0.849c0.196 0.035 0.483 0.06 0.635 0.059 0.228 -0.004 0.206 -0.016 -0.119 -0.064 -0.546 -0.082 -1.001 -0.075 -0.516 0.007m11.493 0.199c-0.088 0.016 -0.553 0.061 -1.034 0.099l-0.875 0.069 0.954 -0.04c1.017 -0.044 2.058 -0.158 1.432 -0.158 -0.176 0 -0.391 0.015 -0.477 0.029m-7.853 0.158c0.187 0.015 0.474 0.015 0.636 0 0.164 -0.018 0.01 -0.029 -0.339 -0.029s-0.483 0.013 -0.297 0.029m2.186 0.076c0.645 0.015 1.701 0.015 2.347 0 0.644 -0.012 0.117 -0.022 -1.173 -0.022s-1.818 0.01 -1.173 0.022" fill="#C39472"/><path d="M0.341 102.141h2.153l5.062 12.365h0.176l5.062 -12.365h2.151V117.037H13.26v-11.317h-0.146L8.457 117.037H6.829l-4.655 -11.317h-0.146V117.037H0.341zM19.174 117.037h-1.892l5.47 -14.896h1.861L30.083 117.037H28.191l-4.45 -12.539h-0.117zm0.698 -5.818h7.622v1.6h-7.622zm24.344 -9.078V117.037H42.47l-8.118 -11.695h-0.146V117.037H32.405V102.141h1.745l8.146 11.724h0.146v-11.724zM52.421 117.037H47.824V102.141h4.8q2.168 0 3.71 0.895a5.852 5.852 0 0 1 2.364 2.553q0.821 1.658 0.821 3.97 0 2.326 -0.828 4.009a5.91 5.91 0 0 1 -2.415 2.575q-1.586 0.892 -3.855 0.894m-2.794 -1.6h2.677q1.848 0 3.062 -0.712a4.389 4.389 0 0 0 1.813 -2.029q0.595 -1.317 0.595 -3.135 0 -1.804 -0.59 -3.106a4.345 4.345 0 0 0 -1.76 -2.007q-1.17 -0.705 -2.916 -0.705h-2.882zm25.486 -5.847q0 2.357 -0.85 4.073 -0.851 1.716 -2.335 2.648 -1.485 0.93 -3.39 0.93t-3.39 -0.93q-1.483 -0.932 -2.335 -2.648 -0.849 -1.716 -0.85 -4.073 0 -2.357 0.85 -4.073 0.851 -1.716 2.335 -2.648 1.485 -0.93 3.39 -0.93t3.39 0.93 2.335 2.648 0.85 4.073m-1.745 0q0 -1.935 -0.647 -3.265 -0.641 -1.331 -1.738 -2.014a4.535 4.535 0 0 0 -2.443 -0.685q-1.355 0 -2.452 0.685 -1.093 0.682 -1.739 2.014 -0.639 1.33 -0.639 3.265t0.639 3.265q0.647 1.331 1.739 2.014 1.097 0.685 2.45 0.685t2.443 -0.685q1.099 -0.683 1.739 -2.014 0.647 -1.33 0.647 -3.265m4.779 -7.446h2.152l5.062 12.362h0.176l5.062 -12.362H92.752V117.037h-1.688v-11.317h-0.146L86.265 117.037H84.632l-4.655 -11.317h-0.145V117.037h-1.688zM96.368 117.037V102.141h8.988v1.6h-7.185v5.033h6.719v1.6h-6.719v5.062h7.302V117.037zm12.241 -14.896h2.152l5.062 12.365h0.176l5.062 -12.365h2.153V117.037h-1.688v-11.317h-0.146L116.728 117.037h-1.63l-4.655 -11.317h-0.146V117.037H108.61zm30.79 7.448q0 2.357 -0.851 4.073t-2.335 2.648 -3.39 0.93 -3.388 -0.93 -2.335 -2.648 -0.851 -4.073 0.851 -4.073 2.335 -2.648 3.388 -0.93 3.39 0.93 2.335 2.648 0.851 4.073m-1.745 0q0 -1.935 -0.648 -3.265 -0.639 -1.331 -1.738 -2.014a4.535 4.535 0 0 0 -2.443 -0.685q-1.353 0 -2.452 0.685 -1.091 0.682 -1.738 2.014 -0.641 1.33 -0.641 3.265t0.641 3.265q0.647 1.331 1.738 2.014 1.097 0.685 2.45 0.685 1.355 0 2.443 -0.685 1.1 -0.683 1.741 -2.014 0.645 -1.33 0.647 -3.265M142.431 117.037V102.141h5.033q1.747 0 2.866 0.597 1.121 0.588 1.659 1.622 0.538 1.031 0.538 2.348t-0.538 2.335q-0.54 1.018 -1.652 1.6 -1.112 0.575 -2.844 0.575h-4.073v-1.63h4.014q1.192 0 1.921 -0.35 0.734 -0.348 1.062 -0.989 0.334 -0.647 0.334 -1.542 0 -0.894 -0.334 -1.564a2.282 2.282 0 0 0 -1.069 -1.033q-0.734 -0.37 -1.941 -0.37h-3.172V117.037zm7.012 -6.692L153.108 117.037h-2.095l-3.606 -6.692zm7.893 -8.204V117.037h-1.804V102.141z" fill="#C39472"/></svg>