<svg width="75" height="75" viewBox="0 0 75 75" fill="none" xmlns="http://www.w3.org/2000/svg">
<path d="M75 37.5C75 58.2107 58.2107 75 37.5 75C16.7893 75 0 58.2107 0 37.5C0 16.7893 16.7893 0 37.5 0C58.2107 0 75 16.7893 75 37.5Z" fill="url(#paint0_linear_253_12880)"/>
<path d="M17 26.6167C17 24.6203 18.6464 23 20.675 23H49.025C51.0536 23 52.7 24.6203 52.7 26.6167V44.1833C52.7 45.1425 52.3128 46.0624 51.6236 46.7407C50.9344 47.419 49.9997 47.8 49.025 47.8H20.675C19.7003 47.8 18.7656 47.419 18.0764 46.7407C17.3872 46.0624 17 45.1425 17 44.1833V26.6167ZM23.3 25.5833V27.65C23.3 28.0611 23.1341 28.4553 22.8387 28.746C22.5433 29.0367 22.1427 29.2 21.725 29.2H19.625V32.3H21.725C22.3455 32.3 22.9599 32.1797 23.5332 31.946C24.1064 31.7124 24.6273 31.3698 25.0661 30.938C25.5048 30.5063 25.8529 29.9936 26.0903 29.4295C26.3278 28.8653 26.45 28.2606 26.45 27.65V25.5833H23.3ZM34.85 40.5667C36.1031 40.5667 37.305 40.0768 38.1911 39.2047C39.0772 38.3327 39.575 37.1499 39.575 35.9167C39.575 34.6834 39.0772 33.5007 38.1911 32.6286C37.305 31.7566 36.1031 31.2667 34.85 31.2667C33.5969 31.2667 32.395 31.7566 31.5089 32.6286C30.6228 33.5007 30.125 34.6834 30.125 35.9167C30.125 37.1499 30.6228 38.3327 31.5089 39.2047C32.395 40.0768 33.5969 40.5667 34.85 40.5667ZM19.625 41.6H21.725C22.1427 41.6 22.5433 41.7633 22.8387 42.054C23.1341 42.3447 23.3 42.7389 23.3 43.15V45.2167H26.45V43.15C26.45 41.9167 25.9522 40.734 25.0661 39.862C24.18 38.9899 22.9781 38.5 21.725 38.5H19.625V41.6ZM46.4 43.15C46.4 42.7389 46.5659 42.3447 46.8613 42.054C47.1567 41.7633 47.5573 41.6 47.975 41.6H50.075V38.5H47.975C46.7219 38.5 45.52 38.9899 44.6339 39.862C43.7478 40.734 43.25 41.9167 43.25 43.15V45.2167H46.4V43.15ZM46.4 27.65V25.5833H43.25V27.65C43.25 28.2606 43.3722 28.8653 43.6097 29.4295C43.8471 29.9936 44.1952 30.5063 44.6339 30.938C45.52 31.8101 46.7219 32.3 47.975 32.3H50.075V29.2H47.975C47.5573 29.2 47.1567 29.0367 46.8613 28.746C46.5659 28.4553 46.4 28.0611 46.4 27.65ZM22.0421 50.9C22.595 51.8429 23.3906 52.6259 24.3487 53.1701C25.3069 53.7143 26.3937 54.0005 27.5 54H49.025C50.3349 54 51.632 53.7461 52.8423 53.2528C54.0525 52.7594 55.1521 52.0363 56.0784 51.1248C57.0047 50.2132 57.7394 49.131 58.2407 47.94C58.742 46.749 59 45.4725 59 44.1833V33.3333C59.0003 32.2447 58.7094 31.1751 58.1564 30.2323C57.6035 29.2894 56.808 28.5064 55.85 27.9621V44.1833C55.85 45.9647 55.1309 47.6731 53.851 48.9327C52.5711 50.1924 50.8351 50.9 49.025 50.9H22.0421Z" fill="white"/>
<defs>
<linearGradient id="paint0_linear_253_12880" x1="-14" y1="84" x2="67" y2="10" gradientUnits="userSpaceOnUse">
<stop offset="0.259179" stop-color="#00C2FF"/>
<stop offset="0.652415" stop-color="#00E7D9"/>
<stop offset="1" stop-color="#00EC97"/>
</linearGradient>
</defs>
</svg>
