<svg width="75" height="75" viewBox="0 0 75 75" fill="none" xmlns="http://www.w3.org/2000/svg">
<circle cx="37.5" cy="37.5" r="37.5" fill="url(#paint0_linear_253_12875)"/>
<path d="M46.1236 43.3735L45.1747 44.2663C45.1747 44.2663 41.0589 48.3529 33.776 41.509C33.4211 41.1755 33.0924 40.8495 32.7882 40.5311C26.743 34.2032 30.3827 30.87 30.3827 30.87L30.9791 30.3063C32.4535 28.9226 32.5932 26.6993 31.3065 25.0752L29.6718 22.695C28.0786 20.6846 25.0027 20.4185 23.178 22.1333L20.4407 24.7014C19.5377 25.5529 18.933 26.6527 19.006 27.8747C19.1936 31.0027 20.6909 37.7297 29.0407 45.5782C29.4681 45.9798 29.8943 46.3628 30.3187 46.728C38.6879 53.9302 46.3713 54.2164 49.6044 53.9312C50.6805 53.8366 51.6147 53.3202 52.3675 52.6107L54.792 50.3343C56.794 48.4559 56.2309 45.2333 53.6701 43.9187L51.1618 42.7487C49.481 41.8854 47.4373 42.1396 46.1236 43.3735Z" fill="white"/>
<defs>
<linearGradient id="paint0_linear_253_12875" x1="10.5" y1="66.5" x2="99" y2="-21" gradientUnits="userSpaceOnUse">
<stop offset="0.0089604" stop-color="#646DFF"/>
<stop offset="0.557418" stop-color="#69B9FE"/>
<stop offset="1" stop-color="#00ECEC"/>
</linearGradient>
</defs>
</svg>
